<svg id="Layer_1" xmlns="http://www.w3.org/2000/svg" viewBox="0 0 52.6 66.3"><style>.st0{fill:#26a65b}</style><path d="M8.1 28c-.6 0-1-.4-1-1V1c0-.6.4-1 1-1s1 .4 1 1v26c0 .6-.5 1-1 1z"/><path d="M43.2 2H8.1c-.6 0-1-.4-1-1s.4-1 1-1h35.1c.6 0 1 .4 1 1s-.4 1-1 1zM51.6 54.2c-.6 0-1-.4-1-1V9c0-.6.4-1 1-1s1 .4 1 1v44.2c0 .5-.5 1-1 1z"/><path d="M51.6 10h-8.1c-.6 0-1-.4-1-1s.4-1 1-1h8.1c.6 0 1 .4 1 1s-.5 1-1 1z"/><path d="M43.2 10c-.6 0-1-.4-1-1V1c0-.6.4-1 1-1s1 .4 1 1v8c0 .5-.4 1-1 1z"/><path d="M51.6 10c-.2 0-.5-.1-.7-.3l-8.3-8c-.4-.4-.4-1 0-1.4.4-.4 1-.4 1.4 0l8.3 8c.4.4.4 1 0 1.4-.2.2-.5.3-.7.3z"/><path class="st0" d="M44.7 15H16c-.6 0-1-.4-1-1s.4-1 1-1h28.7c.6 0 1 .4 1 1s-.4 1-1 1zM44.7 19.7H16c-.6 0-1-.4-1-1s.4-1 1-1h28.7c.6 0 1 .4 1 1s-.4 1-1 1zM44.7 24.3H16c-.6 0-1-.4-1-1s.4-1 1-1h28.7c.6 0 1 .4 1 1s-.4 1-1 1zM21 45.6c-.6 0-1-.4-1-1v-7.9c0-.6.4-1 1-1s1 .4 1 1v7.9c0 .6-.5 1-1 1zM25.7 45.6c-.6 0-1-.4-1-1V31c0-.6.4-1 1-1s1 .4 1 1v13.7c0 .5-.5.9-1 .9zM30.3 45.6c-.6 0-1-.4-1-1V28.2c0-.6.4-1 1-1s1 .4 1 1v16.4c0 .6-.4 1-1 1zM35 45.6c-.6 0-1-.4-1-1v-7.9c0-.6.4-1 1-1s1 .4 1 1v7.9c0 .6-.4 1-1 1zM39.7 45.6c-.6 0-1-.4-1-1V32.3c0-.6.4-1 1-1s1 .4 1 1v12.3c0 .6-.4 1-1 1z"/><path d="M16 54.2H4.7c-.6 0-1-.4-1-1 0-1.7-.7-3.4-1.5-5.4-1-2.5-2.2-5.3-2.2-8.9 0-2.7 3.3-9.7 7.2-11 .1-1.3.4-3.2 2.1-3.7 1.9-.6 3.1 0 3.8.5 1.3 1 2 2.9 2 5.5 0 4 .5 6.9.9 10.1.6 3.6 1.1 7.4.9 12.8 0 .7-.4 1.1-.9 1.1zm-10.3-2H15c.1-4.7-.4-8.2-.9-11.5-.5-3.1-1-6.3-1-10.4 0-1.9-.4-3.3-1.2-3.9-.5-.4-1.2-.4-2-.2-.2.1-.7.4-.7 2.5v11.8c0 .6-.4 1-1 1s-1-.4-1-1V30.2C4.6 31.6 2 36.9 2 38.9c0 3.2 1 5.7 2 8.1.8 1.8 1.5 3.5 1.7 5.2z"/><path class="st0" d="M18.6 66.3c-.6 0-1-.4-1-1V54.2H2.9v11.1c0 .6-.4 1-1 1s-1-.4-1-1V53.2c0-.6.4-1 1-1h16.7c.6 0 1 .4 1 1v12.1c0 .6-.5 1-1 1z"/><path class="st0" d="M15.1 58.4h-2.2c-.6 0-1-.4-1-1s.4-1 1-1h2.2c.6 0 1 .4 1 1s-.4 1-1 1z"/></svg>