<svg id="Layer_1" xmlns="http://www.w3.org/2000/svg" viewBox="0 0 55.6 63.8"><style>.st0{fill:#26a65b}</style><path d="M54.6 55.6H44.4c-.6 0-1-.4-1-1s.4-1 1-1h9.3v-44L46.2 2h-32v51.6h9.1c.6 0 1 .4 1 1s-.4 1-1 1h-10c-.6 0-1-.4-1-1V1c0-.6.4-1 1-1h33.4c.3 0 .5.1.7.3l8 8.3c.2.2.3.4.3.7v45.4c-.1.5-.5.9-1.1.9z"/><path class="st0" d="M47.9 15.2H20c-.6 0-1-.4-1-1s.4-1 1-1h27.8c.6 0 1 .4 1 1s-.4 1-.9 1zM47.9 19.6H20c-.6 0-1-.4-1-1s.4-1 1-1h27.8c.6 0 1 .4 1 1s-.4 1-.9 1zM47.9 24H20c-.6 0-1-.4-1-1s.4-1 1-1h27.8c.6 0 1 .4 1 1s-.4 1-.9 1zM33.9 52.7c-1.2 0-2.1-1-2.8-1.8-.4-.4-.8-.9-1.1-1-.3-.1-1-.1-1.5-.1-1.1.1-2.3.1-3.2-.7-.8-.8-.8-2.1-.7-3.2 0-.6.1-1.2-.1-1.5-.1-.3-.6-.7-1-1.1-.8-.7-1.8-1.6-1.8-2.8 0-1.2 1-2.1 1.8-2.8.4-.4.9-.8 1-1.1.1-.3.1-1 .1-1.5-.1-1.1-.1-2.3.7-3.2.8-.8 2.1-.8 3.2-.7.6 0 1.2.1 1.5-.1.3-.1.7-.6 1.1-1 .7-.8 1.6-1.8 2.8-1.8 1.2 0 2.1 1 2.8 1.8.4.4.8.9 1.1 1 .3.1 1 .1 1.5.1 1.1-.1 2.3-.1 3.2.7.8.8.8 2.1.7 3.2 0 .6-.1 1.2.1 1.5.1.3.6.7 1 1.1.8.7 1.8 1.6 1.8 2.8 0 1.2-1 2.1-1.8 2.8-.4.4-.9.8-1 1.1-.1.3-.1 1-.1 1.5.1 1.1.1 2.3-.7 3.2-.8.8-2.1.8-3.2.7-.6 0-1.2-.1-1.5.1-.3.1-.7.6-1.1 1-.6.9-1.5 1.8-2.8 1.8zm-4.6-4.8c.5 0 1.1.1 1.5.3.7.3 1.3.9 1.8 1.5.4.5 1 1.1 1.3 1.1.3 0 .9-.6 1.3-1.1.5-.6 1.1-1.2 1.8-1.5.7-.3 1.6-.3 2.4-.2.6 0 1.4.1 1.6-.1.2-.2.2-1 .1-1.6 0-.8-.1-1.7.2-2.4.3-.7.9-1.3 1.5-1.8.5-.4 1.1-1 1.1-1.3s-.6-.9-1.1-1.3c-.6-.5-1.2-1.1-1.5-1.8-.3-.8-.3-1.6-.2-2.4 0-.6.1-1.4-.1-1.6-.2-.2-1-.2-1.6-.1-.8 0-1.7.1-2.4-.2-.7-.3-1.3-.9-1.8-1.5-.4-.5-1-1.1-1.3-1.1-.3 0-.9.6-1.3 1.1-.5.6-1.1 1.2-1.8 1.5-.8.3-1.6.3-2.4.2-.6 0-1.4-.1-1.6.1s-.2 1-.1 1.6c0 .8.1 1.7-.2 2.4-.3.7-.9 1.3-1.5 1.8-.5.4-1.1 1-1.1 1.3 0 .3.6.9 1.1 1.3.6.5 1.2 1.1 1.5 1.8.3.8.3 1.6.2 2.4 0 .6-.1 1.4.1 1.6s1 .2 1.6.1c.3-.1.6-.1.9-.1z"/><path class="st0" d="M40 63.8c-.2 0-.4-.1-.6-.2l-5.9-4.1-5.9 4.1c-.3.2-.7.2-1 .1-.3-.2-.5-.5-.5-.9V52.6c0-.6.4-1 1-1s1 .4 1 1v8.3l4.9-3.4c.3-.2.8-.2 1.1 0l4.9 3.4v-8.3c0-.6.4-1 1-1s1 .4 1 1v10.2c0 .4-.2.7-.5.9-.1.1-.3.1-.5.1zM33.9 45.9c-2.9 0-5.3-2.4-5.3-5.3s2.4-5.3 5.3-5.3 5.3 2.4 5.3 5.3-2.3 5.3-5.3 5.3zm0-8.6c-1.8 0-3.3 1.5-3.3 3.3s1.5 3.3 3.3 3.3 3.3-1.5 3.3-3.3-1.4-3.3-3.3-3.3z"/><path d="M54.6 10.3h-8c-.6 0-1-.4-1-1s.4-1 1-1h8c.6 0 1 .4 1 1s-.4 1-1 1z"/><path d="M46.6 10.3c-.6 0-1-.4-1-1V1.5c0-.6.4-1 1-1s1 .4 1 1v7.8c0 .5-.4 1-1 1z"/><path class="st0" d="M4 63.8c-.4 0-.7-.2-.9-.5l-3-5.8c-.1-.2-.1-.3-.1-.5V4c0-2.2 1.8-4 4-4s4 1.8 4 4v53c0 .2 0 .3-.1.5l-3 5.8c-.1.3-.5.5-.9.5zm-2-7l2 3.9 2-3.9V4c0-1.1-.9-2-2-2s-2 .9-2 2v52.8zm5.1.2z"/><path class="st0" d="M7.1 9.8H1c-.6 0-1-.4-1-1s.4-1 1-1h6.1c.6 0 1 .4 1 1s-.5 1-1 1z"/></svg>