<svg id="Layer_1" xmlns="http://www.w3.org/2000/svg" viewBox="0 0 47.5 59.7"><style>.st0{fill:#26a65b}</style><path class="st0" d="M46.5 55.6h-4.1c-.6 0-1-.4-1-1s.4-1 1-1h3.1V2H15.3c-.6 0-1-.4-1-1s.4-1 1-1h31.1c.6 0 1 .4 1 1v53.6c.1.6-.4 1-.9 1z"/><path d="M42.4 59.7H1c-.6 0-1-.4-1-1V5.1c0-.6.4-1 1-1h33.4c.3 0 .5.1.7.3l8 8.3c.2.2.3.4.3.7v45.4c0 .5-.5.9-1 .9zM2 57.7h39.4v-44L34 6.1H2v51.6z"/><path class="st0" d="M35.6 19.3H7.8c-.6 0-1-.4-1-1s.4-1 1-1h27.8c.6 0 1 .4 1 1s-.4 1-1 1zM35.6 23.7H7.8c-.6 0-1-.4-1-1s.4-1 1-1h27.8c.6 0 1 .4 1 1s-.4 1-1 1zM35.6 28.1H7.8c-.6 0-1-.4-1-1s.4-1 1-1h27.8c.6 0 1 .4 1 1s-.4 1-1 1z"/><path d="M20.9 34.6H7.8c-.6 0-1-.4-1-1s.4-1 1-1h13.1c.6 0 1 .4 1 1s-.4 1-1 1zM16.6 39H7.8c-.6 0-1-.4-1-1s.4-1 1-1h8.8c.6 0 1 .4 1 1s-.4 1-1 1zM15.3 43.4H7.8c-.6 0-1-.4-1-1s.4-1 1-1h7.6c.6 0 1 .4 1 1s-.5 1-1.1 1zM42.4 14.4h-8c-.6 0-1-.4-1-1s.4-1 1-1h8c.6 0 1 .4 1 1s-.5 1-1 1z"/><path d="M34.4 14.4c-.6 0-1-.4-1-1V5.6c0-.6.4-1 1-1s1 .4 1 1v7.8c0 .5-.5 1-1 1z"/><path class="st0" d="M29.6 52.5c-5.3 0-9.6-4.3-9.6-9.6s4.3-9.6 9.6-9.6 9.6 4.3 9.6 9.6-4.3 9.6-9.6 9.6zm0-17.3c-4.2 0-7.6 3.4-7.6 7.6s3.4 7.6 7.6 7.6 7.6-3.4 7.6-7.6-3.4-7.6-7.6-7.6z"/><path class="st0" d="M29.6 49c-3.4 0-6.2-2.8-6.2-6.2 0-3.4 2.8-6.2 6.2-6.2 3.4 0 6.2 2.8 6.2 6.2-.1 3.5-2.8 6.2-6.2 6.2zm0-10.3c-2.3 0-4.2 1.9-4.2 4.2 0 2.3 1.9 4.2 4.2 4.2 2.3 0 4.2-1.9 4.2-4.2-.1-2.3-1.9-4.2-4.2-4.2z"/></svg>