<svg id="Layer_1" xmlns="http://www.w3.org/2000/svg" viewBox="0 0 90.8 71.8"><style>.st0{fill:#26a65b}</style><path d="M63.3 71.8H37c-3.8 0-6.8-3.1-6.8-6.8V6.8C30.2 3.1 33.3 0 37 0h26.2C67 0 70 3.1 70 6.8V16c0 .6-.4 1-1 1s-1-.4-1-1V6.8C68 4.2 65.8 2 63.2 2H37c-2.6 0-4.8 2.2-4.8 4.8V65c0 2.6 2.2 4.8 4.8 4.8h26.2c2.6 0 4.8-2.2 4.8-4.8V52.7c0-.6.4-1 1-1s1 .4 1 1V65c.1 3.7-3 6.8-6.7 6.8z"/><path d="M69 8H31.2c-.6 0-1-.4-1-1s.4-1 1-1H69c.6 0 1 .4 1 1s-.4 1-1 1zM69.1 63.3H31.2c-.6 0-1-.4-1-1s.4-1 1-1h37.9c.6 0 1 .4 1 1s-.5 1-1 1z"/><path class="st0" d="M89.8 53.7H39.5c-.6 0-1-.4-1-1V16c0-.6.4-1 1-1h50.3c.6 0 1 .4 1 1v36.7c0 .5-.5 1-1 1zm-49.3-2h48.3V17H40.5v34.7z"/><path class="st0" d="M64.7 35.4c-.2 0-.4-.1-.6-.2L38.9 16.8c-.4-.3-.5-.7-.4-1.1.1-.4.5-.7 1-.7h50.3c.4 0 .8.3 1 .7.1.4 0 .9-.4 1.1L65.2 35.2c-.1.1-.3.2-.5.2zM42.6 17l22.1 16.1 22-16.1H42.6zM39.5 53.7c-.2 0-.5-.1-.7-.2-.4-.4-.5-1-.1-1.4L52 36.7c.4-.4 1-.5 1.4-.1.4.4.5 1 .1 1.4L40.3 53.3c-.2.3-.5.4-.8.4zM89.8 53.7c-.3 0-.6-.1-.8-.3L75.7 37.9c-.4-.4-.3-1 .1-1.4.4-.4 1-.3 1.4.1L90.5 52c.4.4.3 1-.1 1.4-.1.2-.4.3-.6.3zM25.9 29H15.1c-.6 0-1-.4-1-1s.4-1 1-1h10.8c.6 0 1 .4 1 1s-.4 1-1 1zM25.9 34.9H1c-.6 0-1-.4-1-1s.4-1 1-1h24.9c.6 0 1 .4 1 1s-.4 1-1 1zM25.9 40H15.1c-.6 0-1-.4-1-1s.4-1 1-1h10.8c.6 0 1 .4 1 1s-.4 1-1 1z"/></svg>