<svg id="Layer_1" xmlns="http://www.w3.org/2000/svg" viewBox="0 0 102.2 93.7"><style>.st0{fill:#26a65b}</style><path class="st0" d="M58 38.4H44.2c-5.7 0-10.3-4.6-10.3-10.3 0-5.4 4.2-9.9 9.5-10.3.6 0 1 .4 1.1.9 0 .5-.4 1-.9 1.1-4.3.3-7.7 4-7.7 8.3 0 4.6 3.7 8.3 8.3 8.3H58c4.6 0 8.3-3.7 8.3-8.3 0-4.3-3.2-7.8-7.5-8.2-.5-.1-1-.5-.9-1.1.1-.5.5-1 1.1-.9 5.3.5 9.3 4.9 9.3 10.2 0 5.6-4.6 10.3-10.3 10.3z"/><path class="st0" d="M51.2 23.1c-3.2 0-6.2-1.3-8.4-3.6-.4-.4-.4-1 0-1.4.4-.4 1-.4 1.4 0 1.8 1.9 4.3 3 7 3s5.2-1.1 7-3c.4-.4 1-.4 1.4 0 .4.4.4 1 0 1.4-2.2 2.3-5.2 3.6-8.4 3.6z"/><path class="st0" d="M43.5 19.8c-.3 0-.5-.1-.7-.3-2-2.2-3.1-5-3.1-7.9C39.6 5.2 44.8 0 51.2 0s11.6 5.2 11.6 11.6c0 2.9-1.1 5.7-3.1 7.9-.4.4-1 .4-1.4 0-.4-.4-.4-1 0-1.4 1.7-1.8 2.6-4.1 2.6-6.5 0-5.3-4.3-9.6-9.6-9.6s-9.6 4.3-9.6 9.6c0 2.4.9 4.8 2.6 6.6.4.4.4 1 0 1.4-.3.1-.6.2-.8.2z"/><path d="M24.1 93.7H10.3C4.6 93.7 0 89.1 0 83.4c0-5.4 4.2-9.9 9.5-10.3.6 0 1 .4 1.1.9s-.4 1-.9 1.1c-4.3.3-7.7 4-7.7 8.3 0 4.6 3.7 8.3 8.3 8.3h13.8c4.6 0 8.3-3.7 8.3-8.3 0-4.3-3.2-7.8-7.5-8.2-.5-.1-1-.5-.9-1.1.1-.5.5-1 1.1-.9 5.3.5 9.3 4.9 9.3 10.2 0 5.7-4.6 10.3-10.3 10.3z"/><path d="M17.3 78.5c-3.2 0-6.2-1.3-8.4-3.6-.4-.4-.4-1 0-1.4.4-.4 1-.4 1.4 0 1.8 1.9 4.3 3 7 3s5.2-1.1 7-3c.4-.4 1-.4 1.4 0 .4.4.4 1 0 1.4-2.2 2.3-5.2 3.6-8.4 3.6z"/><path d="M9.6 75.2c-.3 0-.5-.1-.7-.3-2-2.2-3.1-5-3.1-7.9 0-6.4 5.2-11.6 11.6-11.6C23.8 55.4 29 60.6 29 67c0 2.9-1.1 5.7-3.1 7.9-.4.4-1 .4-1.4 0-.4-.4-.4-1 0-1.4 1.7-1.8 2.6-4.1 2.6-6.5 0-5.3-4.3-9.6-9.6-9.6S7.9 61.7 7.9 67c0 2.4.9 4.8 2.6 6.6.4.4.4 1 0 1.4-.4.1-.7.2-.9.2zM91.9 93.3H78.1c-5.7 0-10.3-4.6-10.3-10.3 0-5.4 4.2-9.9 9.5-10.3.6 0 1 .4 1.1.9s-.4 1-.9 1.1c-4.3.3-7.7 4-7.7 8.3 0 4.6 3.7 8.3 8.3 8.3h13.8c4.6 0 8.3-3.7 8.3-8.3 0-4.3-3.2-7.8-7.5-8.2-.5-.1-1-.5-.9-1.1.1-.5.5-1 1.1-.9 5.3.5 9.3 4.9 9.3 10.2 0 5.7-4.6 10.3-10.3 10.3z"/><path d="M85.1 78.1c-3.2 0-6.2-1.3-8.4-3.6-.4-.4-.4-1 0-1.4.4-.4 1-.4 1.4 0 1.8 1.9 4.3 3 7 3s5.2-1.1 7-3c.4-.4 1-.4 1.4 0 .4.4.4 1 0 1.4-2.2 2.3-5.2 3.6-8.4 3.6z"/><path d="M77.4 74.8c-.3 0-.5-.1-.7-.3-2-2.2-3.1-5-3.1-7.9 0-6.4 5.2-11.6 11.6-11.6s11.6 5.2 11.6 11.6c0 2.9-1.1 5.7-3.1 7.9-.4.4-1 .4-1.4 0-.4-.4-.4-1 0-1.4 1.7-1.8 2.6-4.1 2.6-6.5 0-5.3-4.3-9.6-9.6-9.6s-9.6 4.3-9.6 9.6c0 2.4.9 4.8 2.6 6.6.4.4.4 1 0 1.4-.4.1-.7.2-.9.2z"/><path class="st0" d="M51.1 59.9c-.6 0-1-.4-1-1v-16c0-.6.4-1 1-1s1 .4 1 1v16c0 .5-.5 1-1 1z"/><path class="st0" d="M37.7 73.4c-.3 0-.5-.1-.7-.3-.4-.4-.4-1 0-1.4l13.5-13.5c.4-.4 1-.4 1.4 0s.4 1 0 1.4L38.4 73.1c-.2.2-.5.3-.7.3z"/><path class="st0" d="M64.6 73.4c-.3 0-.5-.1-.7-.3L50.4 59.6c-.4-.4-.4-1 0-1.4s1-.4 1.4 0l13.5 13.5c.4.4.4 1 0 1.4-.2.2-.5.3-.7.3z"/></svg>