<svg id="Layer_1" xmlns="http://www.w3.org/2000/svg" viewBox="0 0 84.9 81.7"><style>.st0{fill:#26a65b}</style><path d="M31.8 81.7c-.2 0-.3 0-.5-.1L.5 66c-.3-.2-.5-.5-.5-.9V32.4c0-.3.2-.7.5-.8.3-.2.7-.2 1-.1l30.8 15c.3.2.6.5.6.9v33.4c0 .3-.2.7-.5.9h-.6zM2 64.5l28.8 14.6V48L2 34v30.5z"/><path d="M31.8 81.7c-.2 0-.4 0-.5-.1-.3-.2-.5-.5-.5-.9V47.4c0-.4.2-.7.6-.9l30.8-15c.3-.2.7-.1 1 .1.3.2.5.5.5.8v32.8c0 .4-.2.7-.5.9l-31 15.5c-.1.1-.3.1-.4.1zm1-33.7v31.1l28.8-14.6V34L32.8 48z"/><path d="M31.8 48.4c-.2 0-.3 0-.4-.1L.6 33.3c-.4-.2-.6-.5-.6-.9s.2-.7.5-.9l30.8-16.9c.3-.2.7-.2 1 0L63 31.5c.3.2.5.5.5.9s-.2.7-.6.9l-30.8 15s-.2.1-.3.1zM3.2 32.3l28.6 13.9 28.6-13.9-28.6-15.7L3.2 32.3z"/><path class="st0" d="M20.8 49.7c-.2 0-.3 0-.5-.1L11.5 45c-.3-.2-.5-.5-.5-.9v-6.4c0-.3.2-.7.5-.8.3-.2.7-.2 1-.1l8.7 4.3c.3.2.6.5.6.9v6.7c0 .3-.2.7-.5.9-.2.1-.4.1-.5.1zM13 43.6l6.7 3.5v-4.5L13 39.3v4.3z"/><path class="st0" d="M20.8 43c-.1 0-.3 0-.4-.1l-8.7-4.3c-.3-.2-.5-.5-.6-.9 0-.4.2-.7.5-.9L41 20c.3-.2.7-.2 1 0l7.8 4.3c.3.2.5.5.5.9s-.2.7-.5.9L21.3 42.9c-.2.1-.4.1-.5.1zm-6.7-5.3l6.6 3.2 26.6-15.7-5.8-3.2-27.4 15.7zM39.2 70.7c-.4 0-.7-.2-.9-.6-.2-.5 0-1.1.4-1.3l16.1-8.1c.5-.2 1.1 0 1.3.4.2.5 0 1.1-.4 1.3l-16.1 8.1c-.1.1-.3.2-.4.2zM42.1 64.6c-.6 0-1-.4-1-1V49.7c0-.6.4-1 1-1s1 .4 1 1v13.8c0 .6-.4 1.1-1 1.1z"/><path class="st0" d="M38.7 56.5c-.2 0-.4 0-.5-.1-.5-.3-.6-.9-.3-1.4l3.4-5.8c.3-.5.9-.6 1.4-.3.5.3.6.9.3 1.4L39.5 56c-.1.3-.5.5-.8.5z"/><path class="st0" d="M46.1 53.6c-.2 0-.4-.1-.6-.2l-3.9-2.9c-.4-.3-.5-1-.2-1.4.3-.4 1-.5 1.4-.2l3.9 2.9c.4.3.5 1 .2 1.4-.2.3-.5.4-.8.4z"/><g><path class="st0" d="M51.9 59.1c-.6 0-1-.4-1-1V44.3c0-.6.4-1 1-1s1 .4 1 1v13.8c0 .5-.4 1-1 1z"/><path class="st0" d="M48.5 51c-.2 0-.4 0-.5-.1-.5-.3-.6-.9-.3-1.4l3.4-5.8c.3-.5.9-.6 1.4-.3.5.3.6.9.3 1.4l-3.4 5.8c-.2.3-.6.4-.9.4z"/><path class="st0" d="M55.9 48.2c-.2 0-.4-.1-.6-.2l-3.9-2.9c-.4-.3-.5-1-.2-1.4.3-.4 1-.5 1.4-.2l3.9 2.9c.4.3.5 1 .2 1.4-.2.2-.5.4-.8.4z"/></g><g><path class="st0" d="M70.5 44.8c-.4 0-.8-.2-.9-.6-.2-.5 0-1.1.5-1.3 7.8-3.4 12.8-11.1 12.8-19.6C82.9 11.6 73.3 2 61.5 2c-8 0-15.2 4.4-18.9 11.4-.3.5-.9.7-1.4.4s-.7-.9-.4-1.4C44.9 4.8 52.8 0 61.5 0c12.9 0 23.4 10.5 23.4 23.4 0 9.3-5.5 17.7-14 21.4h-.4z"/><path class="st0" d="M69.2 29.6H69c-.5-.1-.9-.6-.8-1.2C70 18.5 67.4 9 60.8 1.7c-.4-.4-.3-1 .1-1.4.4-.4 1-.3 1.4.1 7 7.8 9.8 18 7.9 28.5-.1.4-.5.7-1 .7z"/><path class="st0" d="M52.9 20.9c-.6 0-1-.5-1-1.1.6-7.2 3.5-14 8.4-19.5.4-.4 1-.4 1.4-.1.4.4.4 1 .1 1.4-4.6 5.2-7.4 11.5-7.9 18.3 0 .6-.5 1-1 1z"/><path class="st0" d="M60.2 13.9c-5.7 0-11.3-1.4-16.3-4.2-.5-.3-.6-.9-.4-1.4.3-.5.9-.7 1.4-.4 9.7 5.5 21.9 5.3 32.6-.6.5-.3 1.1-.1 1.4.4.3.5.1 1.1-.4 1.4-5.9 3.2-12.2 4.8-18.3 4.8zM78.3 37.5c-.2 0-.3 0-.5-.1-3-1.7-6.3-2.9-9.8-3.5-.5-.1-.9-.6-.8-1.2.1-.5.6-.9 1.2-.8 3.7.6 7.2 1.9 10.4 3.8.5.3.6.9.4 1.4-.2.3-.5.4-.9.4zM83.8 23.7H59.6c-.6 0-1-.4-1-1s.4-1 1-1h24.2c.6 0 1 .4 1 1s-.4 1-1 1z"/></g></svg>