<svg id="Layer_1" xmlns="http://www.w3.org/2000/svg" viewBox="0 0 310.6 23.8"><style>.st0{fill:#23a65a}.st1{fill:#6e6472}</style><path class="st0" d="M0 23.4V.5h4.7v14.9L15.8.5h4.1v22.9h-4.7v-15L4 23.4H0zM25.6 23.4V.5h4.7l6.6 9.5L43.5.5h4.6v22.9h-4.6V7.7L38.3 15h-2.6l-5.4-7.4v15.7h-4.7zM53.9 23.4V.5h19.2v22.9h-4.7V4.7h-9.8v18.7h-4.7zM81.4 3.5C83.6 1.1 86.5 0 89.9 0s6.2 1.1 8.5 3.5c2.3 2.3 3.4 5.1 3.4 8.4 0 3.3-1.1 6.1-3.4 8.4-2.3 2.3-5.1 3.5-8.5 3.5s-6.2-1.1-8.5-3.5-3.4-5.1-3.4-8.4c0-3.3 1.1-6.1 3.4-8.4zm8.5 15.9c2 0 3.7-.7 5-2.1s2-3.2 2-5.4-.7-4-2-5.4-3-2.1-5-2.1-3.7.7-5.1 2.1c-1.3 1.4-2 3.2-2 5.4s.7 4 2 5.4c1.4 1.4 3.1 2.1 5.1 2.1zM106.7 23.4V.5h10c2.5 0 4.4.7 5.8 1.9 1.4 1.3 2.2 2.9 2.2 5s-.7 3.7-2.2 5c-1.4 1.3-3.4 1.9-5.8 1.9h-5.3v9.1h-4.7zm4.7-13.1h5c2.3 0 3.6-1 3.6-2.8s-1.3-2.8-3.6-2.8h-5v5.6zM127.3.5h19.2v4.2h-7.3v18.7h-4.7V4.7h-7.2V.5z"/><path class="st1" d="M151.5 11.6v-1.3h16.7v1.3h-16.7zM178 20.4c-2.2-2.3-3.3-5.1-3.3-8.5s1.1-6.2 3.3-8.5c2.2-2.3 4.9-3.4 8.2-3.4 2.5 0 4.7.6 6.5 1.8v1.6c-2-1.3-4.2-2-6.5-2-2.8 0-5.2 1-7.1 3-1.9 2-2.9 4.4-2.9 7.4s.9 5.5 2.9 7.5c1.9 2 4.3 2.9 7.2 2.9 2.7 0 5-.8 7-2.4v1.7c-1.9 1.4-4.3 2.2-7.1 2.2-3.2.1-6-1.1-8.2-3.3zM199 23.4V.5h15.3v1.4h-13.8v8.5H212v1.4h-11.4V22h14.3v1.4H199zM220.5 23.4V.5h9.5c4.4 0 7.1 2.5 7.1 6.2s-2.6 6.2-7.1 6.2h-8v10.6h-1.5zm1.5-12h7.9c3.6 0 5.7-1.7 5.7-4.8 0-3-2.1-4.7-5.7-4.7H222v9.5zM242.9 23.4V.5h9.6c4 0 6.4 2.1 6.4 5.5 0 2.5-1 4.2-3.2 4.9 3.3.5 5.2 2.8 5.2 6.1 0 3.8-2.7 6.3-7.4 6.3h-10.6zm1.5-12.9h7.9c3.3 0 5.1-1.6 5.1-4.3s-1.9-4.3-5.1-4.3h-7.9v8.6zm0 11.5h9c3.8 0 6-1.8 6-5.1s-2.2-5.1-6-5.1h-9V22zM267.1 23.4V.5h1.5v20.3L284.1.5h1.4v22.9H284V2.9l-15.5 20.4h-1.4zM295.3 20.4c-2.2-2.3-3.3-5.1-3.3-8.5s1.1-6.2 3.3-8.5c2.2-2.3 4.9-3.4 8.2-3.4 2.5 0 4.7.6 6.5 1.8v1.6c-2-1.3-4.2-2-6.5-2-2.8 0-5.2 1-7.1 3-1.9 2-2.9 4.4-2.9 7.4s.9 5.5 2.9 7.5c1.9 2 4.3 2.9 7.2 2.9 2.7 0 5-.8 7-2.4v1.7c-1.9 1.4-4.3 2.2-7.1 2.2-3.2.1-6-1.1-8.2-3.3z"/></svg>