<svg xmlns="http://www.w3.org/2000/svg" width="100mm" height="65mm" viewBox="0 0 10000 6500" shape-rendering="geometricPrecision" text-rendering="geometricPrecision" image-rendering="optimizeQuality" fill-rule="evenodd" clip-rule="evenodd"><defs><style>.fil0{fill:#c62829}</style></defs><g id="Слой_x0020_1"><g id="_971639536"><path class="fil0" d="M9351 6089l224-1 1 389h202l-1-389 224-1v-129l-649 1v129zm-238 55l-227 1-1-183h-202l2 518h202l-1-206 227-1 1 206h202l-2-518h-202l1 183zm-958 176c-21-26-24-58-24-98 0-43 1-71 23-99 26-34 61-38 113-38 53 0 86 3 113 37 24 29 24 53 24 99 0 41 0 70-23 99-28 34-61 38-113 38-51 0-87-4-114-37zm387 112c68-53 70-144 70-212 0-70-3-160-71-212-67-51-179-53-274-53s-207 3-274 54c-68 52-70 142-70 212 0 68 3 159 71 211 66 51 181 53 274 53s207-3 273-54zm-689 49l-1-433c0-32-12-91-154-91-54 0-129 6-161 86l-100 252c-2 5-12 24-19 24s-17-18-19-24l-102-252c-32-80-108-86-160-85-32 0-154 0-154 91l1 433h203l-7-315c0-5-1-17 7-17 4 0 9 9 13 18l98 250c14 38 32 69 121 69 88 0 106-32 120-70l96-251c5-14 9-18 12-18 4 0 8 3 8 17l-6 315h204zm-1279-353c2-4 5-11 8-11s6 8 8 11l57 131h-129l56-131zm-104 250l225-1 50 106h213l-233-460c-30-58-83-63-143-63-96 0-123 25-143 63l-230 461h213l49-107zm-288 107l-1-433c0-32-12-91-154-91-54 0-129 6-161 86l-100 252c-2 5-12 24-19 24s-17-18-19-24l-102-252c-32-80-108-86-160-85-32 0-154 0-154 91l1 433h203l-7-315c0-5-1-17 7-17 4 0 9 9 13 18l97 250c14 38 32 69 121 69s106-32 120-70l96-251c5-14 9-18 13-18 3 0 8 3 8 17l-6 315h204zm-1645-400c118 0 124-31 156-70 3-3 78-111 78-111h-166s-26 38-34 49c-7 11-16 18-32 18h-206l1 399c0 63 16 124 140 124 87 0 118-28 135-53l177-252c12-17 18-25 23-25 9 0 9 10 9 19l-8 304h206l-1-396c0-42-6-128-149-128-37 0-96 3-135 61l-172 250c-8 12-12 18-18 18-12 0-11-13-11-26l5-183h2zm-780 273c-12 6-28 4-59 4h-105c-12 0-26 0-33-8-5-6-5-15-5-23v-54h147c24 0 39-1 52 3 22 7 24 23 24 36 0 25-11 37-20 41zm199 83c25-31 29-76 29-113s-4-73-25-109c-32-55-89-59-126-59l-281 1-1-187h-202l1 420c0 24 4 51 26 72 13 13 37 25 64 25l388-1c67 0 108-30 125-51zm287-468h-202l2 518h202l-2-518zm-1183 186l-227 1-1-183h-202l2 518h202l-1-206 227-1 1 206h202l-2-518h-202l1 183zm-817 167c-5-9-15-28-16-86 0-25 3-67 20-93 28-42 77-41 143-41h167v-129l-265 1c-71 0-162 7-219 68-45 47-54 112-54 198 0 99 20 150 58 189 51 52 116 63 214 63l277-1v-129h-174c-67 0-125 0-152-40zm-653-54l56-131c2-4 5-11 8-11s6 8 8 11l57 131h-129zm63-299c-97 0-123 25-143 63l-230 461h213l49-107 225-1 50 106h213l-233-460c-30-58-83-63-143-63zm-530 234c-17 15-42 14-67 14H911v-81c0-11 3-30 35-30h112c23 0 46 0 64 12 16 11 18 28 18 41 0 22-6 36-16 45zm218-49c0-75-17-116-47-141-35-31-82-36-132-36l-346 1c-43 0-70 14-83 27-21 20-25 50-25 71l1 420h202l-1-149 264-1c34 0 81-8 110-29 52-38 56-126 56-163zm-926 77c0-5 3-15 26-38l217-214-240 1-168 196c-13 16-29 38-28 58 0 22 22 48 37 64l190 200 243-1-244-218c-14-12-33-29-33-47zM1 6502h202l-2-518H-1l2 518zM6904 4264l-3 1h3v-1zm170 1578c540-623 866-1435 864-2323C7933 1573 6350-6 4411 0 2471 5 898 1593 903 3539c1 274 34 539 94 795l-34 52 468-1-345-90c-55-243-86-497-87-756C994 1646 2524 102 4411 96c1886-5 3426 1530 3431 3423 2 889-334 1701-887 2313l-347-91-1712 5c40-28 78-64 114-106l1198-3-397-104-722 2c22-34 42-69 61-106l260-1-230-60c86-185 137-391 136-545 53-119 136-265 193-529 28 3 64 5 111 4 414-1 935-352 933-973-1-534-346-780-645-779-236 1-370 180-370 315 0 61 68 101 67-7 0-115 161-176 265-177 104 0 451 49 453 570 1 520-395 714-685 715-32 0-59-2-82-6 9-104 14-220 13-352-2-811-386-955-508-1009-108-30-256-30-374-16-10-34-24-80-37-111 256 23 465 80 610 204-10-54 10-78 23-112s1-69-41-94c-175-108-469-198-671-221 7-3 0-10 0-10 22-2 66 1 121 8 123 17 304 55 448 108-34-34-40-138-4-203 124-223-50-288-92-300-553-161-794 26-945 154-27 23-52 38-81 24-137-67-296-47-448-10-588 143-1339 972-1617 1460-106 185-118 386-119 454-3 189 5 379 22 565l-33-9-937 3-69 105 1048-3c4 35 8 71 12 106l-1129 3-68 105 1211-3c5 35 10 71 16 106l-1296 4-69 105 1381-4c6 36 12 71 18 106l-1469 4-69 105 1557-4c7 36 14 71 22 106l-1648 5-68 105 1740-5c8 36 17 71 25 106l-1834 5-69 105 1929-5c9 36 19 72 28 106l-2026 6-69 105 7074-23zm-3472-92c3-32 9-62 22-103 107 6 188 12 289 25 8 24 25 51 45 77l-356 1zm839-2c-4-33-7-69-10-106h44c12 40 33 76 60 106h-94zm291-212c-9 33-35 88-88 88-25 0-68-7-68-88 0-20 3-38 8-49 13-34-7-54-50-54-42 0-72 62-74 103h-34c-1-34-1-69-1-106l327-1c-4 42-11 73-21 106zm26-211l-330 1c1-35 3-70 5-106l184-1-181-47c21-301 69-606 125-766 152 206 197 675 198 885v34zm-667-1746c4 156-22 283 59 360-26-3-45-13-64-43-6-10-19-13-29-7s-13 19-7 29c35 56 78 64 119 64 92 0 354-151 352-819-1-471-169-484-187-484-12 0-21 9-21 21s10 21 21 21c7 0 15 2 23 6-41 39-13 135-39 135-34 0-61-78-61-162 0-85 73-190 154-190 224-1 354 358 356 808 1 436-162 1087-603 1088s-413-688-376-830c60-233 300-137 303 3zm-653-1097c70-91 269-227 430-295-182 126-252 220-339 336 7 7 7 7 10 13 171-112 239-116 299-133-3 227 45 436 146 645-205-54-445-273-557-468-15-27-13-68 10-98zm-391 3163c11 35 24 70 39 106l-533 1c-11-35-19-71-25-106l519-1z"/></g></g></svg>