<svg id="Слой_1" xmlns="http://www.w3.org/2000/svg" viewBox="0 0 583.4 357.5"><style>.st0{fill:none}.st1{fill:#6ec3ec}.st2{fill:#6cc4eb}.st3{fill:#e42320}.st4{fill:#fff}.st5{fill:#2e7abe}</style><path class="st0" d="M229.6 99.6c1.1-1.1 5.1-2.2 1.7-4.5-3.4-2.2-10.1 0-12.4-1.1-2.2-1.1-5.1-11.8 0-12.4 5.1-.6 16.3 5.1 18 3.4s2.2-1.1 2.8-4.5.6-5.6-3.4-5.6c-3.9 0-6.7-.6-6.7-.6s0-5.2.9-10.6c-13.5 4.4-25 7.5-35 9.8-5.7 16.9-7.6 34.9-7.2 52.9 12.9-3.6 27.2-7.8 42.9-12.9-.5-1.5.2-4.7-1.6-6.5-2.3-2.3-1.1-6.3 0-7.4z"/><path class="st0" d="M184.1 87.3c-4-1.3-6.8-5.8-8.7-10.1-6 .8-11.1 1.1-15.4 1.1-.6.6-1.2 1.3-1.8 1.9-13.7 15.2-27.5 35.4-35.3 60.4 16.2-2.3 37-6.6 63.6-13.9-.5-17.9 1.4-36 7-52.9-.8.2-1.6.3-2.4.5-1.1 4.5-.2 15.2-7 13zM261.8 52.6l-.9.3.9-.3zM235.2 122.7c0-2.4-1.2-6.4-2.6-7.9-16.3 5.3-31 9.7-44.3 13.3.5 15.6 2.8 31.1 5.9 45.7 14.6-4 30.4-8.6 47.6-14.1-.7-.3-1-.5-1-.5s-5.6-33.7-5.6-36.5zM194.6 175.5c1.3 5.7 2.7 11.3 4.2 16.7l8.4 1.2H220l9 3.4s.1 5.5.2 12.6c16.5-5 34.3-10.8 53.4-17.2-1.5-4.4-3-9-4.5-13.6C263.8 171 250 164 244 160.9c-17.9 5.6-34.3 10.5-49.4 14.6zM322.3 204.7c.2-1.5-10.9-8.1-24.9-15.8-3.7 1.3-7.4 2.5-11.2 3.8-.5.2-1 .3-1.5.5 4.7 14.3 9.1 27.2 13.1 38.8 14-4.8 27.2-9.4 39.7-14-.2-.2-.4-.3-.6-.4-4-1.7-15.2-9-14.6-12.9zM240.3 264.2l3.1 11.2v7.9s-.2.8-.3 1.8l2.7 3.3c19-5.5 40-12.1 63.1-20-3.6-9.9-7.6-21.3-12.1-34.3-23.8 8.1-45.5 14.9-65.2 20.7l.3.9 8.4 8.5zM243.4 289c.2-.1.4-.1.6-.2-.3-.4-.6-.7-.9-1.1.1.4.1.8.3 1.1v.2zM229 240.1c-.4 3.8 1.1 9.8 2 13.2 19.7-5.8 41.3-12.6 65.2-20.7-4-11.6-8.4-24.5-13.1-38.8-19.3 6.5-37.3 12.3-53.9 17.4.1 11.2.2 25.6-.2 28.9zM343.6 232.2l-3.4 7.9s-2.2-1.7-2.2-4.5c0-2.3 1.9-11.8.4-16.1-12.6 4.6-25.9 9.3-40 14.1 4.5 13 8.5 24.3 12.1 34.2 22.4-7.6 42.7-15 60.9-22 0-11.1-.9-23.6-3.2-37.6-7 2.7-14.2 5.5-21.7 8.2 0 .2-.1.4-.1.5-1.7 5.7-2.8 15.3-2.8 15.3zM416.1 60.9c-1.7 2.8-11.8-2.2-12.9-.6-1.1 1.7 21.9 11.8 20.8 14-.8 1.6-17.8-.2-30.2-.6 5.4 6 10.4 12.8 15.1 20.3 21.3-10.6 37.1-19.8 48.6-27.4 4.2-2.7 8-5.3 11.4-7.8-8.8-8.2-19.1-15.3-30.9-21.1-4.8-2.4-9.9-4.6-15.3-6.6-3.9 2.7-8.5 5.8-13.8 9-1.2.7-2.5 1.5-3.8 2.3 1.4 4.6 2.6 10.5 2.6 10.5s10.1 5.2 8.4 8zM381.8 74.3c-6.7 2.2-14.6 30.3-14 34.3.6 3.9-3.9 0-3.9 0s-11.8-3.4-14.6-.6c-2.8 2.8-1.7 10.7-1.1 12.9v.3c23.2-9.5 42.8-18.4 59.1-26.5-4.9-7.9-10.2-14.9-15.9-21.1-4.3 0-7.9.2-9.6.7zM249 294.7c-1.3-1.4-2.6-2.9-3.8-4.3l-.9.3c1 1.2 2.5 2.4 4.7 4zM390.2 16.5c2.3 2.6 8.6 5 13.6 7.1 6.5 1.7 12.6 3.6 18.5 5.7 16.1-11.6 20.1-18.1 20.1-18.2 0 .1 0 .5.3.7.3.2.7.1.8.1l-.8-1.2c-3.4-.9-6.8-1.7-10.3-2.5-20.2-4.4-41.7-6.6-64.1-6.6-7.4 0-15 .3-22.5.7-1.2 1.4-4.8 6.1-13.4 12.9 2.9 0 5.7.1 8.6.1 1.3-.7 2.4-1.2 3.1-1.2 2.9.1 42.2-2.1 46.1 2.4z"/><path class="st0" d="M382.4 26.6c-2.8 2.2-3.9 5.1-1.1 5.6 2.8.6 19.7 2.2 21.9 5.6.5.7.9 1.8 1.4 3.1 6.3-3.8 11.7-7.3 16.1-10.4-3.4-1.2-6.9-2.4-10.5-3.4.2.2.3.4.3.6 0 2.8-25.3-3.3-28.1-1.1zM349.2 185s-.9 21-2.3 29.5c7.3-2.7 14.3-5.4 21-8-2.1-12.2-5.2-25.4-9.5-39.9-3.6 1.4-7.3 2.8-11.1 4.2.1 1.7.1 3.3.1 4 .2 2.3 1.8 10.2 1.8 10.2zM347 163.1s.2 3 .3 6c3.6-1.4 7.2-2.7 10.7-4.1-.8-2.5-1.6-5-2.4-7.6-1.4-4.2-2.9-8.6-4.6-13.1-.3 4.4-.6 8.6-.6 8.6l-3.4 10.2zM345.3 135.6c.5.2 1.3-.1 2.1-.4-.6-1.5-1.2-3-1.9-4.4-.7 2-1.3 4.4-.2 4.8zM346.4 128.4c.9 2 1.8 4.1 2.6 6.1 1.4-.5 2.5-.7 2.5 1 0 .9-.1 2.7-.2 4.8 2.2 5.7 4.2 11.3 5.9 16.6.8 2.4 1.6 4.9 2.4 7.5 25.5-9.8 47.5-19 66.3-27.5-.6-1.9-1.1-3.8-1.8-5.7-4.3-13.2-9.7-24.8-15.8-34.9-16.8 8.3-36.7 17.3-60.2 26.9-.3 1.9-1.3 3.9-1.7 5.1v.1zM408 268.8c8.2-12.5 15.5-27.3 20.2-44.5-16 7.1-34.2 14.7-55 22.7-.1 12.8-1.5 25.4-4.6 37.5 14.4-5.4 27.5-10.7 39.4-15.7z"/><path class="st0" d="M470.2 60.2c-13.3 9.6-32.6 21.6-60.4 35.4 6.2 10.2 11.6 21.8 15.9 35.1.6 1.9 1.2 3.7 1.7 5.6 31.1-14 53.5-26 69.6-35.8-6.1-15.5-15.1-29-26.8-40.3zM434.8 180.2c.5 14.9-1.1 28.6-4.1 41.2 30.7-13.7 52.7-25.5 68.1-34.8 5.1-14.5 7.5-29.2 7.1-44-1.1.7-2.1 1.3-3.3 2-15.3 9.5-37.2 21.5-67.8 35.6z"/><path class="st0" d="M373.1 245.2c21.1-8.1 39.5-15.8 55.6-23 3.2-12.6 4.9-26.3 4.4-41.3-18 8.3-39 17.2-63.3 26.7 2.1 12.3 3.3 25 3.3 37.6zM369.6 205.9c24.5-9.5 45.5-18.5 63.5-26.8-.5-12.7-2.7-26.2-6.8-40.5-18.8 8.5-40.8 17.6-66.3 27.5 3.7 12.2 7.1 25.7 9.6 39.8zM501.7 143.2c1.4-.9 2.7-1.7 4-2.5-.5-11-2.5-22.1-6.1-33.1-.6-1.9-1.3-3.7-1.9-5.5-16.2 9.8-38.7 21.8-69.7 35.8 4.1 14.3 6.3 27.8 6.9 40.5 30-13.9 51.6-25.9 66.8-35.2z"/><path class="st0" d="M499.1 101.2c.7 1.9 1.4 3.9 2.1 5.9 3.6 10.9 5.6 21.7 6.2 32.6 30.1-19.3 38-30.6 38-30.7l1.4.9c-.3.5-8.3 11.9-39.3 31.7.6 14.6-1.6 29.2-6.4 43.6.2-.1.4-.2.6-.4 32.5-19.9 40.5-31.6 40.6-31.7l1.4.9c-.3.5-8.3 12.1-41.1 32.2-.8.5-1.6.9-2.4 1.4-1.6 4.5-3.4 9-5.6 13.4-6.3 13.1-14.8 26.2-25.5 38.9 7.4-4 13.8-7.6 19.1-10.9 28.4-17.4 35.7-27.6 35.8-27.7l.1.1c23.6-36.7 32-75.3 20.2-110l.8-.4-.8.3c-2.1-6.3-4.9-12.3-8.2-18-.5.6-8.5 10.5-37 27.9zM264.1 306.9c3.8 3.2 7.9 6.2 12.1 9 13.9-4.2 28.9-9 45.1-14.5-3.3-8.3-7.2-18.6-11.9-31.4-22.8 7.7-43.6 14.3-62.5 19.8 2.8 3.2 5.7 6.3 8.7 9.3 1.5 1 2.6 1.6 2.6 1.6s6.9 3.7 5.9 6.2z"/><path class="st0" d="M493.1 200.4c1.8-3.8 3.4-7.5 4.8-11.3-15.5 9.3-37.4 20.9-67.7 34.4-4.4 17-11.5 31.7-19.4 44.2 22.3-9.5 40.1-18 54.2-25.4 11.9-13.8 21.3-27.8 28.1-41.9zM184.2 190.1L197 192c-1.4-5.2-2.8-10.5-4-16-30.8 8.4-55.8 13.5-76 16.5.9 12.9 3.4 26.6 8.2 41 .3.9.6 1.8 1 2.7 9.8-2 20.6-4.4 32.3-7.3l2.9-32.2c11.5-2.7 22.8-6.6 22.8-6.6zM220.6 286.1c-1.7-1.7-7.9-6.7-7.9-9 0-2.2 3.9-2.8 0-4.5-3.9-1.7-11.2-5.6-11.2-5.6l-5.4-2.3c-18.5 4.8-34.9 8.6-49.5 11.5 8.8 12.2 19 22 29.8 29.8 15.9-3.4 34.1-7.8 55-13.6l-1.8-1.3c0 .1-7.3-3.3-9-5zM248.7 308c-1.7-1.1-8.4-9-8.4-9l-7.1-5.3c-20.6 5.8-38.8 10.3-54.8 13.7 15.1 10.7 31.5 17.6 47.1 22.2 14.3-3.4 30.4-7.8 48.6-13.2-3.9-2.6-7.7-5.5-11.3-8.5h-.1c-5 2.4-12.3 1.2-14 .1zM166.7 249.7l-9-13 .5-5.8c-11.4 2.8-21.9 5.2-31.5 7.1 5 14.1 11.4 26.2 18.8 36.6 14-2.8 29.9-6.4 48-11l-9.2-3.9-17.6-10zM284.2 191.6c.5-.2 1-.3 1.5-.5 3.3-1.1 6.5-2.2 9.7-3.3-4.9-2.7-10-5.4-15.1-8.1 1.3 4 2.6 8 3.9 11.9zM471.6 59.2c11.7 11.4 20.7 24.9 26.9 40.4 28.4-17.3 36.1-27 36.2-27.2l1.3 1c-8.8-15.1-21.6-28.3-38-39-.5.8-6 9.8-26.4 24.8zM497.9 34.3C482.8 24.4 464.7 16.6 444 11l.1.3c-.1 1-4.2 7.5-19.8 18.7 5 1.9 9.8 4 14.3 6.2 12 6 22.6 13.2 31.5 21.6 20.9-15.3 26.2-24.3 26.3-24.4l1.5.9zM366 287.3c-2.2.8-4.4 1.6-6.6 2.5 1.8.1 3.9.2 5.8.4.2-1 .5-1.9.8-2.9zM237 354c3.9-.3 7.9-.7 11.9-1.1-.6-.2-1.3-.4-1.9-.7-3.5.6-6.8 1.2-10 1.8zM85.3 142.6c8.1.7 19.6.5 35.8-1.6 7.8-25.6 21.9-46.3 35.9-61.9.2-.3.5-.5.7-.8-4.9-.1-8.7-.6-11.6-1.3-4.9 3.8-9.8 7.8-14.7 12-19.6 17.2-35.1 35.2-46.1 53.6zM27.6 242.8c.2.1 9.9 4.3 40.6 2-4.5-16.4-5.7-32.8-3.7-49-18.3-1.1-26.4-5.1-29.2-7-6.9 18.4-9.8 36.8-8 54.5l.3-.5z"/><path class="st0" d="M113.3 339.1c.1.1 9.3 5.2 39.6 3.1 6.7-.5 14.9-1.3 24.6-2.8-17.3-3.8-32.8-9.3-46.3-16.4-3.6-1.9-7-3.9-10.3-6-9.3.9-17.2 1.3-23.8 1.3-21.9 0-29.4-3.9-30.1-4.3l.8-1.5c.1.1 11 5.9 46.1 3.3 1.4-.1 2.9-.2 4.4-.4-12.7-8.5-23.3-18.7-31.7-30.7-5.5.3-10.4.5-14.8.5-24.1 0-32.2-4.4-32.9-4.9l.9-1.4c.1.1 10.8 6.1 45.6 4.1-6.4-9.5-11.5-19.9-15.3-31.4-.5-1.6-1-3.2-1.4-4.8-6.6.5-12.2.7-17 .7-15.5 0-22.3-2.1-24.3-2.9.8 7 2.3 14 4.6 20.7 11.3 33.3 39.6 59.1 80.9 74.4l.4-.6z"/><path class="st0" d="M121 315.1c13.5-1.3 30.9-3.9 53.1-8.5-10.7-8-20.6-17.8-29.4-30-23.2 4.6-41.6 6.9-56.1 7.9 8.7 12 19.5 22.2 32.4 30.6zM87.4 282.8c.4 0 .8 0 1.2-.1 13.5-.9 31.5-3.1 55-7.7-7.3-10.5-13.6-22.6-18.6-36.6-22.9 4.6-40.7 7.1-54.6 8.2.4 1.5.9 2.9 1.3 4.4 3.9 11.6 9.1 22.2 15.7 31.8zM66.2 136.2c.1.1 2.9 4.6 17.2 6.2 11.1-18.8 26.9-37.1 47-54.7 4.5-4 9.1-7.7 13.7-11.3-4.4-1.3-6.3-3-7-3.7-28.6 19.1-52.7 40.7-70.9 63.5zM182.2 338.6c11.3-1.8 24.5-4.4 40-8.1-15.4-4.7-31.3-11.9-46.1-22.5-21.2 4.5-38.5 7.2-52.5 8.7 2.7 1.7 5.4 3.3 8.3 4.8 14.5 7.6 31.4 13.3 50.3 17.1zM366.5 285.3c2.7-10.1 4.7-22.6 4.9-37.6-18.1 7-38.2 14.2-60.3 21.8 4.7 12.8 8.6 23.1 11.9 31.4 10.7-3.6 20.7-7.2 30.3-10.7.1 0 .2-.1.3-.1 4.4-1.6 8.7-3.2 12.9-4.8zM254.9 341.2s7.6-1.2 9.1-2.7c-5.4-.5-11-1.2-16.6-2.1-7-1.2-14.3-2.8-21.8-4.9-14.4 3.5-27.1 6.1-38.3 8.1 10.6 1.9 21.8 3.2 33.5 3.9 9.5.6 18.9.7 28 .5.3-.3.4-.5.4-.5l5.7-2.3z"/><path class="st0" d="M247.6 345.6c-2 0-4.1.1-6.2.1-6.8 0-13.7-.2-20.6-.6-13.6-.8-26.4-2.4-38.3-4.7-18.9 3.1-33 4.1-43.4 4.1-5.8 0-10.4-.3-14-.8 6 1.8 12.3 3.5 18.8 4.9 8.6 1.9 17.4 3.3 26.4 4.4-.5-.2-.8-.4-.9-.5l.9-1.4c.1.1 2.5 1.5 8.4 2.8 10.9 1 22.2 1.4 33.6 1.3 9.2-.7 20.1-2 33.1-4.5-.1-1.4 1.1-3.5 2.2-5.1zM270 333.9s3.4 2.2 4.5 0 0-5.6 0-5.6l2.8-6.2h5.9c-2.5-1.4-4.9-2.8-7.3-4.4-17.4 5.2-33 9.5-47 13 6.4 1.7 12.7 3 18.7 4 5.7.9 11.3 1.6 16.7 2.1 1.2-1.4 5.7-2.9 5.7-2.9zM465.8 243.8c-7 8-14.9 16-23.7 23.8.9-.7 1.4-1.2 1.4-1.2l4.5-2.2s3.4 1.1 6.2 0c2.8-1.1 7.3 0 7.3 0l5.1-.8s-.9.9-2.7 2.6c6.6-5.3 12.9-10.7 18.9-16.2 2.3-2.6 3.1-4.1 3.1-4.1l.8.4c12.3-11.8 23-24.2 31.9-36.8-7.6 7-23 18.9-52.8 34.5zM389.1 289.7c1.1-1.3 5.4-4.3 8-6.1v-.1c3.1-3.7 6.1-7.8 9.1-12.1-11.6 4.8-24.4 9.9-38.3 15.1-.3 1.2-.7 2.5-1.1 3.7 1.2.1 2.2.2 3.2.3 5.6.7 17.4 1.1 19.1-.8zM406 282.2h5.1l7.9-3.9s3.4-2.2 9-3.4c1.9-.4 3.3-.7 4.5-1 .9-.7 1.8-1.5 2.7-2.2 9.9-8.4 18.8-17 26.7-25.7-14.3 7.3-31.6 15.5-52.6 24.3-2.8 4.2-5.7 8.2-8.6 11.9H406zM291.4 316.4c3.9 1.7 11.8 2.8 11.8 2.8h10.1l4.5-.6c4.8-6.4 6.6-9.1 6.7-9.4-.8-2-1.7-4.1-2.6-6.4-15.7 5.3-30.3 10-43.9 14.1 2.4 1.5 4.9 2.9 7.4 4.3.8-1.7 2.8-6.1 6-4.8zM339.1 301.8c2.8-.6 7.3-2.2 9-3.4 1.2-.8 2.5-3.7 3.5-5.9-8.9 3.2-18.2 6.5-28 9.8.9 2.2 1.7 4.3 2.5 6.2 1.8-.8 4.6-2.1 5.7-2.9 1.7-1 4.5-3.2 7.3-3.8zM186.7 128.6c-26.9 7.4-47.9 11.7-64.3 14-4.3 14.5-6.5 30.5-5.6 48 20.2-2.9 45.1-8.1 75.8-16.3-3.1-14.6-5.4-30.1-5.9-45.7zM263.3 102.7c-.8-.3-1.6-.8-2.1-1.2-.9-.9-4.7-1.6-7.6-1.1l1.8 5.1c2.6-1 5.3-1.9 7.9-2.8zM253.7 106c-.6-1.8-1.2-3.5-1.8-5.2-.5.2-.9.4-1.3.7-1.1.9-2 3.7-2.7 6.5l3.6-1.2c.7-.3 1.5-.6 2.2-.8zM246.4 118.3c1.2.4 4.3-1.7 6-2.5 1.7-.8.8-5.1.8-5.1s.8-.6 1.7-1.3l-.6-1.8c-.8.3-1.5.5-2.3.8-1.5.5-3 1-4.6 1.5-.7 3.1-1.1 5.9-1.1 5.9s-1.1 2.1.1 2.5zM320 123.4s-2 5.5 0 6.7c.8.5 1.5 1 2.3 1.4 2.5-1 5.1-1.9 7.5-2.9-.1-.5-.2-1.1-.4-1.7-1.2-3.7-7.1-2.7-9.4-3.5zM174.7 75.5c-1.7-4.2-2.4-7.9-2.4-7.9s-7.3-.6-10.1.3c-2.8.9 1.7-8.2 3.4-11 1.7-2.8 15.7.6 20.2-3.4s22.5-9.5 21.3 0c-1 8.4-8.9 16.4-13.1 18.5 10.3-2.3 22.5-5.6 36.8-10.3.9-4.6 2.6-9 5.5-10 6.7-2.2 12.9.6 17.4 0 1.5-.2 2.8.1 3.9.5 2.2-.8 4.3-1.7 6.4-2.5 2.8-4.3 6.9-10.9 10.5-11.4 3.9-.6 2.2-9 8.4-11.8 4.2-1.9 22.7-2.8 35.2-3.5 15.8-10 22.8-17.5 25.3-20.5-35 2.4-71.4 9.8-107.5 22.1-36.1 12.3-69 28.5-97.4 47.2 1.8 1.5 10 7 36.2 3.7zM326.5 132.2c2.9-.4 2.9 0 2.9 0s.4-.6.5-1.8c-1.6.6-3.2 1.2-4.8 1.9.5 0 .9 0 1.4-.1zM256.4 108.4c.2-.1.4-.3.6-.4 1.7-1.1 4.2 0 4.2 0h3.8s2.1 2.3 3.2 3.2c1.1.8 5.2 1.7 5.2 1.7s2.5-.4 5.9-2.9c3.4-2.5 0 0 3.8 0s4.2-.8 6.3-1.9c2.1-1.1-2.1-3.2-5.1-6.1s-3.8.4-9.3 1.7c-5.3 1.2-9 .1-9.2 0-3.3 1.1-6.6 2.3-10 3.5.2.3.4.7.6 1.2zM64.8 193.8c1.7-12 5.2-23.9 10.5-35.7 2.1-4.7 4.5-9.3 7.2-14-12.2-1.5-16.2-5.2-17.3-6.6-12.8 16.2-22.7 32.9-29.2 49.6 2.1 1.5 9.9 5.6 28.8 6.7z"/><path class="st0" d="M115.2 190.8c-1-17.5 1.2-33.5 5.4-48-10.6 1.4-19.2 2-26.2 2-3.9 0-7.2-.2-10.1-.5-2.8 4.8-5.3 9.6-7.5 14.5-5.2 11.6-8.6 23.3-10.3 35.1 11.7.6 27.5-.1 48.7-3.1zM338.4 17c-2.7-.1-5.5-.1-8.2-.1-2.4 1.8-5.2 3.8-8.4 5.9 3.9-.2 6.8-.5 7.7-.8 2.3-.5 5.8-3 8.9-5zM124.4 236.6c-.3-.8-.6-1.7-.9-2.5-4.8-14.6-7.3-28.3-8.2-41.3-16.8 2.4-30.3 3.3-41 3.3-2.9 0-5.6-.1-8.1-.2-2 16.1-.8 32.4 3.7 48.8 13.8-1.1 31.6-3.5 54.5-8.1z"/><path class="st1" d="M545.8 90.9c-14.1-41.6-54.2-71.6-112.9-84.3C374.3-6.1 304.2-.3 235.5 23 93.4 71.3 1.4 180.2 30.5 265.9c14.1 41.6 54.2 71.5 112.9 84.3 10.9 2.4 22.2 4.1 33.9 5.2 4.6 1.1 11.6 2.1 21.6 2.1 4.7 0 10.2-.2 16.4-.8 40.4-.8 83.2-8.6 125.6-22.9 45.5-15.4 85.8-37.1 118.7-62.2 14.7-9.8 21.9-17.2 25.3-21.4 52.9-49.6 78.1-108.5 60.9-159.3zm-.8.3l-.8.4c11.8 34.7 3.4 73.2-20.2 110l-.1-.1c-.1.1-7.4 10.4-35.8 27.7-5.3 3.3-11.7 6.9-19.1 10.9 10.7-12.8 19.3-25.8 25.5-38.9 2.1-4.5 4-8.9 5.6-13.4.8-.5 1.6-1 2.4-1.4 32.8-20.1 40.8-31.8 41.1-32.2l-1.4-.9c-.1.1-8.1 11.8-40.6 31.7-.2.1-.4.2-.6.4 4.8-14.4 7-29 6.4-43.6 31-19.8 39-31.2 39.3-31.7l-1.4-.9c-.1.1-7.9 11.4-38 30.7-.6-10.9-2.6-21.7-6.2-32.6-.7-2-1.3-3.9-2.1-5.9 28.5-17.4 36.5-27.3 36.9-27.7 3.3 5.7 6.1 11.7 8.2 18l.9-.5zm-47.4 10.9c.7 1.8 1.3 3.6 1.9 5.5 3.6 11 5.6 22.1 6.1 33.1-1.3.8-2.6 1.7-4 2.5-15.1 9.3-36.8 21.3-66.9 35.2-.6-12.7-2.7-26.2-6.9-40.5 31.1-14 53.6-26.1 69.8-35.8zm-70.2 34.2c-.5-1.8-1.1-3.7-1.7-5.6-4.3-13.3-9.7-24.9-15.9-35.1 27.8-13.8 47.1-25.8 60.4-35.4 11.7 11.3 20.7 24.8 26.8 40.3-16.1 9.7-38.5 21.8-69.6 35.8zm71.3 50.3c-15.4 9.3-37.4 21.1-68.1 34.8 3.1-12.6 4.7-26.3 4.1-41.2 30.5-14.1 52.4-26.1 67.7-35.5 1.1-.7 2.2-1.4 3.3-2 .6 14.6-1.8 29.3-7 43.9zm-65.6-7.5c-18 8.3-39.1 17.3-63.5 26.8-2.4-14.1-5.8-27.6-9.5-39.9 25.5-9.8 47.4-19 66.3-27.5 4 14.4 6.1 28 6.7 40.6zm.1 1.8c.5 15-1.2 28.8-4.4 41.3-16.1 7.2-34.5 14.8-55.6 23 0-12.6-1.3-25.3-3.3-37.6 24.3-9.5 45.3-18.4 63.3-26.7zm-5 43.4c-4.6 17.2-12 32-20.2 44.5-11.9 5-25 10.3-39.5 15.7 3.1-12.1 4.5-24.7 4.6-37.5 20.8-8 39.1-15.6 55.1-22.7zm2-.8c30.2-13.5 52.2-25.1 67.7-34.4-1.4 3.8-3 7.5-4.8 11.3-6.7 14.1-16.1 28.1-28.1 41.8-14.1 7.4-31.9 16-54.2 25.4 7.9-12.4 15-27.2 19.4-44.1zM536 73.4l-1.3-1c-.2.2-7.8 9.9-36.2 27.2-6.2-15.6-15.2-29.1-26.9-40.4 20.4-15 25.9-23.9 26.4-24.8 16.4 10.7 29.2 23.8 38 39zm-65.8-15.5c-9-8.4-19.5-15.7-31.5-21.6-4.6-2.3-9.3-4.3-14.3-6.2 15.6-11.2 19.7-17.7 19.8-18.7l-.2-.4c20.7 5.6 38.8 13.4 53.9 23.3l-1.4-.8c0 .1-5.3 9.1-26.3 24.4zM236 24.6c36.1-12.2 72.6-19.6 107.5-22-2.6 3-9.6 10.5-25.3 20.5 1.3-.1 2.5-.1 3.7-.2 3.2-2.1 5.9-4.1 8.4-5.9 2.7 0 5.4 0 8.2.1.9-.6 1.8-1.2 2.7-1.6-2.9-.1-5.8-.1-8.6-.1 8.7-6.8 12.3-11.5 13.4-12.9 7.6-.5 15.1-.7 22.5-.7 22.4 0 44 2.2 64.1 6.6 3.5.8 6.9 1.6 10.3 2.5l.8 1.2c-.1.1-.5.2-.8-.1-.3-.2-.4-.6-.3-.7 0 .1-4 6.7-20.1 18.2-5.9-2.2-12.1-4.1-18.5-5.7 3 1.3 5.6 2.5 6.4 3.5 3.6 1.1 7.1 2.2 10.5 3.4-4.5 3.1-9.8 6.6-16.1 10.4.2.5.4 1.1.5 1.6 1.3-.8 2.6-1.6 3.8-2.3 5.3-3.3 9.9-6.3 13.8-9 5.3 2 10.4 4.2 15.3 6.6 11.8 5.8 22.1 12.9 30.9 21.1-3.4 2.4-7.2 5-11.4 7.8-11.6 7.5-27.4 16.8-48.6 27.4-4.7-7.5-9.7-14.3-15.1-20.3-.8 0-1.6 0-2.4-.1 5.7 6.2 11 13.2 15.9 21.1-16.4 8.1-35.9 17-59.1 26.5.1.6.1 1.2-.1 1.9 23.5-9.5 43.4-18.5 60.2-26.9 6.1 10.1 11.5 21.7 15.8 34.9l1.8 5.7c-18.8 8.5-40.8 17.6-66.3 27.5-.8-2.6-1.6-5.1-2.4-7.5-1.7-5.3-3.7-10.9-5.9-16.6-.1 1.3-.2 2.7-.3 4 1.7 4.5 3.2 8.9 4.6 13.1.8 2.6 1.6 5.1 2.4 7.6-3.5 1.3-7.1 2.7-10.7 4.1 0 .6.1 1.2.1 1.8 3.8-1.4 7.5-2.8 11.1-4.2 4.4 14.4 7.4 27.7 9.5 39.9-6.8 2.6-13.8 5.3-21 8-.1.8-.2 1.4-.4 1.9 7.5-2.8 14.7-5.5 21.7-8.2 2.3 14 3.2 26.5 3.2 37.6-18.3 7-38.5 14.4-60.9 22-3.6-9.9-7.6-21.3-12.1-34.2 14.1-4.8 27.4-9.5 40-14.1-.2-.6-.5-1.1-.9-1.5-12.5 4.6-25.7 9.2-39.7 14-4-11.6-8.4-24.5-13.1-38.8.5-.2 1-.3 1.5-.5 3.8-1.3 7.5-2.6 11.2-3.8-.7-.4-1.3-.7-2-1.1-3.2 1.1-6.4 2.2-9.7 3.3-.5.2-1 .3-1.5.5-1.3-3.9-2.6-7.9-3.9-12-.7-.4-1.4-.8-2.1-1.1 1.5 4.7 3 9.2 4.5 13.6-19.1 6.5-36.9 12.2-53.4 17.2v1.8c16.6-5.1 34.6-10.9 53.9-17.4 4.7 14.3 9.1 27.2 13.1 38.8-23.8 8.1-45.5 14.9-65.2 20.7.2.7.4 1.2.5 1.6 19.7-5.8 41.4-12.6 65.2-20.7 4.5 13 8.5 24.3 12.1 34.3-23.2 7.8-44.1 14.4-63.1 20l-2.7-3.3c-.1.8-.1 1.8 0 2.7.3.4.6.7.9 1.1-.2.1-.4.1-.6.2.2.5.5 1 .9 1.5l.9-.3c1.2 1.5 2.5 2.9 3.8 4.3.4.3.9.7 1.4 1 1.9 1.4 3.8 2.6 5.3 3.5-3-3-5.9-6.1-8.7-9.3 18.9-5.5 39.7-12.1 62.5-19.8 4.6 12.8 8.6 23.1 11.9 31.4-16.3 5.5-31.3 10.3-45.1 14.5-4.2-2.8-8.3-5.8-12.1-9-.2.4-.6.8-1.3 1.1 3.6 3 7.3 5.9 11.3 8.5-18.1 5.4-34.3 9.8-48.6 13.2-15.7-4.5-32-11.5-47.1-22.2 16-3.5 34.2-8 54.8-13.7l-1.8-1.3c-20.9 5.8-39.1 10.2-55 13.6-10.8-7.9-20.9-17.7-29.8-29.8 14.6-2.9 31-6.7 49.5-11.5l-2.7-1.1c-18.1 4.7-34 8.3-48 11-7.3-10.4-13.7-22.5-18.8-36.6 9.6-2 20.1-4.3 31.5-7.1l.2-1.9c-11.7 2.9-22.5 5.3-32.3 7.3-.3-.9-.6-1.8-1-2.7-4.7-14.5-7.3-28.2-8.2-41 20.3-3 45.3-8.2 76-16.5 1.2 5.5 2.6 10.8 4 16l1.8.3c-1.5-5.4-2.9-11-4.2-16.7 15-4.1 31.5-9 49.4-14.7-.9-.5-1.6-.8-2.1-1.1-17.2 5.5-33.1 10.2-47.6 14.1-3.2-14.6-5.4-30.1-5.9-45.7 13.3-3.7 28-8.1 44.3-13.3-.3-.3-.5-.5-.8-.6-.3-.1-.5-.4-.6-.8-15.7 5.1-30 9.3-42.9 12.9-.4-18 1.5-36 7.2-52.9 9.9-2.2 21.5-5.4 35-9.8.1-.6.2-1.3.3-1.9-14.3 4.7-26.5 8-36.8 10.3-.6.3-1.1.5-1.5.6-.6.1-1 .8-1.3 1.8.8-.2 1.6-.3 2.4-.5-5.5 16.9-7.4 35-7 52.9-26.6 7.3-47.4 11.6-63.6 13.9 7.8-25 21.6-45.2 35.3-60.4.6-.7 1.2-1.3 1.8-1.9 4.3 0 9.4-.4 15.4-1.1-.2-.6-.5-1.1-.7-1.7-26.2 3.3-34.4-2.2-36.1-3.7 28-19.4 60.9-35.6 97-47.9zM66.2 195.9c2.5.1 5.2.2 8.1.2 10.8 0 24.2-.9 41-3.3.9 13 3.5 26.7 8.2 41.3.3.9.6 1.7.9 2.5-22.9 4.6-40.7 7-54.5 8.1-4.5-16.4-5.7-32.7-3.7-48.8zm16.2-51.8c-2.7 4.6-5.1 9.3-7.2 14-5.3 11.8-8.8 23.7-10.5 35.7-18.9-1.1-26.6-5.2-28.8-6.7 6.5-16.7 16.4-33.5 29.2-49.6 1.1 1.5 5.1 5.1 17.3 6.6zm-5.6 14.7c2.2-4.9 4.7-9.7 7.5-14.5 2.9.3 6.3.5 10.1.5 7 0 15.6-.6 26.2-2-4.2 14.5-6.4 30.5-5.4 48-21.1 3-37 3.6-48.7 3.1 1.6-11.8 5.1-23.5 10.3-35.1zm80.9-80.5c-.2.3-.5.5-.7.8-14 15.5-28.1 36.2-35.9 61.9-16.2 2.2-27.7 2.4-35.8 1.6 11-18.4 26.5-36.3 46.2-53.6 4.8-4.2 9.8-8.2 14.7-12 2.9.7 6.7 1.2 11.5 1.3zm-35.3 64.3c16.4-2.3 37.4-6.6 64.3-14 .5 15.6 2.8 31.1 5.9 45.7-30.7 8.3-55.6 13.4-75.8 16.3-.9-17.6 1.3-33.6 5.6-48zm2.6 95.8c5 14 11.3 26.2 18.6 36.6-23.5 4.6-41.6 6.8-55 7.7-.4 0-.8 0-1.2.1-6.6-9.5-11.8-20.2-15.6-31.8-.5-1.5-.9-2.9-1.3-4.4 13.8-1.1 31.6-3.6 54.5-8.2zm19.8 38.2c8.7 12.1 18.7 22 29.4 30-22.2 4.7-39.6 7.2-53.1 8.5-13-8.4-23.7-18.6-32.3-30.6 14.4-1 32.8-3.3 56-7.9zm31.3 31.4c14.8 10.6 30.7 17.8 46.1 22.5-15.5 3.7-28.7 6.3-40 8.1-18.9-3.8-35.7-9.5-50.3-17.2-2.9-1.5-5.6-3.1-8.3-4.8 14.1-1.4 31.4-4.1 52.5-8.6zM137.2 72.8c.7.7 2.6 2.4 7 3.7-4.6 3.6-9.2 7.3-13.7 11.3-20.1 17.6-35.8 35.9-47 54.7-14.3-1.6-17.2-6.1-17.2-6.2h-.1c18.2-22.9 42.3-44.5 71-63.5zm-101.9 116c2.8 1.9 10.9 5.9 29.2 7-2 16.2-.8 32.6 3.7 49-30.7 2.3-40.4-1.9-40.6-2l-.3.5c-1.8-17.7 1.1-36.1 8-54.5zm-3.2 76.5c-2.3-6.8-3.8-13.7-4.6-20.7 2 .8 8.8 2.9 24.3 2.9 4.8 0 10.4-.2 17-.7.5 1.6.9 3.2 1.4 4.8 3.8 11.5 8.9 22 15.3 31.4-34.8 2-45.5-4-45.6-4.1l-.9 1.4c.7.4 8.8 4.9 32.9 4.9 4.4 0 9.3-.1 14.8-.5 8.4 11.9 19 22.2 31.7 30.7-1.5.1-3 .3-4.4.4-35.2 2.6-46-3.2-46.1-3.3l-.8 1.5c.7.4 8.2 4.3 30.1 4.3 6.6 0 14.4-.4 23.8-1.3 3.3 2.1 6.7 4.1 10.3 6 13.5 7.1 29 12.6 46.3 16.4-9.7 1.5-17.8 2.3-24.6 2.8-30.3 2.1-39.5-3-39.6-3.1l-.3.6c-41.5-15.3-69.7-41.1-81-74.4zm454.6-19.2l-.8-.4c0 .1-.8 1.5-3.1 4.1-6 5.5-12.3 10.9-18.9 16.2-14.2 12.9-83.5 70.3-212 87.2 0 0-1.5 0-3.1-.5-4 .4-7.9.8-11.9 1.1 3.2-.5 6.5-1.1 10-1.8-.4-.2-.8-.4-1.1-.7-.3-.2-.4-.5-.4-.8-13 2.4-24 3.8-33.1 4.5-11.4.1-22.6-.3-33.6-1.3-6-1.3-8.3-2.7-8.4-2.8l-.9 1.4c.1.1.4.2.9.5-9-1.1-17.9-2.5-26.4-4.4-6.5-1.4-12.8-3.1-18.8-4.9 3.7.4 8.3.8 14 .8 10.4 0 24.5-1 43.4-4.1 12 2.4 24.8 3.9 38.3 4.7 7 .4 13.9.6 20.6.6 2.1 0 4.1 0 6.2-.1.5-.7.9-1.3 1.3-1.7-9.1.2-18.5 0-28-.5-11.8-.7-23-2-33.5-3.9 11.1-1.9 23.8-4.6 38.3-8.1 7.5 2.1 14.8 3.7 21.8 4.9 5.6.9 11.2 1.6 16.6 2.1.3-.2.4-.5.2-.7-.2-.3-.1-.6.2-.9-5.5-.5-11.1-1.2-16.7-2.1-6-1-12.3-2.3-18.7-4 14-3.5 29.6-7.7 47-13 2.4 1.5 4.8 3 7.3 4.4h1.9s.1-.3.3-.7c-2.5-1.3-5-2.8-7.4-4.3 13.5-4.1 28.1-8.8 43.9-14.1.9 2.3 1.8 4.4 2.6 6.4s.7-.3 1.6-.7c-.8-1.9-1.6-4-2.5-6.2 9.8-3.3 19.1-6.6 28-9.8.4-.8.7-1.5 1-2 .1-.2.4-.3.7-.4-9.6 3.5-19.7 7-30.3 10.7-3.3-8.3-7.2-18.6-11.9-31.4 22.2-7.5 42.2-14.8 60.3-21.8-.2 15-2.2 27.5-4.9 37.6-4.2 1.6-8.5 3.2-13 4.8 1.2-.4 3.4-.4 5.8-.3 2.2-.8 4.4-1.6 6.6-2.5-.3 1-.6 1.9-.9 2.8.6.1 1.2.1 1.7.2.4-1.2.8-2.5 1.1-3.7 13.9-5.2 26.7-10.3 38.3-15.1-3 4.3-6 8.4-9.1 12.1v.1c1.2-.9 2.1-1.4 2.1-1.4h1.2c2.9-3.7 5.8-7.7 8.6-11.9 21-8.8 38.3-17 52.6-24.3-7.9 8.7-16.8 17.2-26.7 25.7-.9.8-1.8 1.5-2.7 2.2 2.4-.7 3.8-1.4 5.7-2.9 1.6-1.2 3.1-2.5 4.2-3.3 8.7-7.8 16.6-15.8 23.7-23.8 29.7-15.6 45.2-27.5 52.8-34.4-9 12.5-19.7 24.8-32 36.6z"/><path class="st1" d="M345.5 130.7c.6 1.5 1.3 3 1.9 4.4.5-.2 1.1-.4 1.6-.6-.8-2-1.7-4.1-2.6-6.1-.2.6-.5 1.4-.9 2.3zM260.9 52.9l.9-.3c.5-.3 1-.8 1.5-1.6.2-.4.5-.8.8-1.2-2.1.8-4.2 1.7-6.4 2.5 1.2.4 2.2.8 3.2.6zM254.3 107.6l.6 1.8c.5-.3.9-.7 1.4-1-.2-.5-.3-.9-.5-1.4 3.4-1.2 6.7-2.3 10-3.5s-1.3-.3-2.6-.9c-2.6.9-5.2 1.8-7.9 2.7l-1.8-5.1c-.6.1-1.1.2-1.6.4.6 1.7 1.2 3.5 1.8 5.2-.8.3-1.5.5-2.3.8l-3.6 1.2c-.2.6-.3 1.3-.5 1.9 1.5-.5 3-1 4.6-1.5.9-.1 1.6-.4 2.4-.6zM325.2 132.3c1.6-.6 3.2-1.2 4.8-1.9 0-.5 0-1.1-.1-1.8-2.5 1-5 1.9-7.5 2.9.8.4 1.7.7 2.8.8z"/><path class="st2" d="M207.1 53.6c1.1-9.5-16.9-3.9-21.3 0s-18.5.6-20.2 3.4c-1.7 2.8-6.2 11.9-3.4 11 2.8-.9 10.1-.3 10.1-.3s.7 3.7 2.4 7.9c.2.5.4 1.1.7 1.7 1.9 4.3 4.7 8.8 8.7 10.1 6.9 2.3 5.9-8.4 7.1-12.8.3-1 .7-1.7 1.3-1.8.4-.1.9-.3 1.5-.6 4.2-2.3 12.1-10.2 13.1-18.6zM274.5 38.4c-3.6.5-7.6 7.1-10.5 11.4-.3.4-.5.8-.8 1.2-.5.8-1 1.3-1.5 1.6-.3.2-.6.3-.9.3-1 .2-2.1-.2-3.3-.6-1.1-.3-2.4-.6-3.9-.5-4.5.6-10.7-2.2-17.4 0-2.9 1-4.6 5.3-5.5 10-.1.6-.2 1.3-.3 1.9-.9 5.4-.9 10.6-.9 10.6s2.8.6 6.7.6c3.9 0 3.9 2.2 3.4 5.6s-1.1 2.8-2.8 4.5-12.9-3.9-18-3.4c-5.1.6-2.2 11.2 0 12.4 2.2 1.1 9-1.1 12.4 1.1 3.4 2.2-.6 3.4-1.7 4.5s-2.2 5.1 0 7.3c1.8 1.8 1.1 5 1.6 6.5.1.4.3.7.6.8.3.1.5.3.8.6 1.4 1.5 2.6 5.5 2.6 7.9 0 2.8 5.6 36.5 5.6 36.5l1 .5c.5.3 1.2.6 2.1 1.1 6 3.1 19.8 10.1 34.1 17.7.7.4 1.4.8 2.1 1.1 5.1 2.7 10.3 5.5 15.1 8.1.7.4 1.3.7 2 1.1 14 7.7 25.1 14.3 24.9 15.8-.6 3.9 10.7 11.2 14.6 12.9.2.1.5.3.6.4.4.4.6.9.9 1.5 1.5 4.3-.4 13.8-.4 16.1 0 2.8 2.2 4.5 2.2 4.5l3.4-7.9s1.1-9.5 2.8-15.2c0-.2.1-.3.1-.5.1-.5.3-1.2.4-1.9 1.4-8.5 2.3-29.5 2.3-29.5s-1.7-7.9-1.7-10.1c0-.7-.1-2.3-.1-4 0-.6-.1-1.2-.1-1.8-.2-3-.3-6-.3-6l3.4-10.1s.3-4.2.6-8.6c.1-1.4.2-2.8.3-4 .1-2.1.2-3.8.2-4.8 0-1.7-1.2-1.5-2.5-1-.5.2-1 .4-1.6.6-.8.3-1.6.6-2.1.4-1.1-.4-.5-2.8.2-4.8.3-.9.6-1.7.8-2.3 0-.1 0-.1.1-.2.4-1.2 1.3-3.2 1.7-5.1.1-.7.2-1.3.1-1.9v-.3c-.6-2.2-1.7-10.1 1.1-12.9 2.8-2.8 14.6.6 14.6.6s4.5 3.9 3.9 0c-.6-3.9 7.3-32 14-34.3 1.7-.6 5.2-.7 9.5-.6.8 0 1.6 0 2.4.1 12.5.4 29.4 2.1 30.2.6 1.1-2.2-21.9-12.4-20.8-14 1.1-1.7 11.2 3.4 12.9.6 1.7-2.8-8.4-7.9-8.4-7.9s-1.1-5.8-2.6-10.5c-.2-.6-.4-1.1-.5-1.6-.5-1.3-.9-2.4-1.4-3.1-2.2-3.4-19.1-5.1-21.9-5.6-2.8-.6-1.7-3.4 1.1-5.6 2.8-2.2 28.1 3.9 28.1 1.1 0-.2-.1-.4-.3-.6-.8-1-3.3-2.2-6.4-3.5-5-2.1-11.3-4.5-13.6-7.1-3.9-4.5-43.3-2.2-46.1-2.2-.7 0-1.8.5-3.1 1.2-.8.5-1.7 1-2.7 1.6-3.1 2-6.6 4.4-8.8 5.1-1 .3-3.8.5-7.7.8-1.1.1-2.4.1-3.7.2-12.5.7-31 1.6-35.2 3.5-5.7 2.5-4 10.9-8 11.5zm55.5 92c-.1 1.2-.5 1.8-.5 1.8s0-.4-2.9 0c-.5.1-.9.1-1.3.1-1.1 0-2-.3-2.8-.8-.8-.4-1.5-.9-2.3-1.4-2-1.3 0-6.7 0-6.7 2.2.8 8.1-.1 9.4 3.5.2.6.3 1.2.4 1.7v1.8zM247.9 108c.7-2.9 1.7-5.6 2.7-6.5.3-.3.8-.5 1.3-.7.5-.2 1.1-.3 1.6-.4 3-.5 6.7.2 7.6 1.1.5.5 1.3.9 2.1 1.2 1.3.5 2.6.9 2.6.9.2.1 3.9 1.2 9.2 0 5.5-1.3 6.3-4.6 9.3-1.7s7.2 5 5.1 6.1c-2.1 1.1-2.5 1.9-6.3 1.9s-.4-2.5-3.8 0-5.9 2.9-5.9 2.9-4.2-.8-5.2-1.7c-1.1-.8-3.2-3.2-3.2-3.2h-3.8s-2.5-1.1-4.2 0c-.2.1-.4.3-.6.4-.5.3-1 .7-1.4 1-1 .7-1.7 1.3-1.7 1.3s.8 4.2-.8 5.1c-1.7.8-4.8 2.9-6 2.5s0-2.5 0-2.5.4-2.8 1.1-5.9c0-.6.1-1.2.3-1.8zM220 193.4h-12.9l-8.4-1.2-1.8-.3-12.8-1.9s-11.4 3.9-22.9 6.7l-2.9 32.2-.2 1.9-.5 5.8 9 13 17.5 10 9.2 3.9 2.7 1.1 5.4 2.3s7.3 3.9 11.2 5.6c3.9 1.7 0 2.2 0 4.5 0 2.2 6.2 7.3 7.9 9s9 5.1 9 5.1l1.8 1.3 1.8 1.3 7.1 5.3s6.7 7.9 8.4 9c1.7 1.1 9 2.2 14 0h.1c.7-.3 1.1-.7 1.3-1.1 1.1-2.5-5.8-6.1-5.8-6.1s-1-.6-2.6-1.6c-1.5-.9-3.4-2.1-5.3-3.5-.5-.4-1-.7-1.4-1-2.2-1.6-3.7-2.8-4.7-4.1-.4-.5-.7-1-.9-1.5 0 0 0-.1-.1-.1-.1-.3-.2-.7-.3-1.1-.1-.9-.1-1.9 0-2.7.1-1 .3-1.8.3-1.8v-7.9l-3.1-11.2-8.4-8.4-.3-.9c-.1-.4-.3-1-.5-1.6-1-3.4-2.4-9.3-2-13.2.3-3.3.3-17.6.2-28.9v-1.8c-.1-7.1-.2-12.6-.2-12.6l-8.9-3.5zM466.7 263.4l-5.1.8s-4.5-1.1-7.3 0-6.2 0-6.2 0l-4.5 2.2s-.6.5-1.4 1.2c-1.1.9-2.6 2.1-4.2 3.3-1.9 1.5-3.3 2.2-5.7 2.9-1.2.3-2.6.6-4.5 1-5.6 1.1-9 3.4-9 3.4l-7.9 3.9h-11.6l-2.1 1.4c-2.6 1.8-6.9 4.8-8 6.1-1.7 1.9-13.5 1.5-19.1.9-.9-.1-2-.2-3.2-.3-.6-.1-1.1-.1-1.7-.2-1.9-.2-3.9-.3-5.8-.4-2.5-.1-4.6 0-5.8.3-.1 0-.2.1-.3.1-.3.1-.5.3-.7.4-.3.5-.7 1.2-1 2-1 2.2-2.2 5.1-3.5 5.9-1.7 1.1-6.2 2.8-9 3.4-2.8.6-5.6 2.8-7.3 3.9-1.1.7-3.9 2-5.7 2.9-.9.4-1.6.7-1.6.7-.1.2-1.9 2.9-6.7 9.4l-4.5.6h-10.1s-7.9-1.1-11.8-2.8c-3.2-1.4-5.2 3.1-5.9 4.9-.2.4-.3.7-.3.7H277.4l-2.8 6.2s1.1 3.4 0 5.6c-1.1 2.2-4.5 0-4.5 0s-4.5 1.5-5.7 3c-.2.3-.3.6-.2.9.1.2 0 .5-.2.7-1.6 1.4-9.1 2.7-9.1 2.7l-5.6 2.2s-.2.2-.4.5c-.3.4-.8 1-1.3 1.7-1.1 1.6-2.3 3.7-2.1 5 0 .3.2.6.4.8.3.3.7.5 1.1.7.6.3 1.2.5 1.9.7 1.6.4 3.1.5 3.1.5 128.5-16.9 197.8-74.3 212-87.2 1.8-1.6 2.7-2.6 2.7-2.6z"/><g><path class="st0" d="M285.1 259.7c-2.1 1.1-4.4 2.1-6.9 3 2.5-.9 4.8-1.9 6.9-3zM278 159.8c.9 0 1.8 0 2.7.1-.9 0-1.8-.1-2.7-.1zM290.7 256c-1.7 1.3-3.6 2.5-5.7 3.6 2.2-1 4.1-2.2 5.7-3.6zM280.7 159.9c1.7.1 3.4.4 4.9.7-1.5-.3-3.2-.6-4.9-.7zM286.6 202.6c-1.7 1.1-3.5 2.3-5.4 3.4 2-1.1 3.8-2.2 5.4-3.4zM293.7 230.5c-.4-.4-.7-.8-1.2-1.3.5.5.9.9 1.2 1.3zM136.4 128.4c-.4-.2-3.9-1.5-15.9-1.5H88.4l-5.8 27.7h7c24.2 0 32.8-1.8 35.7-2.9 4.6-1.7 8-4.1 10.4-7.5 2.4-3.3 3.5-6.5 3.5-9.9.1-3.3-1-4.7-2.8-5.9zM301.5 182.6c-.3 1.7-1 3.5-1.8 5.3.9-1.8 1.5-3.6 1.8-5.3zM49.2 265.2l15.4-73.7-15.4 73.7zM163.5 92.4c3.6 1.7 6.8 4 9.7 6.8-2.9-2.9-6.1-5.1-9.7-6.8zM291.2 199.1c2.1-1.8 3.8-3.7 5.2-5.6-1.4 2-3.2 3.8-5.2 5.6zM80.2 116.8l-10 47.9 10-47.9zM138.1 196.8c-2.2-2.8-4.5-5.2-6.8-7.3 2.3 2.1 4.6 4.6 6.8 7.3zM183.3 115.7c-1.1-3.2-2.5-6.3-4.3-9.1-1.2-1.9-2.4-3.6-3.8-5.2 1.3 1.6 2.6 3.3 3.8 5.2 1.8 2.8 3.2 5.8 4.3 9.1zM155.8 227.8c-3.9-8.3-7.7-15.5-11.3-21.6-1.6-2.6-3.1-5-4.8-7.2 1.6 2.2 3.2 4.6 4.8 7.2 3.6 6.1 7.3 13.3 11.3 21.6zM270.9 194c-1-2.1-1.7-4-2.2-5.8.5 1.8 1.2 3.7 2.2 5.8zM249.9 242.8c-.5-.8-.9-1.6-1.3-2.5.3.9.7 1.7 1.3 2.5zM250.7 243.9c.3.4.6.7 1 1.1-.4-.4-.7-.7-1-1.1zM293.9 213.5l4.6-7.3c-1.9 1.7-3.9 3.3-6.2 4.9.5.8 1 1.6 1.6 2.4zM260.9 249c-1.1-.1-2.1-.3-3.1-.5 1 .3 2 .4 3.1.5zM257.7 234.5c0 1.9.5 2.8 1.1 3.4.3.3 1.1 1.1 3.8 1.1h1c-1.8-2.5-3.5-5-5.1-7.6-.8 1.3-.8 2.4-.8 3.1zM298.3 168.7c-.8-1.1-1.7-2.1-2.8-3-1.1-1-2.2-1.8-3.5-2.5 1.3.7 2.4 1.6 3.5 2.5 1 .9 2 1.9 2.8 3zM267.9 183.3c0 1.5.2 3.1.7 4.9-.4-1.8-.7-3.4-.7-4.9zM302.9 265.9l12.6-13.1c-2.1-1.7-3.9-3.4-5.6-5 1.7 1.6 3.6 3.2 5.6 5l-12.6 13.1z"/><path class="st3" d="M183.3 115.7c-1.1-3.2-2.5-6.3-4.3-9.1-1.2-1.9-2.4-3.6-3.8-5.2-.7-.8-1.4-1.5-2.1-2.3-2.9-2.9-6.1-5.1-9.7-6.8-.9-.4-1.8-.8-2.8-1.2-7.6-2.8-18.2-4.2-31.8-4.2h-79L12.4 265.2h36.7l15.4-73.8h15c1.1 0 2.1 0 3.1.1 2 .1 3.8.2 5.5.4 1.7.2 3.2.5 4.6.9 1.4.4 2.6.8 3.6 1.3.5.3 1 .5 1.4.8 1.4 1 2.8 2.2 4.2 3.7 1.4 1.5 2.7 3.2 4.1 5.1.7 1 1.3 2 2 3.1 2 3.3 3.9 7 5.8 11.4 8.1 18.7 13.8 33 17.3 43 .5 1.4.9 2.8 1.3 4h39.4c-5.7-14.3-11-26.8-16.1-37.5-3.9-8.3-7.7-15.5-11.3-21.6-1.6-2.6-3.1-5-4.8-7.2-.5-.7-1.1-1.5-1.6-2.1-2.2-2.8-4.5-5.2-6.8-7.3 18.4-2.3 32.1-8.4 41.2-18.3 9.1-9.8 13.6-22.3 13.6-37.5.1-6.6-.9-12.6-2.7-18zm-36.9 30.6c-.7 1.3-1.5 2.6-2.4 3.8-3.6 5-8.7 8.7-15.1 11.1-6.4 2.4-19.5 3.5-39.2 3.5H70.2l10-47.9h40.4c2.7 0 5.2.1 7.4.2s4.2.3 6 .5c3.5.5 6.1 1.2 7.7 2.2 1.3.8 2.5 1.7 3.5 2.7 3 3 4.4 7 4.4 11.9-.1 4.2-1.2 8.1-3.2 12z"/><path class="st4" d="M141.6 119.7c-1.6-1-4.2-1.7-7.7-2.2-1.8-.2-3.7-.4-6-.5-2.2-.1-4.7-.2-7.4-.2H80.2l-10 47.9h19.5c19.7 0 32.8-1.2 39.2-3.5 6.4-2.4 11.5-6 15.1-11.1.9-1.3 1.7-2.5 2.4-3.8 2.1-3.9 3.1-7.9 3.1-12 0-4.9-1.5-8.8-4.4-11.9-1.1-.9-2.2-1.9-3.5-2.7zm-5.8 24.5c-2.5 3.4-5.9 5.8-10.4 7.5-3 1.1-11.6 2.9-35.7 2.9h-7l5.8-27.7h32.1c12 0 15.4 1.3 15.9 1.5 1.8 1.2 2.9 2.6 2.9 5.9-.1 3.4-1.2 6.6-3.6 9.9z"/><path class="st4" d="M179.9 178.1c10.8-11.7 16.3-26.7 16.3-44.4 0-12.5-2.9-23.4-8.5-32.5-5.9-9.4-13.7-15.9-23.4-19.5-8.8-3.2-20.3-4.8-35.3-4.8H41.6l-1.7 8L2.6 263.2 0 275.4h57.3l1.7-8 13.8-65.8h6.7c9.2 0 12.1 1.5 12.5 1.8 2.8 2 7.3 6.9 12.5 18.9 9 20.9 15.2 36.4 18.2 46l2.2 7.1H186.6l-5.5-13.8c-10.2-25.8-19.6-46.2-28-60.5-1.1-1.8-2.1-3.4-3.2-5.1 12.5-3.9 22.5-9.8 30-17.9zm-48.7 11.4c2.3 2.1 4.6 4.6 6.8 7.3.6.7 1.1 1.4 1.6 2.1 1.6 2.2 3.2 4.6 4.8 7.2 3.6 6.1 7.3 13.3 11.3 21.6 5.1 10.7 10.4 23.2 16.1 37.5h-39.4c-.4-1.3-.8-2.6-1.3-4-3.4-10-9.2-24.4-17.3-43-1.9-4.3-3.8-8.1-5.8-11.4-.7-1.1-1.3-2.1-2-3.1-1.3-1.9-2.7-3.6-4.1-5.1-1.4-1.5-2.8-2.7-4.2-3.7-.4-.3-.9-.6-1.4-.8-1-.5-2.2-1-3.6-1.3-1.4-.4-2.9-.7-4.6-.9-1.7-.2-3.5-.4-5.5-.4-1 0-2-.1-3.1-.1h-15l-15.4 73.8H12.4L49.8 87h79.1c13.6 0 24.2 1.4 31.8 4.2.9.3 1.9.7 2.8 1.2 3.6 1.7 6.8 4 9.7 6.8.7.7 1.4 1.5 2.1 2.3 1.3 1.6 2.6 3.3 3.8 5.2 1.7 2.8 3.2 5.8 4.3 9.1 1.8 5.4 2.7 11.4 2.7 18.1 0 15.2-4.5 27.7-13.6 37.5-9.1 9.7-22.9 15.8-41.3 18.1z"/><path class="st5" d="M424.9 162.8L440.7 87H404l-37.2 178.2h36.8l11.5-54.5 34.6-30.3 44 84.8h41.5l-58.7-108.3 80-69.9h-49.2z"/><path class="st4" d="M583.4 76.9h-79.9l-2.9 2.7-59.4 54.4 9.4-44.9 2.5-12.2h-57.3l-1.7 8-37.2 178.2-2.5 12.2H411.8l1.7-8 10.7-51.3 22.4-19.6 38.1 73.4 2.8 5.5h64.6l-8.1-14.9-54.9-101.2L563 94.6l20.4-17.7zm-106.9 80l58.7 108.3h-41.5l-44-84.9-34.6 30.3-11.4 54.6h-36.8L404 87h36.7l-15.8 75.7L507.3 87h49.1l-79.9 69.9z"/><path d="M311.4 236.2c2.2-3 3.9-5.9 5.3-8.5l-14.4-8.6c-2.1 3.2-3.9 5.9-5.6 8.1-1 1.3-2 2.4-2.9 3.3-.4-.4-.7-.8-1.2-1.3-1.3-1.5-2.8-3.6-4.5-6.2-3.9-5.7-7.2-10.9-9.9-15.3 1.1-.5 2.1-1.1 3.1-1.6 2-1.1 3.8-2.2 5.4-3.4 1.7-1.1 3.2-2.3 4.5-3.5 2.1-1.8 3.8-3.7 5.2-5.6 1.4-1.9 2.5-3.8 3.4-5.6.9-1.8 1.5-3.6 1.8-5.3.2-1.1.3-2.3.3-3.4 0-3.9-1.2-7.4-3.6-10.6-.8-1.1-1.7-2.1-2.8-3-1.1-1-2.2-1.8-3.5-2.5-1.9-1.1-4-1.9-6.3-2.5-1.5-.4-3.2-.6-4.9-.7-.9-.1-1.8-.1-2.7-.1-2.1 0-4.2.2-6.1.5-5.8.9-10.6 3.2-14.5 6.8-5.2 4.9-7.8 10.9-7.8 18 0 4.9 1.5 10.6 4.5 17.1-1.5.8-3 1.6-4.3 2.4-2 1.1-3.7 2.2-5.2 3.2-1 .7-1.9 1.3-2.7 1.9-.4.3-.8.6-1.1.9-3.8 3.2-6.9 6.9-9.3 11.4-2.4 4.4-3.6 9.2-3.6 14.4 0 5.1 1.2 9.7 3.5 13.7 1.4 2.5 3.2 4.7 5.5 6.8 1.5 1.4 3.2 2.6 4.9 3.7 5.4 3.1 12 4.7 20 4.7 5.8 0 11.3-.9 16.3-2.6 2.5-.9 4.8-1.9 6.9-3 2.1-1.1 4-2.3 5.7-3.6 1.7 1.8 3.7 3.6 6.2 5.6 1.2 1 2.3 1.8 3.3 2.6 1 .7 1.9 1.3 2.7 1.7l12.6-13.1c-2.1-1.7-3.9-3.4-5.6-5-1.7-1.6-3.2-3.1-4.5-4.5 1.7-1.8 3.7-4.2 5.9-7.3zm-40.7-60.5c1.9-1.9 4.2-2.9 7-2.9 2.2 0 4 .6 5.3 1.8.6.6 1.1 1.3 1.4 2.1.3.8.5 1.6.5 2.6s-.2 2.1-.6 3.1c-.4 1-1 2.1-1.8 3.1-1.9 2.5-5.1 4.9-9.6 7.4-.6.3-1.3.7-2 1-1-2.1-1.7-4-2.2-5.8-.5-1.8-.7-3.4-.7-4.9-.1-3 .9-5.5 2.7-7.5zm2.4 71.1c-1.4.6-2.9 1.1-4.3 1.4-2.1.5-4.2.8-6.3.8-.6 0-1.1 0-1.7-.1-1.1-.1-2.1-.3-3.1-.5-2.4-.6-4.5-1.8-6.2-3.5-.3-.3-.7-.7-1-1.1-.3-.4-.6-.7-.8-1.1-.5-.8-.9-1.6-1.3-2.5-.7-1.8-1-3.7-1-5.8 0-7.5 4.6-13.6 13.8-18.2 5.2 9.5 11.3 18.5 18.3 27-2.1 1.5-4.2 2.7-6.4 3.6z"/><path class="st4" d="M270.9 194c.7-.3 1.3-.7 2-1 4.4-2.4 7.6-4.9 9.6-7.4.8-1 1.4-2 1.8-3.1.4-1 .6-2.1.6-3.1 0-.9-.2-1.8-.5-2.6s-.8-1.5-1.4-2.1c-1.3-1.2-3-1.8-5.3-1.8-2.8 0-5.1 1-7 2.9-1.9 1.9-2.8 4.4-2.8 7.5 0 1.5.2 3.1.7 4.9.6 1.8 1.3 3.7 2.3 5.8zM247.6 234.5c0 2.1.3 4.1 1 5.8.3.9.8 1.7 1.3 2.5.3.4.5.8.8 1.1.3.4.6.7 1 1.1 1.7 1.7 3.8 2.9 6.2 3.5 1 .3 2 .4 3.1.5.5 0 1.1.1 1.7.1 2.1 0 4.2-.3 6.3-.8 1.4-.4 2.8-.8 4.3-1.4 2.1-.9 4.3-2.1 6.5-3.5-7-8.5-13.1-17.5-18.3-27-9.4 4.5-13.9 10.6-13.9 18.1zm15 4.5c-2.6 0-3.4-.8-3.8-1.1-.6-.6-1.1-1.4-1.1-3.4 0-.6 0-1.7.8-3.2 1.6 2.6 3.3 5.1 5.1 7.6-.4.1-.7.1-1 .1z"/><path class="st4" d="M319.2 242.7c.1-.2.3-.4.4-.6 2.4-3.4 4.4-6.7 6-9.7l4.4-8.4-8.2-4.9-14.4-8.6-8.3-4.9c2.1-1.9 3.9-4 5.4-6.1 4.9-6.9 7.4-13.7 7.4-20.2 0-8-3.4-15.3-9.8-21.1-6.2-5.6-14.3-8.4-24.2-8.4-11.1 0-20.4 3.4-27.5 10-7.2 6.7-11 15.5-11 25.4 0 4 .7 8.1 2.1 12.6-3 1.8-5.4 3.5-7.2 5.1-4.8 4-8.7 8.8-11.7 14.4-3.2 5.9-4.8 12.3-4.8 19.2 0 11 4.1 20.4 12.3 28 7.9 7.4 18.6 11.1 31.8 11.1 6.9 0 13.6-1.1 19.7-3.2 2.9-1 5.6-2.2 8.1-3.5.3.3.6.5.9.8 3 2.5 5.5 4.2 7.7 5.4l6.7 3.6 5.3-5.5 12.6-13.1 7.5-7.8-8.3-7c-1.1-1-2-1.8-2.9-2.6zm-9.3 5.2c1.7 1.6 3.6 3.2 5.6 5L302.9 266c-.8-.4-1.7-1-2.7-1.7-1-.7-2.1-1.6-3.3-2.6-2.4-2-4.5-3.9-6.2-5.6-1.7 1.3-3.6 2.5-5.7 3.6s-4.4 2.1-6.9 3c-5.1 1.8-10.5 2.6-16.3 2.6-7.9 0-14.6-1.6-20-4.7-1.8-1-3.4-2.3-4.9-3.7-2.3-2.1-4.1-4.4-5.5-6.8-2.4-4.1-3.5-8.7-3.5-13.7 0-5.1 1.2-9.9 3.6-14.4 2.4-4.4 5.5-8.2 9.3-11.4.3-.3.7-.6 1.1-.9.8-.6 1.7-1.2 2.7-1.9 1.5-1 3.3-2.1 5.2-3.2 1.3-.8 2.8-1.6 4.3-2.4-3-6.5-4.5-12.2-4.5-17.1 0-7.1 2.6-13.1 7.8-18 3.9-3.7 8.8-5.9 14.5-6.8 1.9-.3 4-.5 6.1-.5.9 0 1.8 0 2.7.1 1.7.1 3.4.4 4.9.7 2.3.5 4.4 1.4 6.3 2.5 1.3.7 2.4 1.6 3.5 2.5 1.1 1 2 2 2.8 3 2.4 3.2 3.6 6.7 3.6 10.6 0 1.1-.1 2.2-.3 3.4-.3 1.7-1 3.5-1.8 5.3-.9 1.8-2 3.7-3.4 5.6-1.4 1.9-3.1 3.8-5.2 5.6-1.4 1.2-2.9 2.4-4.5 3.5-1.7 1.1-3.5 2.3-5.4 3.4-1 .5-2 1.1-3.1 1.6 2.6 4.5 5.9 9.6 9.9 15.3 1.8 2.6 3.3 4.7 4.5 6.2.4.5.8 1 1.2 1.3.9-.9 1.8-2 2.9-3.3 1.7-2.1 3.6-4.8 5.6-8.1l14.4 8.6c-1.3 2.6-3.1 5.4-5.3 8.5-2.2 3-4.2 5.4-6 7.1 1.4 1.6 2.9 3.1 4.6 4.7zm-11.4-41.7l-4.6 7.3c-.5-.8-1.1-1.6-1.6-2.4 2.3-1.6 4.3-3.2 6.2-4.9z"/></g></svg>