<svg id="Слой_1" xmlns="http://www.w3.org/2000/svg" viewBox="0 0 472.4 267.7"><style>.st0{fill:url(#SVGID_1_)}.st1{fill:url(#SVGID_2_)}.st2{fill:url(#SVGID_3_)}.st3{fill:url(#SVGID_4_)}.st4{fill:url(#SVGID_5_)}.st5{fill:url(#SVGID_6_)}.st6{fill:#134383}</style><linearGradient id="SVGID_1_" gradientUnits="userSpaceOnUse" x1="227.529" y1="140.872" x2="471.278" y2="140.872"><stop offset="0" stop-color="#e0942e"/><stop offset=".41" stop-color="#c18327"/><stop offset="1" stop-color="#f4e32c"/></linearGradient><path class="st0" d="M353.2 14.7c-3.4.8-7.3 4.2-.3 11.3 8.2 8.3 10.9 14.9 10.6 19.9 0 129.3-2.5 221.8-2.5 221.8l108.3-253s-113-1.5-116.1 0z"/><linearGradient id="SVGID_2_" gradientUnits="userSpaceOnUse" x1="227.529" y1="163.78" x2="471.278" y2="163.78"><stop offset="0" stop-color="#e0942e"/><stop offset=".41" stop-color="#c18327"/><stop offset="1" stop-color="#f4e32c"/></linearGradient><path class="st1" d="M230.4 59.9L361 267.7 230.4 59.9z"/><linearGradient id="SVGID_3_" gradientUnits="userSpaceOnUse" x1="227.531" y1="156.816" x2="471.277" y2="156.816"><stop offset="0" stop-color="#e0942e"/><stop offset=".41" stop-color="#c18327"/><stop offset="1" stop-color="#f4e32c"/></linearGradient><path class="st2" d="M345.5 59.9H230.3L361 267.7s2.5-92.4 2.5-221.8c-.5 9.9-12.7 14-18 14z"/><linearGradient id="SVGID_4_" gradientUnits="userSpaceOnUse" x1="307.759" y1="78.29" x2="307.759" y2="-83.509"><stop offset="0" stop-color="#e0942e"/><stop offset=".41" stop-color="#c18327"/><stop offset="1" stop-color="#f4e32c"/></linearGradient><path class="st3" d="M310.3 30c-6.1-2.7-10-5.6-12.3-8.5V45c17.2-3.5 27.1-8.3 12.3-15z"/><linearGradient id="SVGID_5_" gradientUnits="userSpaceOnUse" x1="-57.657" y1="156.816" x2="498.286" y2="156.816"><stop offset="0" stop-color="#f09a29"/><stop offset="1" stop-color="#f9df00"/></linearGradient><path class="st4" d="M345.5 59.9H230.3L361 267.7s2.5-92.4 2.5-221.8c-.5 9.9-12.7 14-18 14z"/><linearGradient id="SVGID_6_" gradientUnits="userSpaceOnUse" x1="349.777" y1="59.869" x2="349.777" y2="-191.139"><stop offset=".007" stop-color="#1d538c"/><stop offset=".497" stop-color="#090523"/></linearGradient><path class="st5" d="M470.1 7.2S335.6.2 315.8.2C306-1.7 288.4 9.8 298 21.6c2.3 2.9 6.3 5.7 12.3 8.5 14.8 6.6 4.9 11.5-12.3 14.9-25.7 5.1-67.7 7.1-67.7 7.1s-7.1 3.5.1 7.8H345.6c5.2 0 17.5-4 18-13.9.3-5-2.4-11.6-10.6-19.9-7-7.2-3.2-10.5.3-11.3 3.1-1.5 116.2 0 116.2 0s6.1-3.4.6-7.6z"/><g><path class="st6" d="M21.4 157.7c-.3 3.7.2 6.5 1.6 8.3 2.6 3.3 8.1 5 16.6 5 5.1 0 9.3-.4 12.7-1.3 6.5-1.7 10.3-4.8 11.5-9.4.7-2.7-.2-4.8-2.8-6.2-2.6-1.4-6.9-2.7-13-3.8l-10.4-1.9c-10.2-1.9-17-4-20.5-6.2-5.9-3.7-7.8-9.6-5.6-17.6 2-7.3 6.9-13.3 14.9-18.1 8-4.8 18.5-7.2 31.4-7.2 10.8 0 19.4 2.3 25.9 6.8 6.4 4.5 8.6 11.1 6.7 19.7H69.8c1-4.9-.8-8.4-5.2-10.4-3-1.4-6.9-2-11.9-2-5.5 0-10.2.9-14 2.6-3.8 1.8-6.1 4.2-6.9 7.4-.8 2.9.3 5.1 3.1 6.5 1.8 1 6 2.1 12.5 3.4l16.8 3.4c7.3 1.5 12.7 3.4 16 5.9 5.1 3.8 6.7 9.3 4.7 16.6-2 7.4-7.2 13.6-15.8 18.5-8.5 4.9-19.3 7.4-32.4 7.4-13.4 0-23.3-2.4-29.6-7.2C.7 173.1-1.3 166.4 1 158h20.4zM94.2 182.8l21.8-81.2h21.3l-8.4 30.9h40.2l8.4-30.9h21.3L177 182.8h-21.3l9.7-36.2h-40.2l-9.7 36.2H94.2zM217.1 182.8h-21.3l21.8-81.2h21.3l-21.8 81.2zM259.3 101.6h21.1l-9 33.4 48.7-33.4h27.7L296.7 135l31.4 47.7h-27.6l-22.2-35.5-12.5 8.3-7.2 27.1h-21.1l21.8-81z"/></g></svg>