<svg id="Layer_1" xmlns="http://www.w3.org/2000/svg" viewBox="0 0 67.4 62.7"><style>.st0{fill:#26a65b}</style><path class="st0" d="M40.2 10h-9.1c-.6 0-1-.4-1-1V1c0-.6.4-1 1-1h9.1c.6 0 1 .4 1 1v8c0 .6-.4 1-1 1zm-8.1-2h7.1V2h-7.1v6z"/><path d="M53.1 28.4c-.6 0-1-.4-1-1V15.9h-7c-.5 0-1-.4-1-1l-.2-4.9H26.4l.1 4.9c0 .3-.1.5-.3.7-.2.2-.4.3-.7.3h-6.7v11.5c0 .6-.4 1-1 1s-1-.4-1-1V14.9c0-.6.4-1 1-1h6.7L24.3 9c0-.3.1-.5.3-.7.2-.2.5-.3.7-.3h19.5c.5 0 1 .4 1 1l.2 4.9h7c.6 0 1 .4 1 1v12.5c.1.5-.4 1-.9 1z"/><path class="st0" d="M53.7 53h-.3c-.5-.2-.8-.7-.6-1.3l6.6-20.2-24-11.3-24 11.3 7.4 20.1c.2.5-.1 1.1-.6 1.3-.5.2-1.1-.1-1.3-.6l-7.7-21c-.2-.5 0-1 .5-1.3L35 18.1c.3-.1.6-.1.9 0l25.1 12c.5.2.7.7.5 1.2l-6.9 21c-.1.5-.5.7-.9.7z"/><path d="M66.4 53.2c-2 0-3-1.3-3.8-2.4-.8-1-1.2-1.6-2.2-1.6s-1.4.6-2.2 1.6c-.8 1.1-1.8 2.4-3.8 2.4-2 0-3-1.3-3.8-2.4-.8-1-1.2-1.6-2.2-1.6-.9 0-1.4.6-2.2 1.6-.8 1.1-1.8 2.4-3.8 2.4s-3-1.3-3.8-2.4c-.8-1-1.2-1.6-2.2-1.6-.9 0-1.4.6-2.2 1.6-.8 1.1-1.8 2.4-3.8 2.4-2 0-3-1.3-3.8-2.4-.8-1-1.2-1.6-2.2-1.6-.9 0-1.4.6-2.2 1.6-.8 1.1-1.8 2.4-3.8 2.4s-3-1.3-3.8-2.4c-.8-1-1.2-1.6-2.2-1.6-.9 0-1.4.6-2.2 1.6-.8 1.1-1.8 2.4-3.8 2.4-2 0-3-1.3-3.8-2.4-.8-1-1.2-1.6-2.2-1.6-.6 0-1-.4-1-1s.4-1 1-1c2 0 3 1.3 3.8 2.4.8 1 1.2 1.6 2.2 1.6.9 0 1.4-.6 2.2-1.6.8-1.1 1.8-2.4 3.8-2.4 2 0 3 1.3 3.8 2.4.8 1 1.2 1.6 2.2 1.6s1.4-.6 2.2-1.6c.8-1.1 1.8-2.4 3.8-2.4 2 0 3 1.3 3.8 2.4.8 1 1.2 1.6 2.2 1.6.9 0 1.4-.6 2.2-1.6.8-1.1 1.8-2.4 3.8-2.4 2 0 3 1.3 3.8 2.4.8 1 1.2 1.6 2.2 1.6.9 0 1.4-.6 2.2-1.6.8-1.1 1.8-2.4 3.8-2.4 2 0 3 1.3 3.8 2.4.8 1 1.2 1.6 2.2 1.6.9 0 1.4-.6 2.2-1.6.8-1.1 1.8-2.4 3.8-2.4s3 1.3 3.8 2.4c.8 1 1.2 1.6 2.2 1.6.6 0 1 .4 1 1s-.5 1-1 1zM66.4 62.7c-2 0-3-1.3-3.8-2.4-.8-1-1.2-1.6-2.2-1.6s-1.4.6-2.2 1.6c-.8 1.1-1.8 2.4-3.8 2.4-2 0-3-1.3-3.8-2.4-.8-1-1.2-1.6-2.2-1.6-.9 0-1.4.6-2.2 1.6-.8 1.1-1.8 2.4-3.8 2.4s-3-1.3-3.8-2.4c-.8-1-1.2-1.6-2.2-1.6-.9 0-1.4.6-2.2 1.6-.8 1.1-1.8 2.4-3.8 2.4-2 0-3-1.3-3.8-2.4-.8-1-1.2-1.6-2.2-1.6-.9 0-1.4.6-2.2 1.6-.8 1.1-1.8 2.4-3.8 2.4s-3-1.3-3.8-2.4c-.8-1-1.2-1.6-2.2-1.6-.9 0-1.4.6-2.2 1.6-.8 1.1-1.8 2.4-3.8 2.4-2 0-3-1.3-3.8-2.4-.8-1-1.2-1.6-2.2-1.6-.6 0-1-.4-1-1s.4-1 1-1c2 0 3 1.3 3.8 2.4.8 1 1.2 1.6 2.2 1.6.9 0 1.4-.6 2.2-1.6.8-1.1 1.8-2.4 3.8-2.4 2 0 3 1.3 3.8 2.4.8 1 1.2 1.6 2.2 1.6s1.4-.6 2.2-1.6c.8-1.1 1.8-2.4 3.8-2.4 2 0 3 1.3 3.8 2.4.8 1 1.2 1.6 2.2 1.6.9 0 1.4-.6 2.2-1.6.8-1.1 1.8-2.4 3.8-2.4 2 0 3 1.3 3.8 2.4.8 1 1.2 1.6 2.2 1.6.9 0 1.4-.6 2.2-1.6.8-1.1 1.8-2.4 3.8-2.4 2 0 3 1.3 3.8 2.4.8 1 1.2 1.6 2.2 1.6.9 0 1.4-.6 2.2-1.6.8-1.1 1.8-2.4 3.8-2.4s3 1.3 3.8 2.4c.8 1 1.2 1.6 2.2 1.6.6 0 1 .4 1 1s-.5 1-1 1z"/></svg>