<svg id="Слой_1" xmlns="http://www.w3.org/2000/svg" viewBox="0 0 343.5 106.6"><style>.st0,.st1,.st2,.st3,.st4{fill-rule:evenodd;clip-rule:evenodd}.st1,.st2,.st3,.st4{fill:#009ee3}.st2,.st3,.st4{fill:#ef7c00}.st3,.st4{fill:#97c21a}.st4{fill:#fff}</style><path class="st0" d="M129.7 5.9c.1-3.2-5.2-3.9-7.5-1.5-1 1.1-2 2.4-2.6 3.7-1.5 2.9 3.8 4.3 7.8 1.3.5-.5 1.7-2.8 2.3-3.5"/><path class="st1" d="M129.2 5.6c-.3-2.3-5.2-2.7-6.7-1.3-.9.9-1.8 2.1-2.3 3.3-1.4 2.6 3.3 3.8 6.9 1.2.5-.5 1.6-2.6 2.1-3.2"/><path class="st0" d="M96.8 5.7c-6.7-.5-5.4 12.2.2 11.2 4.2-.7 19.9-.2 24.5-.2 4.7 0 14.2 1.7 14.2 1.7s4.7 1.2 4.8-5.5c.2-6.7-1.9-7.4-7.6-7.4-5.6-.1-24.8 1.6-36.1.2"/><path class="st1" d="M97.8 6.2c-6.5-.4-5.2 10 .2 9.2 4.1-.6 18.5-.2 23.1-.2 4.5 0 13.7 1.4 13.7 1.4s4.5 1 4.7-4.5c.2-5.5-1.9-6.1-7.3-6.1-5.6 0-23.5 1.4-34.4.2"/><path class="st0" d="M132.2 12.2c.1 1.6.5 4.9 3.4 5.5 2.9.6 4.7-2 4.8-5.6.1-3.6-1.6-6-3.6-6-3.3-.1-4.8 2.9-4.6 6.1"/><path class="st1" d="M132.7 11.7c.1 1.4.5 4.1 3 4.6s4.1-1.7 4.2-4.7c.1-3-1.4-5-3.2-5.1-2.8 0-4.1 2.5-4 5.2"/><path class="st0" d="M104.1 10.3c.6 0 1.1.5 1.1 1.2s-.5 1.2-1.1 1.2c-.6 0-1.1-.5-1.1-1.2s.5-1.2 1.1-1.2"/><path d="M109.5 81.8c-.1-.1-.2-.1-.4-.1-.1 0-.2-.1-.3-.1-.8.1-1.6.4-2.4 1-.8.6-1.5 1.2-2.2 2.1-.7.8-1.2 1.7-1.6 2.8-.4 1-.6 2-.6 3 0 .8.2 1.5.5 2.1.3.7.8 1.3 1.4 1.8.6.5 1.2.9 1.9 1.2.7.3 1.5.4 2.2.4 1 0 1.8-.1 2.7-.4.8-.3 1.5-.7 2.1-1.3.6-.6 1-1.2 1.3-2.1.3-.8.5-1.8.5-2.8 0-1.5-.4-3-1.1-4.3-.1-.1-.1-.2-.2-.3-.1-.1-.1-.2-.2-.3-.1-.1-.1-.2-.3-.3l-.3-.3c-.1-.1-.1-.2-.2-.3s-.1-.1-.1-.3l-.2-.2c-.1-.1-.1-.1-.1-.2-.1-.1-.2-.3-.5-.4-.3-.2-.5-.3-.7-.4l-1.2-.3zm4.8-1.3l.2.2c.1 0 .1.1.2.2s.2.2.3.2c.1 0 .2.1.2.2l.4.4c.1.1.1.3.2.4.1.1.2.4.5.8 0 .1.1.3.2.4.1.1.1.1.2.3.1.1.2.2.2.3.1.1.1.2.1.3 0 .1.1.1.1.3.1.1.1.2.1.4s.1.3.1.4v.2c0 .1 0 .1.1.1.4 1.1.5 2.3.5 3.6 0 1.5-.2 2.9-.6 4.2-.4 1.3-1.1 2.4-1.9 3.3-.9.9-1.9 1.6-3.2 2.2-1.3.5-2.7.8-4.4.8-1.3 0-2.4-.2-3.4-.7-1-.4-1.8-1-2.6-1.7-.7-.7-1.3-1.5-1.8-2.3-.5-.8-.9-1.6-1.2-2.4-.1-.2-.1-.3-.2-.5v-.3-.3-.2-.2c0-.1 0-.2.1-.2 0 0 .1-.1.1-.2 0-1.1.2-2.2.5-3.3.3-1.1.8-2.1 1.3-3 .6-.9 1.2-1.8 2-2.6s1.6-1.5 2.5-2.1c.4-.3.7-.5 1.1-.7.4-.2.8-.3 1.2-.4.1-.1.2-.1.3-.2 0-.2 0-.3.1-.4.1-.1.3-.2.7-.3.4 0 .7.1 1.1.2.4.1.6.2.7.3h.4V78c0 .1.1.1.3.1h.3l.6.3c.2.1.3.2.4.3.1.1.2.2.4.2.2.1.3.2.4.4.1.2.2.3.3.3l.2.2c.1 0 .1.1.3.3l.4.4zm-31.7 9c-.1 1.1-.1 2-.1 2.9 0 .9-.1 1.7-.1 2.5-.1.8-.1 1.6-.2 2.4-.1.8-.2 1.6-.2 2.4-.1.3-.2.5-.4.6-.2.1-.4.2-.7.2-.1 0-.3.1-.4.1-.1 0-.3.1-.5.1-.4 0-.7-.1-.9-.2-.2-.2-.3-.4-.3-.7 0-.3-.1-.6-.1-1 0-.6 0-1.2.1-1.8.1-.6.1-1.2.2-1.8.1-.5.1-.9.1-1.4 0-.4 0-.8.1-1.2 0-.4.1-.9.1-1.5s.1-1.3.1-2.1.1-1.6.1-2.4c0-.8.1-1.6.1-2.4 0-.8.1-1.5.1-2.1v-1.5-.3-.3-1c0-.4.1-.7.2-1 .1-.3.2-.6.4-.8.2-.2.5-.4.8-.4.3.1.5.1.7.1.2 0 .4 0 .6.1.2.1.3.2.4.4.1.1.1.1.1.2s0 .2.1.2c.1.2.2.6.2 1v1.4c0 .4 0 .8-.1 1.2 0 .1 0 .3-.1.4 0 .2-.1.3-.1.4v1c-.1.6-.1 1-.1 1.4V86c.3 0 .7 0 .9.1h.9c1 0 2.1-.2 3.1-.7 1-.5 1.8-1.2 2.5-2.3.1-.1.1-.1.2-.3.1-.1.2-.2.2-.3.1-.1.1-.2.1-.3 0-.1 0-.2.1-.3.1-.1.1-.2.2-.4.1-.1.1-.2.2-.4.1-.4.2-.9.3-1.3.1-.5.1-1 .1-1.5v-.5-.4c0-.5.1-1 .4-1.3.3-.4.7-.5 1.1-.5.7 0 1.2.1 1.5.2.3.1.5.4.5.8v.7c0 2.4-.4 4.6-1.3 6.4-.9 1.9-2.1 3.3-3.7 4.3.3.3.6.5.9.8.1.1.2.2.2.3 0 .1.1.2.2.3.1.1.2.2.3.2.1.1.2.1.3.2.1.1.2.3.3.4.1.1.1.2.2.3.8 1.3 1.5 2.6 2 4.1.5 1.5.7 2.7.7 3.8 0 .7-.1 1.1-.2 1.4-.1.2-.3.3-.5.3-.2.1-.4.1-.6.1-.5 0-.9-.1-1.2-.3-.1-.1-.3-.1-.4-.2-.1-.1-.3-.2-.4-.5-.1-.2-.1-.3-.1-.4 0-.1 0-.3-.1-.5 0-.1-.1-.2-.1-.3-.6-.1-.6-.2-.6-.3l-.1-.8c-.1-.1-.1-.2-.1-.4 0-.1-.1-.2-.1-.4-.2-.8-.4-1.5-.7-2.1-.3-.7-.6-1.3-1-1.9-.1-.1-.2-.3-.3-.4-.1-.2-.2-.3-.3-.4-.1-.2-.3-.3-.5-.4-.2-.1-.4-.2-.5-.3-.4-.3-.9-.5-1.4-.7-.5-.2-1.1-.3-1.7-.3H82.6zm-24.3 8.1c1.6-.1 2.8-.5 3.7-1.1.9-.6 1.3-1.8 1.3-3.6 0-.8-.1-1.5-.4-2-.3-.5-.6-.9-1.1-1.1-.4-.3-.9-.4-1.4-.5-.5-.1-1-.1-1.6-.1-.5 0-1.1 0-1.6.1s-.9.2-1.1.3c0 .5-.1 1-.1 1.5 0 .4 0 .9-.1 1.3 0 .5 0 .8-.1 1.2l-.2 3.7H57.2c.2 0 .4 0 .4.1h.5c.1.2.1.2.2.2zm-3.7 3c-.3 0-.6-.1-.9-.1-.3 0-.6-.1-.7-.3-.1-.2-.1-.3-.2-.5s-.1-.3-.2-.5-.1-.4-.1-.7v-.9-.8c0-.3 0-.6.1-.8.1-1.1.2-2.2.2-3.3 0-1.1 0-2.4.1-3.9 0-.6.1-1.2.1-2s.1-1.5.1-2.3c0-.8.1-1.5.1-2.2v-1.9-.5-.9c0-.2 0-.3.1-.4.1-.1.1-.2.1-.3v-.2-.2c.1-.1.1-.3.1-.5s.1-.4.3-.6l.2-.2.2-.2c.1-.1.3-.1.4-.1h.4c.1 0 .1 0 .2-.1.1 0 .1-.1.2-.1.3 0 .5 0 .7.1.2.1.3.1.4.3.2.3.3.5.3.7.1.2.1.4.1.5v1.6l-.5 2.7c-.1.9-.1 1.6-.1 2.3 0 .7-.1 1.4-.1 2 .6-.1 1.2-.2 1.7-.2.5-.1 1-.1 1.5-.1h.7c.2 0 .5.1.7.2h.8c.1 0 .3.1.4.1 1.3.3 2.4 1 3.2 2 .8 1 1.3 2.6 1.3 4.7 0 1.5-.2 2.8-.7 3.8-.5 1-1.2 1.8-2 2.3-.9.6-1.9.9-3 1.2-1.2.2-2.4.3-3.8.3h-1.3c-.3.1-.7.1-1.1 0zm17.2.2h-.4c-.2 0-.3-.1-.5-.1-.5 0-.8-.3-.9-.8-.2-.7-.3-1.6-.3-2.7v-1.6c0-.5 0-.9.1-1.2v-1.7c0-.7.1-1.4.1-2.1 0-.7.1-1.5.1-2.1 0-.7.1-1.2.1-1.7l.4-4.7c.1-.5.1-.9.1-1.2 0-.3 0-.6.1-.8 0-.1.1-.2.1-.4 0-.1.1-.2.1-.3v-.1-.1-.2-.2-.2-.2c0-.1 0-.1.1-.1 0 0 .1 0 .1-.1l.1-.6c.1-.3.1-.5.2-.6.1-.1.1-.3.3-.4.2-.2.4-.2.6-.2.1 0 .2 0 .3-.1.1-.1.2-.1.3-.1.1 0 .2 0 .4.1.2 0 .3.1.5.1h.4c.2 0 .3.1.4.2.1.1.1.1.1.2s0 .2.1.2c.1.1.1.1.1.2v.4c0 .3 0 .7-.1 1-.1.4-.2.8-.3 1.3-.1.4-.2 1-.3 1.7-.1.7-.2 1.5-.3 2.4l-.3 2.7c-.1.9-.1 1.8-.2 2.6 0 .6-.1 1.2-.1 1.8-.3.6-.3 1.1-.3 1.7 0 .5-.1 1-.1 1.5 0 .4-.1.8-.1 1 0 .5 0 1.1.1 1.8s.1 1.3.1 1.9v.4c0 .1 0 .2-.1.3-.1.1-.1.2-.1.2v.4c-.1.1-.1.1-.3.1-.1 0-.2 0-.3.1-.1.1-.2.1-.2.1 0 .1-.1.2-.2.2zm-30.6-7.3V99.4c0 .4-.2.7-.4 1-.2.3-.5.5-.9.7-.3 0-.6 0-.9-.1-.3-.1-.5-.2-.6-.4-.1-.3-.2-.5-.3-.7-.1-.2-.2-.5-.3-.7-.1-.2-.1-.5-.1-.7 0-.2-.1-.5-.1-.8 0-.3 0-.7-.1-1.1v-1.5-.8-1.1-1.1-.7-.6-1.2-1.7c0-.6 0-1.3.1-1.9.1-.9.1-1.8.1-2.7 0-.9.1-1.6.2-2.3-.2 0-.6 0-.9.1-.3.1-.7.1-1 .2-.3.1-.7.1-1 .2-.3.1-.7.1-1.2.3-.9.2-1.6.3-2 .4-.4.1-.8.1-1.1.1-.2 0-.4 0-.4-.1-.1-.1-.2-.1-.3-.1-.2-.1-.3-.2-.3-.4-.1-.1-.1-.3-.1-.3v-.3-.4c0-.1 0-.1.1-.3 0-.1.1-.2.1-.2.1-.1.2-.3.3-.5.1-.2.3-.3.5-.4.7-.2 1.5-.3 2.4-.5.9-.2 1.9-.4 2.8-.6 1-.2 1.9-.4 2.9-.6.9-.2 1.8-.3 2.5-.5.7-.1 1.4-.2 2.2-.3.8-.1 1.5-.2 2.3-.4.7-.1 1.4-.2 1.9-.3.6-.1 1-.1 1.2-.2h.2s.1.1.2.1.2.1.3.1c.1 0 .2.1.2.1h.2s.1 0 .1.1c.1 0 .1.1.2.2l.2.2c.1 0 .1.1.1.1s0 .1.1.1c0 .1 0 .1.1.1 0 0 .1.1.1.2v.5l-.1.1c0 .1 0 .2-.1.3v.2s0 .1.1.3v.6c-.1.1-.2.1-.4.2s-.4.1-.4.2c-.2.1-.5.1-.9.1s-.9.1-1.3.1c-.5.1-1 .1-1.5.1s-1 .1-1.3.1c-.6.1-1.2.2-1.6.3-.4.1-.8.1-.9.1h-.3c-.1 0-.1.1-.2.1-.1 1-.2 2-.3 3.1-.1 1.1-.1 2.1-.2 3-.1 1.1-.1 1.8-.1 2.3v3.4l-.1 1.2zm-18.3-.4l-.2-.1.2-.2.1-.3-.2-.5.4-6.3v-3.1-2c0-.4-.1-.8-.2-1.2-.1-.4-.2-.8-.2-1.2 0-.9.2-1.6.6-2.2.4-.5.9-.8 1.4-.8.1 0 .2 0 .4.1h.3c.2 0 .4 0 .6.1.2.1.4.2.5.5.1.3.3.6.4 1.1.1.5.1 1.1.1 2 0 .7 0 1.5-.1 2.5s-.1 2.1-.2 3.3c-.1 1.2-.1 2.4-.2 3.7-.1 1.3-.1 2.5-.1 3.6v6.1c-.1 1.1-.3 1.8-.8 2.1-.5.3-1.1.5-1.9.5H20.7c-1.2 0-2.8-.1-4.8-.1-2.1-.1-4.7-.1-7.9-.2-1 0-1.8-.1-2.6-.1s-1.4-.1-1.9-.1c-.3 0-.6-.1-.9-.1-.3-.1-.5-.1-.7-.3-.2-.1-.3-.4-.4-.6-.1-.3-.2-.6-.2-1.1 0-.3 0-.7.1-1.1 0-.4.1-.7.1-.9v-.4-2.5c0-1 .1-2 .1-3.1s.1-2 .1-2.9v-1.8c0-.7 0-1.3-.1-2s-.1-1.4-.1-2.1v-1.6c0-.5 0-1 .1-1.5v-.4-.4-.1-.1-.3-.3c.1-.6.3-1 .6-1.3.4-.3.9-.4 1.5-.4.3 0 .5.1.8.2.2.1.5.4.6.8.2.4.3 1 .4 1.8.1.8.2 1.8.2 3.1 0 .7 0 1.3-.1 1.9 0 .6-.1 1.2-.1 1.8-.1.6-.1 1.3-.2 2s-.1 1.6-.2 2.5c-.1 1-.1 2.1-.1 3.4 0 1.3-.1 2.8-.1 4.5.5.1 1.2.1 2 .2.8 0 1.6.1 2.4.1h3.5c-.1-.7-.1-1.5-.2-2.6-.1-1-.1-2.1-.1-3.3v-1.2c0-.4 0-.8.1-1.2v-1.1-.2c0-.5 0-1 .1-1.4.1-.4.1-.9.1-1.5 0-.2 0-.5-.1-.7 0-.2 0-.6.1-1.2s.1-1.2.1-1.8v-1.3c0-.4-.1-.7-.1-1.1 0-.4-.1-.7-.1-1.1v-1.2c0-.5.1-.9.4-1.1.2-.2.5-.4.8-.4.5 0 1 .1 1.3.4.3.2.6.5.8.9.2.4.3.8.4 1.2.1.5.1.9.1 1.3 0 .6 0 1.3-.1 2.2 0 .9-.1 2-.1 3.1 0 1.2-.1 2.4-.1 3.8 0 1.3-.1 2.7-.1 4.1 0 .7 0 1.4.1 2 0 .7.1 1.2.1 1.7l.2 1.3h6.7l-.1-2.3-.1-.2.2-.2-.1-.1c0-.1 0-.1.1-.2 0-.1.1-.2.1-.3 0-.1 0-.1-.1-.1s-.1-.1-.1-.1l-.2-.3zM199.1 100.3c-.2 0-.3 0-.4-.1-.1-.1-.2-.1-.4-.2s-.4-.2-.6-.4c-.4-.4-.6-1-.7-1.8-.1-.7-.2-1.4-.2-2.1v-1.2c0-.5.1-.9.1-1.4 0-.5.1-1 .1-1.4 0-.5.1-.9.1-1.2l.4-3.8c.1-.4.1-.8.1-1.3s0-1 .1-1.5c-.3.6-.7 1.2-.9 1.8-.3.5-.5 1-.8 1.5-.3.5-.5.9-.7 1.3-.4.8-.9 1.5-1.4 2.4-.5.8-1 1.6-1.5 2.5-.1.1-.2.3-.3.6-.1.3-.2.4-.3.4-.1.2-.2.4-.3.5l-.4.4c-.1.1-.2.3-.3.5l-.3.6c0 .1-.1.2-.2.4l-.4.4c-.3.4-.6.8-1 1.4-.4.6-.7 1-.9 1.4-.4.5-.9.8-1.5.8h-.4c-.1 0-.3-.1-.4-.1-.1-.1-.2-.1-.3-.2 0-.1-.1-.1-.3-.2-.1-.1-.2-.1-.2-.3-.1-.1-.1-.3-.2-.4-.2-.5-.2-1.1-.2-1.9v-1.9c0-.8.1-1.6.1-2.5.1-.9.1-1.8.1-2.6v-2c0-.6 0-1.3-.1-1.9 0-.6-.1-1.2-.1-1.9v-1.7-1.7c0-.3 0-.6-.1-1-.1-.3-.1-.7-.1-1 0-.9.2-1.6.6-2 .1-.1.3-.2.5-.3h.5c.2 0 .4 0 .7.1h.3c.1 0 .2 0 .3.1.1.1.2.1.2.2s.1.1.3.1c.2 0 .3.1.3.3.1.2.1.4.1.6v1.1c0 .4-.1.7-.1 1.1v9.1c0 .6 0 1.3-.1 2.1s-.1 1.5-.1 2.2c1.2-2.1 2.4-4.1 3.7-6.1 1.2-2 2.4-3.9 3.6-5.7.6-.9 1.1-1.8 1.6-2.6s1.1-1.5 1.8-2.1c.1-.1.3-.2.6-.3.2-.1.5-.1.7-.1.2 0 .5 0 .8.1.3.1.5.2.6.4.1.1.1.3.2.6v.9c0 .6 0 1.2-.1 1.9 0 .6-.1 1.2-.1 1.8l-.6 7.7c-.1.9-.2 1.9-.3 2.8-.1 1-.1 1.8-.1 2.6 0 .7 0 1.2.1 1.7.1.4.1.9.1 1.3v.4c0 .2 0 .3-.1.4-.1.1-.1.2-.2.2s-.2 0-.4.1c-.1 0-.2.1-.3.1h-.3m-31.2-10.8c-.1 1.1-.1 2-.1 2.9 0 .9-.1 1.7-.1 2.5-.1.8-.1 1.6-.2 2.4-.1.8-.2 1.6-.2 2.4-.1.3-.2.5-.4.6-.2.1-.4.2-.7.2-.1 0-.3.1-.4.1-.1 0-.3.1-.5.1-.4 0-.7-.1-.9-.2-.2-.2-.3-.4-.3-.7 0-.3-.1-.6-.1-1 0-.6 0-1.2.1-1.8.1-.6.1-1.2.2-1.8.1-.5.1-.9.1-1.4 0-.4 0-.8.1-1.2 0-.4.1-.9.1-1.5s.1-1.3.1-2.1.1-1.6.1-2.4c0-.8.1-1.6.1-2.4 0-.8.1-1.5.1-2.1v-1.5-.3-.3-1c0-.4.1-.7.2-1 .1-.3.2-.6.4-.8.2-.2.5-.4.8-.4.3.1.5.1.7.1.2 0 .4 0 .6.1.2.1.3.2.4.4.1.1.1.1.1.2s0 .2.1.2c.1.2.2.6.2 1v1.4c0 .4 0 .8-.1 1.2 0 .1 0 .3-.1.4 0 .2-.1.3-.1.4v1c-.1.6-.1 1-.1 1.4V86c.3 0 .7 0 .9.1h.9c1 0 2.1-.2 3.1-.7 1-.5 1.8-1.2 2.5-2.3.1-.1.1-.1.2-.3.1-.1.2-.2.2-.3.1-.1.1-.2.1-.3 0-.1 0-.2.1-.3.1-.1.1-.2.2-.4.1-.1.1-.2.2-.4.1-.4.2-.9.3-1.3.1-.5.1-1 .1-1.5v-.5-.4c0-.5.1-1 .4-1.3.3-.4.7-.5 1.1-.5.7 0 1.2.1 1.5.2.3.1.5.4.5.8v.7c0 2.4-.4 4.6-1.3 6.4-.9 1.9-2.1 3.3-3.7 4.3.3.3.6.5.9.8.1.1.2.2.2.3 0 .1.1.2.2.3.1.1.2.2.3.2.1.1.2.1.3.2.1.1.2.3.3.4.1.1.1.2.2.3.8 1.3 1.5 2.6 2 4.1.5 1.5.7 2.7.7 3.8 0 .7-.1 1.1-.2 1.4-.1.2-.3.3-.5.3-.2.1-.4.1-.6.1-.5 0-.9-.1-1.2-.3-.1-.1-.3-.1-.4-.2-.1-.1-.3-.2-.4-.5-.1-.2-.1-.3-.1-.4 0-.1 0-.3-.1-.5 0-.1-.1-.2-.1-.3-.1-.1-.1-.2-.1-.3l-.1-.8c-.1-.1-.1-.2-.1-.4 0-.1-.1-.2-.1-.4-.2-.8-.4-1.5-.7-2.1-.3-.7-.6-1.3-1-1.9-.1-.1-.2-.3-.3-.4-.1-.2-.2-.3-.3-.4-.1-.2-.3-.3-.5-.4-.2-.1-.4-.2-.5-.3-.4-.3-.9-.5-1.4-.7-.5-.2-1.1-.3-1.7-.3h-2.2zm-15.8-8.4l-.4.2h-.4c-.9.2-1.7.6-2.3 1.2-.6.6-1.2 1.3-1.6 2.1-.4.8-.7 1.7-.9 2.7-.2 1-.3 2-.3 3 0 1.7.5 3 1.5 4s2.4 1.5 4.3 1.5c.6 0 1.2 0 1.8-.1.6-.1 1.2-.1 1.8-.2.6-.1 1.1-.2 1.5-.2.5-.1.9-.1 1.2-.1.6 0 1 .1 1.2.4.2.2.3.6.3 1 0 0 0 .2-.1.4s-.1.4-.1.4c-.2.2-.4.4-.6.5-.2.2-.5.3-.8.5-.1.1-.2.1-.4.2-.1.1-.2.1-.3.2-.1.1-.1.1-.2.1s-.1 0-.2.1h-.2-.2c-.1.1-.2.1-.4.1h-.4c-.1.1-.3.1-.4.1-.1 0-.3 0-.4.1-.1.1-.3.1-.6.1s-.5.1-.7.1h-2.3c-1.4 0-2.7-.2-3.8-.7-1.1-.5-2-1.1-2.7-2-.7-.8-1.3-1.8-1.7-2.8-.4-1.1-.6-2.2-.6-3.4 0-1.6.2-3.2.5-4.7s.8-2.8 1.5-4c.1-.1.2-.3.2-.5s.1-.3.3-.4c.2-.1.3-.3.4-.6.1-.3.2-.5.4-.6.1 0 .2-.1.4-.2.1-.1.2-.2.3-.4.1 0 .2 0 .2-.1s.1-.2.1-.2c.1 0 .1 0 .2-.1l.2-.2c.1-.1.2-.1.4-.3.2-.1.3-.2.4-.3.2-.1.3-.1.5-.1s.3-.1.4-.1c.1-.1.1-.2.3-.3.1-.1.3-.2.5-.3.3 0 .5 0 .6-.1.1 0 .3-.1.4-.1.2-.1.5-.2 1-.3.5-.1.9-.1 1.3-.1.6 0 1.2.1 1.8.3.6.2 1.1.5 1.4.9.5.5.8 1.1.8 1.7 0 .3-.1.6-.2 1.1 0 .1-.1.3-.2.5s-.3.4-.6.4c-.3.1-.6.1-.8.1h-.6c-.1 0-.3-.1-.4-.2-.1-.1-.2-.1-.3-.2-.1 0-.2-.1-.3-.1-.4-.2-.7-.3-1-.3h-.4l-.3.3zm-25.5 4c.6 0 1.5-.4 2.6-1.1.2-.2.5-.3.8-.5.3-.2.6-.4.8-.6.2-.2.5-.4.6-.6.2-.2.3-.4.3-.6v-.2c0-.1-.1-.1-.2-.2-.2-.1-.6-.1-1.2-.2s-1.2-.1-2-.1H126.5l.1 4.1zm.6 12c.3-.1.7-.1 1.1-.2l1.2-.3c.4-.1.8-.2 1.1-.3.3-.1.6-.2.8-.2.5-.2 1.1-.3 1.7-.5.6-.2 1.1-.4 1.5-.6.2-.1.4-.2.5-.3.1-.1.3-.2.4-.2.1-.1.2-.1.4-.2s.4-.3.5-.4c.1-.1.2-.3.2-.4 0-.1-.1-.3-.2-.4-.2-.2-.4-.3-.7-.5-.3-.1-.6-.3-1-.5s-.9-.4-1.5-.5c-.6-.2-1.2-.4-1.8-.5-.6-.2-1.3-.3-2.1-.5-.4-.1-.7-.1-1.1-.2h-1.1l.1 2.8v3.9zm8-18.2c.2.2.3.2.4.3l.1.1v.2c0 .1 0 .1.1.1 0 0 .1.1.1.2.1.1.1.2.1.2v.2c0 .1 0 .1.1.2v.7c0 .9-.3 1.7-.8 2.4s-1.2 1.3-2 1.9c-.7.4-1.3.8-1.9 1.1-.6.3-1.2.6-1.9.8v.2c.5.1 1 .2 1.4.3.4.1.8.2 1.2.2l1.2.3c.4.1.9.2 1.4.4.9.3 1.8.6 2.6 1.1.8.4 1.3.8 1.5 1.1.2.2.4.5.6.8.2.4.3 1 .3 1.8 0 .7-.1 1.2-.2 1.6-.1.3-.3.6-.6 1l-.5.5-.5.5c-.2.2-.4.3-.5.4-.3.2-.6.4-1 .6-.4.2-.7.4-1.1.5-.4.2-.7.3-1 .4-.3.1-.6.2-.7.3-.2.1-.5.2-.9.3-.4.1-.7.2-1.1.3l-1.2.3c-.4.1-.7.2-1 .2-.1 0-.3.1-.6.2s-.5.2-.8.2v.1h-.5c-.1 0-.1 0-.2.1s-.1.1-.2.1-.3 0-.5-.1c-.2 0-.5-.1-.7-.1-.2-.1-.3-.1-.3-.1h-.4v-.1l-.1-.1s-.1 0-.1.1l-.1.1c-.2 0-.3 0-.4-.1-.1-.1-.1-.1-.3-.2-.2-.1-.2-.1-.3-.3 0-.1-.1-.2-.2-.3-.1-.2-.2-.4-.2-.6v-.7c0-.1 0-.3.1-.5-.1-.5-.1-1-.1-1.6-.1-1-.1-2.3-.1-3.9v-1.3-1.5-1.9-2.4-2.1-1.8h-.4-.1-1.1c-.4 0-.9 0-1.4-.1 0-.2-.1-.4-.2-.7-.1-.2-.1-.5-.1-.8 0-.1 0-.1.1-.2 0-.1.1-.1.1-.2v-.2-.2c0-.3.1-.5.2-.7h.1s.1 0 .1-.1.1-.1.1-.2.1-.1.1-.3c.3-.1.5-.1.8-.2h3.5c.5 0 1 0 1.5-.1h3.8c.5 0 1.1.1 1.8.2s1.3.3 1.9.6c.1.1.1.1.2.1s.2.1.2.1c.1.1.1.2.2.2.4 0 .4.1.4.1zM285.8 89.4c.1.1.2.2.2.3 0 .1.1.2.1.2.1 0 .1.1.1.1 0 .1.1.1.1.1l.1.2.1.1s.1.1.1.2l.1.1s0 .1.1.2c.7-1.4 1.3-2.7 1.8-3.9.4-1.2.8-2.3 1.1-3.4.3-1 .5-2 .6-2.9l.3-2.7c0-.3.1-.6.1-.9.1-.3.2-.5.3-.6.1-.1.3-.2.4-.2.1 0 .3 0 .4-.1.2-.1.4-.1.6-.1.2 0 .4-.1.7-.1.1 0 .3 0 .5.1.2 0 .3.1.5.3.1.1.1.2.2.3.1.1.1.3.1.4 0 .7-.1 1.5-.3 2.5-.2 1-.4 2.1-.7 3.3s-.7 2.5-1.1 3.8c-.4 1.3-.9 2.6-1.5 3.9l-.5.7c-.1.2-.2.4-.2.5 0 .1-.1.3-.2.5l-.2.5c-.1.1-.2.2-.2.4s-.1.4-.2.5c-.1.1-.2.2-.2.3 0 .1-.1.2-.1.3-.5.9-1 1.7-1.5 2.4s-1.1 1.4-1.6 1.9c-.6.5-1.1.9-1.7 1.2-.6.3-1.2.4-1.7.4-.7 0-1.3-.1-2-.2-.2-.1-.3-.1-.4-.2-.1-.1-.3-.2-.4-.3-.1-.1-.3-.2-.4-.3-.1-.1-.2-.2-.3-.4-.1-.2-.2-.5-.2-.7v-.3c0-.1 0-.2.1-.3v-.3c0-.1 0-.2.1-.2.1-.1.1-.1.1-.2s.1-.1.2-.2c.2-.1.3-.1.3-.2h.8c.4 0 .7.1 1 .2.2.1.3.1.5.1h.6c.4 0 .9-.3 1.3-.8s.9-1.1 1.3-1.9c-.9-1.2-1.7-2.4-2.4-3.5-.7-1.2-1.3-2.4-1.9-3.6-.5-1.3-1-2.6-1.5-4.1s-.8-3.1-1.2-4.9c-.1-.3-.1-.6-.1-.9 0-.4.1-.7.4-.9l.2-.2c.1-.1.2-.1.4-.1.1 0 .3 0 .4-.1.1 0 .3-.1.4-.1.7 0 1.1.1 1.4.3.3.2.5.6.6 1.2v1c0 .2 0 .4.1.5.1.1.1.2.1.3 0 .1 0 .3.1.5l.3.9c0 .2 0 .4.1.5.1.1.1.2.2.4l1.2 3.9c.5 1.7 1.1 3 1.9 4.3m-13.4-9.7c-.1-.1-.2-.1-.3-.1H271.5c-.9 0-1.8.2-2.7.5-.9.4-1.6.8-2.3 1.4 0 0 0 .1-.1.1-.1.1-.2.1-.2.2s-.1.1-.1.2c-.1 0-.1 0-.1.1l-.3.3-.2.3v.2c0 .4 0 .9.1 1.2 0 .4.1.8.1 1.3.1.2.1.4.1.4 0 .1.1.1.2.3.3 0 .8-.2 1.6-.7.8-.4 1.5-1 2.3-1.6.8-.6 1.5-1.3 2.1-1.9.6-.7.9-1.2.9-1.6 0-.2-.1-.4-.3-.5-.1-.1-.1-.1-.2-.1.1 0 .1 0 0 0zm-8.8 20.4c-.1-.1-.1-.3-.2-.4 0-.1-.1-.2-.1-.3v-.1-.1c0-.1 0-.2-.1-.4 0-.1-.1-.2-.1-.4 0-.1-.1-.4-.1-.9 0-.4-.1-.9-.1-1.4 0-.5-.1-1-.1-1.5v-1c0-.4 0-1-.1-1.9-.1-.9-.1-1.9-.2-2.9-.1-1.1-.1-2.1-.2-3.1s-.1-1.9-.1-2.5v-.3-.3c0-.1 0-.3.1-.6s.3-.6.7-.9c.1-.1.2-.2.2-.3 0-.1.1-.2.3-.3.1-.1.1-.2.3-.3.1-.1.2-.2.3-.2 0-.1.1-.1.1-.1l.1-.1c.2-.2.4-.5.7-.7.2-.2.5-.5.8-.7.8-.6 1.7-1.2 2.7-1.7 1-.5 2.1-.8 3.2-.8.9 0 1.6.2 2.3.5.1 0 .1.1.1.1h.1c0 .1.1.1.2.2l.2.2c.1 0 .1.1.1.1l.1.1c.2.1.3.2.4.4.2.3.4.7.6 1.2.2.5.3 1 .3 1.5 0 1.1-.3 2.2-1 3.2s-1.5 1.9-2.5 2.7c-1 .8-2 1.5-3.1 2.1-1.1.6-2.1 1-3.1 1.4l-.2.4v.9c.1.4.1.7.1 1 0 .3.1.5.1.7v4.8c0 .2.1.4.2.6.1.3.1.6.1.8 0 .2 0 .4.1.6-.1.1-.1.3-.1.6s-.1.5-.2.8c-.1.1-.1.1-.1.2l-.1.1c-.1.1-.2.2-.4.3-.2.1-.3.1-.5.2-.1.1-.2.1-.2.1h-.2c-.1 0-.1-.1-.2-.1s-.1-.1-.2-.1c-.1-.1-.2-.2-.4-.3-.2-.2-.3-.3-.3-.4l-.3-.7zM258.1 80h-1.2c-.1.5-.1 1.1-.2 1.7-.1.6-.1 1.2-.2 1.8-.1.4-.1.9-.2 1.6-.1.7-.1 1.4-.2 2.2l-.3 2.4c-.1.8-.2 1.6-.3 2.3 0 .3-.1.6-.1 1s-.1.8-.1 1.2c0 .4 0 .8-.1 1.2v1.9l.1 1.9c0 .6-.1 1.2-.2 1.6-.1.4-.4.7-.8.8l-.8.3-.4-.2-.4-.2-.4-.7c-.1-.1-.1-.2-.1-.2v-.2-.2c0-.1 0-.1-.1-.2s-.2-.2-.2-.3v-.4-.2-.1-.1-.1-.1-.2-.1c0-.8.1-1.6.1-2.4 0-.8.1-1.7.2-2.7.1-1 .2-2.3.3-3.7.1-1.4.3-3.2.5-5.2.1-.5.1-1.1.2-2 .1-.9.1-1.7.1-2.5-.9.1-1.7.1-2.6.1-.9 0-1.5.1-1.8.1H245.3c-.4 0-.6 0-.9.1l-.2 2.4c0 .3-.1.6-.1.7 0 .1-.1.3-.1.4V85.8c0 .1-.1.2-.1.3 0 .1-.1.2-.1.4l-.1.9c-.1.8-.1 1.5-.2 2 0 .5-.1 1-.1 1.5s0 1-.1 1.3 0 .6 0 .9V94.8c0 .1-.1.1-.1.2-.1.1-.1.1-.1.2s.1.1.1.1c.1 0 .1 0 .1.1l-.1.1h-.1v1.6c0 .3 0 .5-.1.7 0 .2-.1.4-.1.6 0 .7-.1 1.3-.2 1.7-.1.5-.3 1-.5 1.5h-.1-.1c-.1 0-.2 0-.3.1-.1 0-.1.1-.2.1l-.1.1c-.1.1-.1.1-.2.1s-.1 0-.2-.1-.3-.2-.7-.4c-.4-.2-.6-.4-.7-.5-.1-.1-.2-.3-.2-.6v-.5-.4c0-.1 0-.1-.1-.1s-.1-.1-.1-.2l.4-1.6c.1-.2.1-.3.1-.4v-.4-.4-.4c.1-.4.1-.9.1-1.4 0-.5 0-1.1.1-1.7l.1-2.1c0-.7.1-1.3.1-2s.1-1.4.1-2c.1-1 .1-1.9.2-2.9s.1-1.7.2-2.3v-.7c0-.3 0-.4-.1-.5-.1-.1-.1-.1-.3-.2-.1-.1-.2-.2-.2-.5 0-.2 0-.3-.1-.5-.1-.1-.1-.3-.1-.4 0-.3.1-.5.2-.8.1-.2.3-.4.5-.6.3-.2.6-.3 1.1-.3.4 0 .8 0 1.2-.1.2 0 .4 0 .8-.1H246c.5 0 .9 0 1.3-.1.5 0 1.3-.1 2.3-.1 1-.1 2-.1 2.9-.2 1-.1 1.8-.1 2.6-.1h1.6c.1 0 .1.1.2.1.3.1.4.2.5.2h.2s.1 0 .1.1c.1 0 .1.1.2.2l.2.2c.1 0 .1.1.1.1s0 .1.1.1c0 .1 0 .1.1.1 0 0 .1.1.1.2v.5l-.1.1c0 .1 0 .2-.1.3v.4c0 .1 0 .2.1.2v.4c0 .1-.1.1-.4.2.4.1.2.2.1.2zm-38.2 12.8h.4c.1.1.1.1.2.1s.1.1.2.1c.1.1.3.3.4.6.1.2.2.4.2.7v.6c0 .4-.1.7-.4 1.1-.2.3-.6.7-1 1.1-1 .9-2.2 1.6-3.6 2.2-1.4.5-2.8.8-4.2.8-.6 0-1.2-.1-1.7-.3-.5-.2-1.1-.5-1.6-.9-.5-.3-.9-.7-1.2-1.2-.3-.5-.5-1-.7-1.5-.2-.5-.3-1.1-.3-1.7-.1-.6-.1-1.2-.1-1.9 0-1 .1-2.1.3-3.2.2-1.1.4-2.2.7-3.3l.1-.5c.1-.2.1-.4.1-.6 0-.2.1-.5.1-.9l.2-1.5h-.1H207.6l-.1-.1h-.1-.1v-.1-.2c0-.1 0-.2-.1-.2-.1-.1-.1-.2-.1-.3 0-.1-.1-.2-.1-.2v-.1-.1-.2-.2-.2-.5c.1-.1.1-.2.3-.3.1-.1.2-.2.4-.3.1-.2.2-.3.4-.4.2-.1.3-.1.5-.3.3-.1.5-.2.8-.4.3-.2.6-.3 1-.3.2-.1.3-.1.4-.1.6-.2 1.2-.4 1.8-.5.6-.1 1.2-.2 1.9-.2h.6c.2 0 .4 0 .6.1h.6c.3 0 .6 0 1 .1s.8.2 1.2.4c.4.2.7.4.9.6.3.3.4.6.4.9 0 .2-.1.4-.2.7-.1.2-.2.4-.3.5-.3.3-.5.4-.8.5-.3.1-.5.1-.7.1h-.4c-.2 0-.4 0-.7-.1-.3-.1-.5-.1-.7-.2-.3-.1-.5-.1-.7-.1h-.9c-.4 0-.8.1-1.1.2-.4.1-.7.3-.9.6 0 .2 0 .5-.1 1.1-.1.5-.1 1-.2 1.4l-.3 1.2c-.1.3-.2.7-.2 1.3.9 0 1.8 0 2.7-.1.9-.1 1.6-.1 2.2-.1.4 0 .7 0 1 .1.3.1.5.2.6.2.2.1.4.3.5.4.2.2.3.4.3.7 0 .4-.1.7-.4.9-.2.2-.5.3-.7.4-.1.1-.3.1-.5.2s-.5.1-.7.2c-.3.1-.5.1-.8.1-.2 0-.4.1-.6.1h-.6c-.2 0-.5.1-.8.1-.3 0-.5.1-.7.1-.2 0-.4.1-.6.1-.2.1-.5.1-1 .1h-1v.4c0 .2-.1.5-.1.8 0 .3-.1.6-.1 1v.9c0 .4 0 .8.1 1.2 0 .4.1.8.3 1.1.2.3.4.6.7.8.3.2.7.3 1.3.3.2 0 .5 0 .9-.1.3 0 .7-.1 1.2-.3.2-.1.5-.1.8-.3.4-.1.7-.3 1.1-.5.4-.2.7-.4 1.1-.6.4-.2.7-.4.9-.6l.5-.5c.1-.1.2-.2.2-.3.1-.1.1-.2.2-.2 0 0 0-.1.1-.1 0 0 0-.1.1-.1.1-.2.2-.3.3-.4 0 0 .1 0 .1-.1.1-.1.1-.1.2-.1h.2-.7zM327.2 97.6c1.6-.1 2.8-.5 3.7-1.1.9-.6 1.3-1.8 1.3-3.6 0-.8-.1-1.5-.4-2-.3-.5-.6-.9-1.1-1.1-.4-.3-.9-.4-1.4-.5-.5-.1-1-.1-1.6-.1-.5 0-1.1 0-1.6.1s-.9.2-1.1.3c0 .5-.1 1-.1 1.5 0 .4 0 .9-.1 1.3 0 .5 0 .8-.1 1.2l-.2 3.7H326.1c.2 0 .4 0 .4.1h.5l.2.2m-3.7 3c-.3 0-.6-.1-.9-.1-.3 0-.6-.1-.7-.3-.1-.2-.1-.3-.2-.5s-.1-.3-.2-.5-.1-.4-.1-.7v-.9-.8c0-.3 0-.6.1-.8.1-1.1.2-2.2.2-3.3 0-1.1 0-2.4.1-3.9 0-.6.1-1.2.1-2s.1-1.5.1-2.3c0-.8.1-1.5.1-2.2v-1.9-.5-.9c0-.2 0-.3.1-.4.1-.1.1-.2.1-.3v-.2-.2c.1-.1.1-.3.1-.5s.1-.4.3-.6l.2-.2.2-.2c.1-.1.3-.1.4-.1h.4c.1 0 .1 0 .2-.1.1 0 .1-.1.2-.1.3 0 .5 0 .7.1.2.1.3.1.4.3.2.3.3.5.3.7.1.2.1.4.1.5v1.6l-.3 2.5c-.1.9-.1 1.6-.1 2.3 0 .7-.1 1.4-.1 2 .6-.1 1.2-.2 1.7-.2.5-.1 1-.1 1.5-.1h.7c.2 0 .5.1.7.2h.8c.1 0 .3.1.4.1 1.3.3 2.4 1 3.2 2 .8 1 1.3 2.6 1.3 4.7 0 1.5-.2 2.8-.7 3.8-.5 1-1.2 1.8-2 2.3-.9.6-1.9.9-3 1.2-1.2.2-2.4.3-3.8.3h-1.3c-.4.3-.9.3-1.3.2zm17.2.2h-.4c-.2 0-.3-.1-.5-.1-.5 0-.8-.3-.9-.8-.2-.7-.3-1.6-.3-2.7v-1.6c0-.5 0-.9.1-1.2v-1.7c0-.7.1-1.4.1-2.1 0-.7.1-1.5.1-2.1 0-.7.1-1.2.1-1.7l.4-4.7c.1-.5.1-.9.1-1.2 0-.3 0-.6.1-.8 0-.1.1-.2.1-.4 0-.1.1-.2.1-.3v-.1-.1-.2-.2-.2-.2c0-.1 0-.1.1-.1 0 0 .1 0 .1-.1l.1-.6c.1-.3.1-.5.2-.6.1-.1.1-.3.3-.4.2-.2.4-.2.6-.2.1 0 .2 0 .3-.1.1-.1.2-.1.3-.1.1 0 .2 0 .4.1.2 0 .3.1.5.1h.4c.2 0 .3.1.4.2.1.1.1.1.1.2s0 .2.1.2c.1.1.1.1.1.2v.4c0 .3 0 .7-.1 1-.1.4-.2.8-.3 1.3-.1.4-.2 1-.3 1.7-.1.7-.2 1.5-.3 2.4l-.3 2.7c-.1.9-.1 1.8-.2 2.6 0 .6-.1 1.2-.1 1.8-.1.6-.1 1.2-.1 1.7s-.1 1-.1 1.5c0 .4-.1.8-.1 1 0 .5 0 1.1.1 1.8s.1 1.3.1 1.9v.4c0 .1 0 .2-.1.3-.1.1-.1.2-.1.2v.4c-.1.1-.1.1-.3.1-.1 0-.2 0-.3.1-.1.1-.2.1-.2.1-.1.1-.2.2-.4.2zm-29.4-4.1c.1-1 .1-1.8.1-2.6v-2.5-5.3c0-1.7-.1-3-.1-4v-.4-.4c0-.1 0-.2-.1-.3 0 0-.1-.1-.1-.2v-.5h-3c-.6 0-1.2.1-1.7.1s-1 .1-1.2.1v5.4c0 .6 0 1.3-.1 2.1s-.1 1.6-.2 2.4l-.3 2.4c0 .2 0 .4-.1.6 0 .1-.1.2-.1.3-.1.1-.1.2-.1.3-.1.2-.1.4-.1.6 0 .2 0 .4-.1.6-.1.2-.1.5-.2.7-.1.2-.2.5-.3.7 1.5-.1 2.9-.1 4-.1 1.4.1 2.5 0 3.7 0zm4.7 9.4h-.7c-.2 0-.4-.1-.5-.1-.1-.1-.2-.1-.3-.3 0-.1-.1-.2-.1-.4-.1-.2-.1-.4-.2-.7 0-.3-.1-.6-.1-1l-.1-3.5c-.8 0-1.5 0-2.3-.1h-2.4c-1.6 0-3.1 0-4.6.1l-4.5.3v4.7c0 .6-.2 1-.6 1.2-.4.2-.9.2-1.6.2-.1 0-.2 0-.3-.1-.1-.1-.2-.1-.2-.1-.2-.1-.4-.1-.5-.3-.2-.2-.2-.4-.2-.8v-1.7c0-.5 0-1-.1-1.6s0-1.1-.1-1.7v-2-.4c0-.2 0-.3.1-.3.1-.1.2-.2.4-.2l2-.2c.4-.1.7-.2.9-.4.2-.2.4-.6.6-1.2.3-.9.6-1.8.7-2.8.2-1 .3-2 .4-3 .1-1 .1-2 .2-2.9v-2.5c0-.6 0-1.2-.1-1.9s-.1-1.4-.1-2.2c0-.6 0-1.2.1-1.6.1-.5.2-.8.4-.9.3-.2.6-.3 1-.3s.7 0 1.1-.1h1.1c.5 0 1 0 1.6-.1.6 0 1.2 0 1.8-.1.6 0 1.2-.1 1.8-.1.6 0 1 0 1.4-.1h1.1c.4 0 .7.1 1.1.2.4.1.5.4.6.9 0 .5 0 1 .1 1.5V96.6c.5 0 .9 0 1.3.1.4 0 .8 0 1.2.1.2 0 .3 0 .3.1v8.3c0 .1 0 .2-.1.3-.1.1-.1.2-.2.2h-.4c-.2.1-.4.1-.6.1-.2.3-.3.3-.4.3z"/><path class="st0" d="M108.7 3c2.1 2.8 2.2 8.2 4.4 14.5.7 2 1.3 2.7 4.2-1.8l8.6 1c-.4 1.4-3.3 9.7-4.3 15.1-2.1 11.7.1 28.2.1 30.9 0 2.7-1.2 5.5-6.1 6.2-4.9.7-8.9-.6-9.7-4.7-.8-4 1.5-21 1-33.3-.5-12.3-6.9-23.6-6-25.8.8-2.2 4.8-3.5 7.8-2.1"/><path class="st1" d="M108.1 2.9c2.1 2.8 2.3 8 4.3 14.4 1.4 4.2 2.9 3.9 4.9-.6l7.4.2c-.4 1.4-3.1 9.1-4.1 14.5-2.1 11.7-1 28.3-.8 29.6.2 1.3-.8 4.9-5.7 5.6-4.9.7-7-1-7.6-3.4-.6-2.4 1.5-20.4 1.1-32.7-.4-12.4-7-24.2-6.6-25.5.5-1.4 4.2-3.5 7.1-2.1"/><path class="st0" d="M106.3 11.5c.6 0 1.1.5 1.1 1.1 0 .6-.5 1.1-1.1 1.1-.6 0-1.1-.5-1.1-1.1 0-.6.5-1.1 1.1-1.1M109.1 4.9c0-2-1.8-3-4.7-2.2-2.9.8-3.8 1.9-3.5 3.1 1 3.7 8.2 1.1 8.2-.9"/><path class="st1" d="M108.7 4.6c0-1.9-1.5-2.7-4.3-1.9-2.8.8-3.6 1.8-3.3 2.9 1 3.5 7.6.9 7.6-1"/><path class="st0" d="M188.5 1.6c-3.2-.3-7.7 0-7.7 2s-.3 10.4.1 13.7c.4 3.3 0 7.5-.2 11s1.2 6.2 2.7 13.8c1.5 7.6-1.9 14.5-1.9 20.4 0 4.9 12 5.3 11.8-.5-.2-5.3.9-14.7 1.9-19.6 1-4.9-1.7-1.7-3.9-9s.4-26.3.2-28.5c-.2-2.2.4-2.6-3-3.3"/><path class="st2" d="M187.2 1.9c-2.9-.3-5.9 0-5.9 2s-.5 9.7-.1 13c.4 3.3.4 7.2.2 10.6-.2 3.4 1.3 6.9 2.7 14.5 1.4 7.6-2.2 14.6-2 20.3.1 3.3 9.6 4.7 9.4-1.1-.2-5.3.9-14 1.8-18.9.9-4.8-1.6-1.7-3.6-9-2-7.2.4-26 .2-28.2-.1-2.2.4-2.6-2.7-3.2"/><path class="st0" d="M154.8 6.4c-6.7-.5-5.4 10.8.2 9.9 4.2-.6 18-.2 22.7-.2 4.7 0 14.2 1.5 14.2 1.5s4.7 1.1 4.8-4.9c.2-5.9-1.9-6.6-7.6-6.6-5.6.1-23 1.6-34.3.3"/><path class="st2" d="M155 6.9c-6.5-.4-5.2 8.9.2 8.2 4.1-.5 17.5-.2 22-.2s13.7 1.2 13.7 1.2 4.5.9 4.7-4c.2-4.9-1.9-5.4-7.3-5.4-5.5 0-22.4 1.2-33.3.2"/><path class="st0" d="M155.9 42.2c-3-5.1-6.9-12.4-8.2-11.2-1.3 1.2-.6 2-2.2-.4s-4.7-4.9-6.5-3.6c-1.8 1.3.6 2.6-.7 3.6-1.3 1-3.1-3.5-5.3-3.7-2.3-.2-4.3 1.2-3.7 2.6.6 1.4 2.8 2 1.7 3.5-.7.9-4.5-1.3-6.4.3-1.7 1.5-1.9 7 2.5 5.9 4.6-1.2-1.2 2.2 1.1 5.2 2.2 2.8 5-.8 6.3-.6 1.2.1 1.2.2 1.1 1.9-.1 1.7 3.5 2 5.3-.5.8-1.1 3.4-4.1 3.8-.5.1 1.2 4.2-1 7.6-1.2 3.4-.4 4.7.9 3.6-1.3"/><path class="st3" d="M154.1 40.5c-3-4.7-5.3-9.5-6.6-8.4-1.3 1.1-.6 1.8-2.2-.4s-4.1-5-5.9-3.8c-1.8 1.2.6 2.4-.7 3.3-1.3.9-3.6-3.3-5.9-3.5-2.3-.2-3.5 1.1-2.9 2.4.6 1.3 2.8 1.8 1.7 3.2-1.3 1.6-6.8-2.4-6.9 2.1-.1 2.7 1.7 3.1 4.1 2.6 1.6-.4 2.5-.4 2.1 1.1-.3 1.2-3.9 2.3-2 4.5 2.2 2.6 5.2-2.5 6.6-2.5 1.7 0 .8 1.3.7 2.8-.1 1.5 2.2 2.2 4.1-.1.8-1 4.1-4.7 4.5-1.3.1 1.1 2.1-.5 5.6-.7 3.5-.4 4.8.7 3.7-1.3"/><path class="st0" d="M153.2 40.4c-1.1-.2-7.8-2.8-9.3-3.2-.6 1.1-1.8 2.2-2.7 3-.9.7-.1-.1.5-.9.6-.7 1.4-1.6 2-2.2-2.4-.7-3.2-.9-4.9-1.1-.6 1-1.4 1.9-2.2 2.4-.9.5-2.6 1.2-3.3 1.8-.7.6.2-.8 1.1-1.1 1-.3 2.1-.9 2.9-1.8l1.3-1.3c-.5-.1-.9-.1-1.3 0-2.4.3-10.3-.1-10.3-.1s8-.2 9.9-.7c-.4-1-.3-2.1-.9-3.1-.8-1.3-2.2-2.7-2.2-2.7s1 .7 2 1.7c.9 1 1.1 2.7 1.5 4 1.2-.2 2.1-.3 5.4.8-.2-.6-.1-1.7-.3-2.7-.2-1-1-3.3-1-3.3s1.6 3.2 1.7 6.2c.8.1 2.9.9 4.8 1.7.1.1-.3-3.1-.1-3 .1.1.5 3.3.6 3.3 2 .9 3.9 1.8 4.8 2.3M157.3 3c4.3-1.6 7.8 0 8 2 .2 2 .5 18 .5 19.9 0 1.9 3.4.6 2.7 2.5-.6 1.9-2.1 8.1-2.7 11.7-.6 3.6 1.5 25.9 1.5 25.9s-.8 2.5-5.5 2.4c-4.6-.2-5.7-2.8-5.7-2.8s.3-8.7-1.6-19.3c-.2-1.4 1.6-2.1 1.5-3.4-.1-4.5-.2-11.3-.1-14.6.1-13.3-3.2-21.8 1.4-24.3"/><path class="st2" d="M157.6 3c3.6-1.6 6.3 0 6.5 2 .2 2 .5 18.5.5 20.3 0 1.9 2.8.6 2.3 2.5s-2 7.3-2.5 10.9c-.5 3.6 1.2 25.6 1.2 25.6s-.7 2.5-4.6 2.3c-3.9-.2-4.4-2.8-4.4-2.8s.3-8.6-1.4-19.1c-.2-1.3 1.3-.4 1.3-1.7-.1-4.4-.1-12.9-.1-16.1.1-13-2.7-21.5 1.2-23.9"/><path class="st0" d="M161 2.3c1.5.3 3.6.6 4 2.1.5 1.5-1.2 2.3-3.1 2.6-2 .2-6-.4-5.6-2.6.4-2.2 3.6-2.2 4.7-2.1M195.8 12.2c0 1.5-.4 4.4-2.5 4.9s-3.5-1.8-3.6-5c-.1-3.2 1.2-5.3 2.7-5.4 2.4 0 3.5 2.7 3.4 5.5"/><path class="st2" d="M160.5 2.6c1.2.2 2.9.5 3.2 1.7.4 1.2-.9 1.8-2.5 2-1.6.2-4.8-.3-4.5-2.1.4-1.7 2.9-1.7 3.8-1.6M195.4 11.7c0 1.2-.4 3.7-2.2 4.1-1.9.4-3.1-1.5-3.2-4.2-.1-2.7 1-4.4 2.4-4.5 2.1 0 3.1 2.3 3 4.6"/><path class="st0" d="M185.7 1.7c2.8.1 4.5.5 4.9 1.8.4 1.2-2 2.3-3.8 2.4-1.8.1-5.4-.2-5.3-2.2 0-2 3.6-2.1 4.2-2"/><path class="st2" d="M185.2 1.8c2.5.1 4.2.3 4.5 1.4s-1.8 2.1-3.5 2.2c-1.7.1-4.9-.2-4.8-2 .2-1.7 3.3-1.6 3.8-1.6"/><path class="st0" d="M160.2 10.5c.6 0 1.1.5 1.1 1.1 0 .6-.5 1.1-1.1 1.1-.6 0-1.1-.5-1.1-1.1 0-.6.5-1.1 1.1-1.1M186.1 10.3c.6 0 1.1.5 1.1 1.1 0 .6-.5 1.1-1.1 1.1-.6 0-1.1-.5-1.1-1.1 0-.6.5-1.1 1.1-1.1M225.1 1.3c3.8-.8 6.6 0 7 2.1.4 2.1-6.3 16.5-8.1 20.1-.6 1.1-12.7 33-13 33.7-2.3 5.7-2.8 8.6-9.4 8-4.7-.5-3.7-3.8-2.3-6.4 1.4-2.6 20.9-49.1 21.6-52 .9-2.9 1-4.1 4.2-5.5"/><path class="st1" d="M225.5 1.2c3.8-.8 5.6-.3 6 1.7.4 2.1-6.3 16.5-8.1 20.1-.6 1.1-15.3 38.6-15.6 39.3-2.5 3.6-8.9 2.5-8.9-.6 1.3-2.8 21.7-52.2 22.5-55 .6-2.9.9-4.1 4.1-5.5"/><path class="st0" d="M226.3 6.8c5-.6 5.6-2 5.5-3.8-.1-1.7-1.6-2.6-6-1.8-4.3.7-6.1 6 .5 5.6"/><path class="st1" d="M226.4 6.1c5-.6 5.2-1.3 5.1-3.1-.1-1.7-1.4-2.5-5.5-1.7-4 .8-5.6 5.3.4 4.8"/><path class="st0" d="M215.7 2.4c1.9-.8 4.7.1 5.4 2.2.7 2 4.9 13.3 6.4 16 1.5 2.8 6.9 22 8.6 27.1 1.7 5 4.5 12.7 5.2 15 .6 2.3-.9 3.2-3 3.9-2.1.7-6.4.2-6.7-1.1s-3.5-15.4-4.3-19.2c-.8-3.8-8-24.8-12.3-31.7-4.3-6.9-4.1-9.8.7-12.2"/><path class="st1" d="M215.3 3c1.9-.8 3.4-.8 4.1 1.2.7 2 5.6 13.4 7.2 16.2 1.5 2.8 6.9 22 8.6 27.1 1.7 5 3.9 12.4 4.5 14.6.6 2.3-.6 2.7-2.7 3.4-2.1.7-4.8.3-5.1-1-.3-1.3-3.6-14.8-4.4-18.6-.8-3.8-7.9-25-12.2-31.9-4.4-7-3.8-8.8 0-11"/><path class="st0" d="M212.2 6.8c.6 1.3 2.3 1.2 3.6.5 1.3-.7 4.7-2.2 3.5-3.7-2.2-2.8-7.7 1.8-7.1 3.2"/><path class="st1" d="M212.3 6.3c.6 1.3 2.3 1.2 3.6.5 1.3-.7 4-1.9 3.1-3.4-1.8-3.1-7.3 1.6-6.7 2.9"/><path class="st0" d="M241.8 42.5c-1.2-.8-9.7-.9-15.4-1.4-5.8-.5-12.7-3.9-17.4-4.4-4.7-.5-7.8-.2-8.9 0-2.1.4-2.8 7.7 2.7 6.6 5-1 14 1 16.2 3 2.2 2.1 2.9 3.1 3.8 2.7.9-.4 1.4-1 1.9-1.4.5-.4 4.6-.2 7.9 0 3.3.2 7.8 2.1 9.5.7 1.7-1.5 1.4-5.5-.3-5.8"/><path class="st1" d="M241.3 42.5c-1.2-.8-9.4-.7-15.1-1.2-5.8-.5-13-4-17.7-4.5-4.7-.5-7-.2-8.1-.1-2.1.4-3.4 6.6 2.1 5.5 5-1 13.7.8 16.3 2.8 2.6 2 2.6 3.5 3.4 3.1-.2-1.6 1.2-1.8 2.1-1.8.9 0 4.6.3 7.9.5 3.3.2 7.8 2.1 9.5.7 1.9-1.4 1.3-4.7-.4-5"/><path class="st0" d="M242.9 45c-.3-3.4-4.3-3.6-4.1.5.3 4.7 4.2 2.5 4.1-.5"/><path class="st1" d="M243 44.9c-.3-3.3-4.3-3.4-4.1.5.2 4.2 4.2 2.1 4.1-.5"/><path class="st0" d="M210.1 38.7c.6 0 1.1.5 1.1 1.1s-.5 1.1-1.1 1.1c-.6 0-1.1-.5-1.1-1.1s.6-1.1 1.1-1.1M230 43.1c.6 0 1.1.5 1.1 1.1 0 .6-.5 1.1-1.1 1.1-.6 0-1.1-.5-1.1-1.1 0-.6.5-1.1 1.1-1.1M216 18.2c2.7 1.2 6 1.4 7.6 1.3 1.7-.1 2.9-1.7 3.9-1.2s.3.9.1 1.6c-.2.7-2.2 1.2-4.2 1.4-2 .2-6.3-.1-7.3-.5-1-.6-1.8-2.4-.1-2.6"/><path class="st2" d="M216.2 18.2c2.5 1.1 5.7.9 7.3.8 1.5-.1 2.7-1.5 3.7-1.1.9.5.4.8.2 1.4-.2.6-2.1 1-4 1.2-1.9.2-5.8-.1-6.8-.5-1.1-.3-2-1.6-.4-1.8"/><path class="st0" d="M216.3 16.5c2.7 1.2 5.7.8 7.4.7 1.7-.1 2.4-1.9 3.4-1.4s1.1 1.1.9 1.8c-.2.7-2.2 1.7-4.3 1.8-2 .2-6.3-.1-7.3-.5-1-.5-1.8-2.2-.1-2.4"/><path class="st2" d="M216.4 16.6c2.5 1.1 5.7.9 7.3.8 1.5-.1 2.4-2 3.3-1.5.9.5.8 1 .7 1.6-.2.6-2.2 1.4-4.1 1.5-1.9.2-5.8-.1-6.8-.5s-2-1.8-.4-1.9"/><path class="st0" d="M228.9 6c-.1-.3-1-1.7-1.2-1.9.4.3 1.8 1.2 2.1 1.6.1.1 0 .3-.2.4-.1-.1-.7 0-.7-.1M245.5 4c1.5-5.5 17.4-4.8 18.7-.3-.1 19.6-2.1 43.2-.3 58.9-1.6 5.1-13.6 7.2-18.1 1-.3-23.2-3.2-38.1-.3-59.6"/><path class="st3" d="M246.2 3.2l16.6-.3c-.1 19.2-3 37.1-.9 57.7.6 3.7-12.6 7.4-15.4 1.2 0-19.4-2.1-43.8-.3-58.6"/><path class="st0" d="M194.7 39.8c1-3-.4-4.8 1.1-6.1 1.9-1.7.5-3.3-.6-2.5-1.4 1.1-3.6 5.2-3 6 0 .1 2.2 2.6 2.5 2.6M26.9 1.3c3.8-.8 6.6 0 7 2.1.4 2.1-6.3 16.5-8.1 20.1-.6 1.1-12.7 33-13 33.7-2.3 5.7-2.8 8.6-9.4 8-4.7-.5-3.7-3.8-2.3-6.4C2.5 56.2 22 9.7 22.7 6.8c.8-2.9 1-4.1 4.2-5.5"/><path class="st3" d="M26.9 1.6c3.8-.8 6-.7 6.4 1.3C33.7 5 27 19.5 25.2 23c-.6 1.2-15.3 38.6-15.6 39.3-2.5 3.6-8.9 2.5-8.9-.6C2 58.9 22.4 9.5 23.2 6.7c.6-2.9.5-3.7 3.7-5.1"/><path class="st0" d="M28.1 6.8c5-.6 5.6-2 5.5-3.8-.1-1.7-1.6-2.6-6-1.8-4.3.7-6.1 6 .5 5.6"/><path class="st3" d="M27.9 5.9c4.7-.6 4.8-1.3 4.7-2.9-.1-1.6-1.3-2.3-5.1-1.6-3.7.9-5.2 5.1.4 4.5"/><path class="st0" d="M17.5 2.4c1.9-.8 4.6.1 5.4 2.2.7 2 4.9 13.3 6.4 16 1.5 2.8 6.9 22 8.6 27.1 1.7 5 4.5 12.7 5.2 15 .6 2.3-.9 3.2-3 3.9-2.1.7-6.4.2-6.7-1.1-.3-1.3-3.5-15.4-4.3-19.2-.8-3.8-8-24.8-12.3-31.7-4.3-6.9-4.1-9.8.7-12.2"/><path class="st3" d="M17.1 3c1.9-.8 3.4-.8 4.1 1.2.7 2 5.6 13.4 7.2 16.2 1.5 2.8 6.9 22 8.6 27.1 1.7 5 3.9 12.4 4.5 14.6.6 2.3-.6 2.7-2.7 3.4-2.1.7-4.8.3-5.1-1-.3-1.3-3.6-14.8-4.4-18.6-.8-3.8-7.9-25-12.2-31.9-4.4-7-3.8-8.8 0-11"/><path class="st0" d="M14 6.8c.6 1.3 2.3 1.2 3.7.5 1.3-.8 4.8-2.3 3.5-3.8C18.9.6 13.4 5.4 14 6.8"/><path class="st3" d="M14.2 6.2c.6 1.3 2.2 1.1 3.5.4 1.3-.7 3.9-1.8 3-3.3-1.8-2.9-7.1 1.6-6.5 2.9"/><path class="st0" d="M43.6 42.5c-1.2-.8-9.7-.9-15.4-1.4-5.8-.5-12.7-3.9-17.4-4.4-4.7-.5-7.8-.2-8.9 0-2.1.4-2.8 7.7 2.7 6.6 5-1 14 1 16.2 3 2.2 2.1 2.9 3.1 3.8 2.7.9-.4 1.4-1 1.9-1.4.5-.4 4.6-.2 7.9 0 3.3.2 7.8 2.1 9.5.7 1.7-1.5 1.4-5.5-.3-5.8"/><path class="st3" d="M43.1 42.5c-1.2-.8-9.4-.7-15.1-1.2-5.8-.5-13-4-17.7-4.5-4.7-.5-7-.2-8.1-.1-2.1.4-3.4 6.6 2.1 5.5 5-1 13.7.8 16.3 2.8 2.6 2 2.6 3.5 3.4 3.1-.2-1.6 1.2-1.8 2.1-1.8.9 0 4.6.3 7.9.5 3.3.2 7.8 2.1 9.5.7 1.9-1.4 1.3-4.7-.4-5"/><path class="st0" d="M45 45c-.3-3.5-4.4-3.7-4.2.5.4 4.8 4.4 2.5 4.2-.5"/><path class="st3" d="M44.8 44.8c-.2-3-3.9-3-3.7.4.3 3.8 3.9 2 3.7-.4"/><path class="st0" d="M17.8 18.2c2.7 1.2 6 1.4 7.6 1.3 1.7-.1 2.9-1.7 3.9-1.2s.3.9.1 1.6c-.2.7-2.2 1.2-4.2 1.4-2 .2-6.3-.1-7.3-.5-1-.6-1.8-2.4-.1-2.6"/><path class="st2" d="M17.9 18.2c2.5 1.1 5.7.9 7.3.8 1.5-.1 2.7-1.5 3.7-1.1.9.5.4.8.2 1.4-.2.6-2.1 1-4 1.2-1.9.2-5.8-.1-6.8-.5-1-.3-2-1.6-.4-1.8"/><path class="st0" d="M18.1 16.5c2.7 1.2 5.7.8 7.4.7 1.7-.1 2.4-1.9 3.4-1.4s1.1 1.1.9 1.8c-.2.7-2.2 1.7-4.3 1.8-2 .2-6.3-.1-7.3-.5-1-.5-1.8-2.2-.1-2.4"/><path class="st2" d="M18.2 16.6c2.5 1.1 5.7.9 7.3.8 1.5-.1 2.4-2 3.3-1.5.9.5.8 1 .7 1.6-.2.6-2.2 1.4-4.1 1.5-1.9.2-5.8-.1-6.8-.5-1.1-.4-2-1.8-.4-1.9"/><path class="st0" d="M31 5.8c-.1-.3-1.4-1.5-1.6-1.8.4.3 2.1 1.1 2.5 1.4.1.2-.4.5-.5.6-.2 0-.3 0-.4-.2M108.9 4.8l-3 .1 1.8.2zM102.2 7l2-1.5-1.1 1.9z"/><path class="st4" d="M258.7 1c-5.8-1.1-10 0-11.2 1.9-1.3 1.9-.8 3.3 2.2 4.3 3 .9 9.6 1.2 11.1-.9 1.4-2.1 1.9-4-2.1-5.3"/><path class="st0" d="M259.9.5c-7-1.4-12 .1-13.5 2.3s-.9 4 2.6 5.2c3.6 1.1 11.6 1.5 13.3-1.1 1.8-2.5 2.5-4.8-2.4-6.4"/><path class="st3" d="M258.7 1c-5.8-1.1-10 0-11.2 1.9-1.3 1.9-.8 3.3 2.2 4.3 3 .9 9.6 1.2 11.1-.9 1.4-2.1 1.9-4-2.1-5.3"/><path class="st0" d="M47.6 4C49.1-1.4 65-.8 66.3 3.8c-.1 19.6-2.1 43.2-.3 58.9-1.6 5.1-13.6 7.2-18.1 1-.3-23.3-3.2-38.2-.3-59.7"/><path class="st2" d="M48.3 3.2l16.6-.3c-.1 19.2-3 37.1-.9 57.7.6 3.7-12.6 7.4-15.4 1.2 0-19.4-2.1-43.8-.3-58.6"/><path class="st4" d="M60.8 1C55-.1 50.8 1 49.6 2.9c-1.3 1.9-.8 3.3 2.2 4.3 3 .9 9.6 1.2 11.1-.9 1.3-2.1 1.9-4-2.1-5.3"/><path class="st0" d="M62 .5C55-.9 50 .6 48.5 2.8s-.9 4 2.6 5.2c3.6 1.2 11.6 1.5 13.3-1 1.8-2.6 2.4-4.9-2.4-6.5"/><path class="st2" d="M60.8 1C55-.1 50.8 1 49.6 2.9c-1.3 1.9-.8 3.3 2.2 4.3 3 .9 9.6 1.2 11.1-.9 1.3-2.1 1.9-4-2.1-5.3"/><path class="st0" d="M49.4 6c.7-.1 8.1-2.6 7.8-2.4-4.5 2.1-7.1 3.6-7.3 3.4-.1-.3-.9-.8-.5-1M298.8 2.7c5.8-1.5 10.6.3 10.9 2.3 3 21.2 0 37.1 2.8 58.8 0 0-1.1 2.5-7.3 2.3-6.2-.2-7.6-2.8-7.6-2.8s.4-8.5-2.1-18.9c-.3-1.3-.4-5.9-.4-7.2-.1-4.4 2.2-7.2 2.3-10.4 0-13.1-4.7-21.7 1.4-24.1"/><path class="st2" d="M298.9 3.1c5.2-1.5 9.4-.1 9.6 1.9 2.7 21.1-.3 36.2 2.3 57.5 0 0-1 2.4-6.5 2.3-5.5-.2-5.8-2.9-5.8-2.9s0-7.6-2.3-17.9c-.3-1.3 3.8-3.4 3.8-9.1.4-5.1-2.1-5.5-2.1-8.7.2-13-4.5-20.7 1-23.1"/><path class="st0" d="M302.5 2c-2.1.4-5.1.8-5.7 2.8-.6 2 1.6 3.1 4.4 3.4 2.8.3 8.5-.5 7.9-3.5-.5-2.8-5-2.9-6.6-2.7"/><path class="st2" d="M302.1 2.5c-1.7.3-4 .7-4.6 2.3-.5 1.6 1.3 2.5 3.5 2.7 2.2.3 6.8-.4 6.3-2.8-.4-2.4-3.9-2.4-5.2-2.2M297.7 31.3c.9.4 1.1 1.3 1 3-.1 1.7-.7 4.9-1.5 5-.8.2-1.3-1.9-.9-3.6.5-1.7.6-3.9 1.4-4.4"/><path class="st0" d="M337.1 65c4.3-.5 7.7-1.8 5.9-4.7-1.8-2.9-9.7-9.6-12.5-15.1-2.7-5.5-4.4-10.8-2.3-15.9 2.2-5.1 10-18.5 12-20.9 2.1-2.4 1.6-4.5-1.1-5.5s-5.9-1.4-8.6 2.1c-2.7 3.5-12.7 23-14.3 23.5-1.6.5-3.7-3.2-5.4-4.4-1.7-1.2-9.9-2.3-11.5 2-1.6 4.3 9.3 16.3 17.3 27.9 8.2 11.7 9.7 11.8 20.5 11"/><path class="st4" d="M308.5 23.8c-4-.9-6.9 0-7.8 1.6-.9 1.5-.5 2.7 1.5 3.5 2.1.8 6.7 1 7.7-.7 1-1.8 1.4-3.4-1.4-4.4"/><path class="st2" d="M335.3 64.3c4.2-.5 6.3-1.6 4.6-4.5-1.7-2.9-10.1-10.1-12.8-15.6-2.6-5.5-2.6-9.9-.5-15s9.7-18.3 11.7-20.8c2-2.4 2.1-4.6-.2-5.5-2.3-.9-5.1.8-7.4 3.9-2.3 3.1-12.6 22-14.2 22.4-1.6.5-4.9-3.8-6.5-5-1.6-1.2-8.1-2.4-9.7 1.9-1.6 4.3 9.4 15.2 16.5 25.6 7.2 10.4 8 13.4 18.5 12.6"/><path class="st0" d="M336.9 2.7c3.3.1 4 1.3 3.9 2.4-.2 1.2-.8 2.6-4.5 2.6-2 0-4.5-1.5-4.5-2.9 0-1.7 2.4-2.2 5.1-2.1"/><path class="st2" d="M336.9 2.7c2.8.1 3.4 1.1 3.3 2.1-.1 1-.7 2.2-3.8 2.2-1.6 0-3.9-1.3-4-2.4-.2-1 1.9-1.9 4.5-1.9"/><path class="st0" d="M309.4 23.4c-4.9-1.1-8.4 0-9.4 1.9-1.1 1.9-.6 3.3 1.8 4.2 2.5.9 8.1 1.2 9.3-.9 1.2-2.1 1.7-4-1.7-5.2"/><path class="st2" d="M308.5 23.8c-4-.9-6.9 0-7.8 1.6-.9 1.5-.5 2.7 1.5 3.5 2.1.8 6.7 1 7.7-.7 1-1.8 1.4-3.4-1.4-4.4"/><path class="st0" d="M32.7 43c.6 0 1.1.5 1.1 1.2s-.5 1.2-1.1 1.2c-.6 0-1.1-.5-1.1-1.2s.5-1.2 1.1-1.2M12.8 38.9c.6 0 1.1.5 1.1 1.2s-.5 1.2-1.1 1.2c-.6 0-1.1-.5-1.1-1.2s.5-1.2 1.1-1.2M246.7 5.8c.7-.1 8.1-2.6 7.8-2.4-4.5 2.1-7.1 3.6-7.3 3.4-.1-.3-.9-.8-.5-1M307.3 6.2c-.4-.1-5-1.1-4.8-1.1 2.5 1.2 4 2 4.1 1.9.1-.1 1-.7.7-.8M63.6 9.5c2.1-2.2 3.4-.7 3.9-1.9.1 0 2-.7 2-.7 1.2-1.7 2-.1 5.2-1l.2-.1c2.9-.8 1.4.9 5.2 1.1.3 0 2.9 1 3 1.1 2.8 3.3.1.9 3.5 1.3.6.1 1.7.8 1.7 1.5h-.2c.1.4.3.6.5 1 1.4.1 3.3 3.7 3.8 5 1 2.5.1.8.4 2.1.4 1.8.5-1.4.5 2 0 1.1 1.9 1.2.6 3-.3.5 1 1.2.3 3.5-.7 2.6-.5 1.7-.7 4-.1.8-1.3 1.9-.8 4.1 0 0-1 1.6-1.8 1.9-1 .5.6 1.6-2.2 2.5-1 .3-.4 2.3-2.3 2.6-.1 0-.1.1-.1.1-.3.7-1 1.9-1 2-1.3.3-6 2.4-6.1 2.4-1.6 0-4.5.4-4.5.4-2.7-.2-4 .8-4.5.7-1.3-.3 1.8-1.8-3.6-1.3h-.1c-1.1.1-.3-.8-2.9-1.8-3.9-1.5-1.8-2-2.7-2.3-1-.4-3.6 2.1-3.5-3.2v-.2c-.5-2.5-3.3-1.9-3.2-5 0-.2-.1-.4-.1-.5-.5-1.7-2.6-.4-.6-3.8 1-1.6-2.1-1.2-.1-5.4 2.7-5.7-2.3-1.3 1.5-6 1.7-2-1.2-3.1 2-4.9 2.2-1.3-.3-1.5 3.1-2.7.1 0 .9-.5.9-.5v-.1c.4-.1 2.5-.8 2.7-.9"/><path class="st2" d="M73.6 8.4c5 0 9.2 2.3 13.1 5.3 3.8 3 5.8 8.1 5.1 12.9-.7 4.8-2 9.6-5.3 12.9-3.3 3.3-7.8 5.2-13 4.8-5.2-.4-9.5-1.5-12.8-4.8-3.3-3.3-5.3-7.8-5.3-12.9 0-5 2-10.5 6.1-13.3 4.2-2.8 7.1-4.9 12.1-4.9"/><path class="st0" d="M65.4 10c.8 1.1 4.5 10.5 6.6 13.6-1.7-2.2-7.9-11.7-8.6-12.2-.3-.3-.2-.8.1-1 .2-.3 1.6-.7 1.9-.4M62 33.5c.6 0 1.1.5 1.1 1.1 0 .6-.5 1.1-1.1 1.1-.6 0-1.1-.5-1.1-1.1 0-.7.5-1.1 1.1-1.1M58.7 24.5c.6 0 1.1.5 1.1 1.1 0 .6-.5 1.1-1.1 1.1-.6 0-1.1-.5-1.1-1.1 0-.6.5-1.1 1.1-1.1M62.3 15.4c.6 0 1.1.5 1.1 1.1 0 .6-.5 1.1-1.1 1.1-.6 0-1.1-.5-1.1-1.1 0-.6.5-1.1 1.1-1.1M262.1 9.5c2.1-2.2 3.4-.7 3.9-1.9.1 0 2-.7 2-.7 1.2-1.7 2-.1 5.2-1l.2-.1c2.9-.8 1.4.9 5.2 1.1.3 0 2.9 1 3 1.1 2.8 3.3.1.9 3.5 1.3.6.1 1.7.8 1.7 1.5h-.2c.1.4.3.6.5 1 1.4.1 3.3 3.7 3.8 5 1 2.5.1.8.4 2.1.4 1.8.5-1.4.5 2 0 1.1 1.9 1.2.6 3-.3.5 1 1.2.3 3.5-.7 2.6-.5 1.7-.7 4-.1.8-1.3 1.9-.8 4.1 0 0-1 1.6-1.8 1.9-1 .5.6 1.6-2.2 2.5-1 .3-.4 2.3-2.3 2.6-.1 0-.1.1-.1.1-.3.7-1 1.9-1 2-1.4.4-6.1 2.4-6.2 2.4-1.6 0-4.5.4-4.5.4-2.7-.2-4 .8-4.5.7-1.3-.3 1.8-1.8-3.6-1.3h-.1c-1.1.1-.3-.8-2.9-1.8-3.9-1.5-1.8-2-2.7-2.3-1-.4-3.6 2.1-3.5-3.2v-.2c-.5-2.5-3.3-1.9-3.2-5 0-.2-.1-.4-.1-.5-.5-1.7-2.6-.4-.6-3.8 1-1.6-2.1-1.2-.1-5.4 2.7-5.7-2.3-1.3 1.5-6 1.7-2-1.2-3.1 2-4.9 2.2-1.3-.3-1.5 3.1-2.7.1 0 .9-.5.9-.5v-.1c.5-.1 2.6-.8 2.8-.9"/><path class="st3" d="M272.1 8.4c5 0 9.2 2.3 13.1 5.3 3.8 3 5.8 8.1 5.1 12.9-.7 4.8-2 9.6-5.3 12.9-3.3 3.3-7.8 5.2-13 4.8-5.2-.4-9.5-1.5-12.8-4.8-3.3-3.3-5.3-7.8-5.3-12.9 0-5 2-10.5 6.1-13.3 4.2-2.8 7.1-4.9 12.1-4.9"/><path class="st0" d="M263.9 10c.8 1.1 4.5 10.5 6.6 13.6-1.7-2.2-7.9-11.7-8.6-12.2-.3-.3-.2-.8.1-1 .3-.3 1.6-.7 1.9-.4M260.5 33.5c.6 0 1.1.5 1.1 1.1 0 .6-.5 1.1-1.1 1.1-.6 0-1.1-.5-1.1-1.1 0-.7.5-1.1 1.1-1.1M257.3 24.5c.6 0 1.1.5 1.1 1.1 0 .6-.5 1.1-1.1 1.1-.6 0-1.1-.5-1.1-1.1 0-.6.4-1.1 1.1-1.1M260.8 15.4c.6 0 1.1.5 1.1 1.1 0 .6-.5 1.1-1.1 1.1-.6 0-1.1-.5-1.1-1.1 0-.6.5-1.1 1.1-1.1M309.8 31.8c.6 0 1.1.5 1.1 1.1 0 .6-.5 1.1-1.1 1.1-.6 0-1.1-.5-1.1-1.1 0-.6.5-1.1 1.1-1.1"/></svg>