<svg id="Слой_1" xmlns="http://www.w3.org/2000/svg" viewBox="0 0 437 475.9"><style>.st0{fill:#2e6339}</style><path class="st0" d="M205.3 288.2v-27.6c0-.9-.1-1.6-.3-2.1-.2-.4-.6-.7-1.3-.7-.7 0-1.3.4-1.7 1.1l-.6.9c-.2.3-.5.5-.8.5-.9 0-1.3-.6-1.3-1.8 0-.6 0-1.3.1-2.1.1-.7.1-1.4.2-2 .1-.6.1-1.3.1-2.1V246c0-.5.1-1 .4-1.3.2-.3.7-.5 1.5-.5.9 0 1.8.1 2.9.3 1.1.2 2.7.3 5 .3 2.7 0 4.3-.1 4.9-.3.6-.2 1.7-.3 3.3-.3.6 0 1.1.2 1.3.5.2.3.4.7.4 1.1v5c0 2.1 0 3.7.1 4.8.1 1.1.2 2.1.3 3.1 0 1.1-.4 1.6-1.3 1.6-.4 0-.7-.2-1-.6-.3-.5-.5-.9-.7-1.1-.4-.7-1-1-1.7-1-.6 0-1.1.3-1.4.8-.3.5-.4 1.6-.4 3.2v24.7c0 1 0 1.9.1 2.8.1.9.3 1.7.5 2.4s.4 1.3.6 1.7c.1.4.2.8.2 1.1 0 .5-.1.9-.4 1.1-.2.2-.6.3-1 .3l-1.9-.2-2.1-.1c-.7 0-1.4.1-2.1.1-.7.1-1.2.1-1.5.1-1.1 0-1.7-.5-1.7-1.4 0-.4.1-.7.2-1 .4-1 .6-1.8.7-2.2.4-.3.4-1.3.4-2.8zM223.6 283.2v-29c0-.8-.1-1.8-.2-3.1s-.3-2.2-.6-2.9c-.2-.7-.4-1.3-.6-1.8s-.2-.9-.2-1.2c0-.6.5-1 1.6-1l1.7.2 2.4.2c.8 0 1.5 0 2.2-.1.7-.1 1.3-.2 1.9-.3.7 0 1.1.4 1.1 1.1 0 .7-.1 1.3-.3 1.9-.2.6-.4 1.1-.5 1.5-.1.4-.2 1.3-.4 2.6-.1 1.3-.2 2.4-.2 3.2v6.7c0 2.1.3 3.2.8 3.2s1.2-.2 2.1-.6c.8-.4 2-.6 3.5-.6 1.9 0 3.4.5 4.5 1.4 1.8 1.5 2.6 4 2.6 7.4v13c0 3.9-1 6.8-2.9 8.5-1.5 1.4-3.6 2.1-6.1 2.1-1.8 0-3.2-.1-4.1-.2-.9-.1-2.1-.2-3.6-.2s-2.6.1-3.3.2c-.7.1-1.2.2-1.5.2-1 0-1.5-.5-1.5-1.5 0-.9.1-1.9.4-2.8.9-2.3 1.2-5 1.2-8.1zm8.1-5.9v5.7c0 1.8.2 3 .5 3.6.3.6 1 1 1.9 1 1.5 0 2.5-.8 2.8-2.3.1-.7.2-1.4.2-2.3v-6.1c0-1.1-.1-1.9-.3-2.4-.4-1.1-1.3-1.6-2.6-1.6-1.1 0-1.8.4-2.1 1.3-.3.7-.4 1.8-.4 3.1zM248 286v-32.2c0-1 0-1.9-.1-2.6-.1-.7-.2-1.5-.5-2.5s-.5-1.6-.6-1.8c-.3-.8-.4-1.3-.4-1.4 0-.8.5-1.3 1.4-1.3.6 0 1.4 0 2.5.1s1.8.1 2.3.1c2.1-.2 3.4-.3 3.9-.3.7 0 1.1.3 1.1 1 0 .6-.1 1.3-.4 1.8-.7 1.5-1.1 3.8-1.1 6.9v29.8c0 1.6 0 2.7.1 3.4 0 .7.3 2 .6 3.9.1.7.3 1.4.5 2.1.2.7.3 1.2.3 1.5 0 .8-.4 1.2-1.3 1.2-.4 0-.9-.1-1.2-.2s-1.2-.2-2.6-.2c-1.4 0-2.2.1-2.4.2-.2.1-.9.2-1.9.2-.5 0-.9-.1-1.1-.4-.2-.3-.3-.6-.3-1.1 0-.3.2-1.7.7-4.2.3-1.2.5-2.6.5-4zM261.6 288.2v-34.7c0-2.3-.2-3.8-.5-4.5-.3-.7-.5-1.8-.5-3.2 0-.4.1-.8.4-1.1.3-.3.7-.5 1.4-.5s1.3 0 1.8.1 1 .1 1.4.1c1.1 0 2 0 2.5-.1s1.2-.1 1.8-.1c.3 0 .6.1.8.2.3.1.4.5.4 1-.3 1.1-.7 2.2-1 3.4-.3 1.1-.5 2.1-.5 3.1 0 1.2.3 2.2.8 2.8.5.7 1.2 1 1.9 1 .9 0 1.5-.4 1.9-1.2.4-.8.6-1.7.6-2.6 0-.6-.1-1.2-.2-1.6-.1-.4-.4-1.2-.9-2.2-.3-.6-.5-1-.7-1.3-.1-.3-.2-.6-.2-.8 0-.4.1-.7.2-1 .3-.5.9-.7 1.7-.7.7 0 1.3 0 1.8.1s.9.1 1.3.1c.5 0 1.1 0 1.8-.1.6-.1 1.2-.1 1.6-.1.7 0 1.2.2 1.7.7.4.5.6 1.5.6 3.1s-.3 3.3-.9 5.1c-.4 1.2-1 2.5-1.8 4-.5 1-1.1 2-1.6 2.9-.4.9-.6 1.8-.6 2.8 0 1.8.4 4.9 1.2 9.5.8 4.5 1.6 8.1 2.3 10.7.7 2.6 1.6 5.2 2.5 7.9.6 1.7 1 2.8 1 3.2 0 1.1-.4 1.6-1.1 1.6h-7c-1.2 0-2-1.5-2.5-4.6-.5-3.1-.9-6.4-1.4-10-.5-3.6-.9-6.4-1.2-8.5-.6-3.8-1.2-5.7-1.8-5.7-.3 0-.6.5-.9 1.5-.2 1-.4 2.6-.4 4.9v7.1c0 2 .1 3.9.3 5.7.2 1.9.4 3.5.8 4.8.2.7.4 1.5.7 2.2.3.8.4 1.2.4 1.4 0 .4-.1.7-.4.9-.3.2-.6.3-1 .3-.2 0-.6 0-1.3-.1-.7-.1-1.5-.1-2.4-.1-.8 0-1.6 0-2.2.1-.6.1-1.3.1-2 .2-.5 0-.8-.2-1-.5-.2-.3-.3-.8-.3-1.4 0-.3 0-1.2.1-2.7.5-1.6.6-2.7.6-3.1zM288.1 284.2v-25c0-5.5.9-9.5 2.6-11.9 1.7-2.5 4.5-3.7 8.1-3.7 3.9 0 6.6 1.5 8.2 4.5 1 2 1.5 4.5 1.5 7.5v27.8c0 4-.9 7.1-2.6 9.4-1.7 2.3-4.2 3.5-7.4 3.5-3.3 0-5.9-1-7.7-3.1-1.8-2.1-2.7-5.1-2.7-9zm8.1-24.7V283c0 1.3.2 2.2.5 2.8.3.5.9.8 1.5.8.7 0 1.3-.3 1.7-.9.4-.6.6-1.6.6-2.9v-23.6c0-1.1-.1-1.9-.2-2.4-.3-.9-.9-1.4-1.9-1.4-1 0-1.6.4-1.8 1.1-.3.7-.4 1.7-.4 3zM313.5 281.1v-22c0-1.4 0-2.8-.1-4.2 0-1.4-.1-2.8-.1-4.1-.1-.9-.2-1.8-.3-2.6-.1-.8-.1-1.4-.1-1.9 0-.8.2-1.4.5-1.7.3-.3.8-.4 1.4-.4h3l3.1.2c1.1 0 2 0 2.9-.1.9 0 1.7-.1 2.5-.1 2.2 0 3.9 1.3 5.2 3.8 1.2 2.5 1.8 5.8 1.8 9.9 0 2-.1 3.7-.4 5.2-.2 1.4-.8 2.7-1.6 3.9-.2.3-.5.7-.8 1.1-.3.4-.5.8-.5 1 0 .3.2.9.7 1.7.5.8.8 1.4 1 1.7.8 1.6 1.5 3.5 2 5.6.5 2.1.7 4.2.7 6.3 0 3.1-.7 5.8-2.1 7.9-1.5 2.4-3.6 3.5-6.3 3.5-.3 0-1-.1-2.1-.2s-2.4-.2-3.9-.2c-2 0-3.4 0-4 .1-.7.1-1.3.2-1.9.2-.7 0-1.2-.2-1.5-.6-.2-.4-.4-.8-.4-1.3.3-1.5.6-3.1.8-5 .3-1.8.5-4.4.5-7.7zm8.1-24.1v2.7c0 1 .2 1.8.7 2.2.5.4 1.1.7 1.7.7.7 0 1.2-.3 1.5-1 .3-.7.5-1.8.5-3.3 0-1.4-.2-2.4-.7-3s-1.1-.9-1.8-.9-1.3.2-1.5.7c-.3.5-.4 1.1-.4 1.9zm0 17.4V285c0 .8.1 1.5.3 1.9.2.5.8.7 1.8.7.9 0 1.5-.2 1.8-.5.5-.6.8-1.9.8-3.8 0-2.4-.5-4.8-1.4-7.2-1-2.4-1.8-3.6-2.6-3.6-.3 0-.5.2-.6.5-.1.4-.1.8-.1 1.4zM338 276.3v-11c0-7.9 1-13.6 2.9-17 1.8-3.1 4.7-4.7 8.5-4.7 1.9 0 3.5.2 4.8.7 1.3.4 2 1.2 2 2.1 0 .1-.1.7-.2 1.6-.1.9-.2 2.1-.2 3.6 0 1.1 0 2 .1 2.7 0 .7.1 1.5.2 2.2 0 1-.2 1.7-.5 2.1-.3.4-.7.7-1 .7s-.6-.1-.9-.2c-.2-.1-.6-.5-1.2-1.1-.5-.6-.9-.9-1.2-1.1-.5-.3-1.1-.4-1.8-.4-1.6 0-2.6.8-3 2.3-.4 1.5-.6 4.1-.6 7.6v6.9c0 4.1.2 6.9.5 8.4.6 2.7 2 4 4.1 4 .7 0 1.2-.1 1.7-.4.4-.3.8-.7 1.2-1.1.4-.7 1-1 1.5-1 .4 0 .7.2.8.5.1.3.2.7.2 1.1l-.1 3.7.1 3.7c0 1.2-.3 2.1-.9 2.7-1 1-2.8 1.5-5.5 1.5-3.6 0-6.4-1.3-8.3-3.8-2-3.1-3.2-8.5-3.2-16.3zM360.2 288.2v-34.7c0-2.3-.2-3.8-.5-4.5-.3-.7-.5-1.8-.5-3.2 0-.4.1-.8.4-1.1.3-.3.7-.5 1.4-.5s1.3 0 1.8.1 1 .1 1.4.1c1.1 0 2 0 2.5-.1s1.2-.1 1.8-.1c.3 0 .6.1.8.2.3.1.4.5.4 1-.3 1.1-.7 2.2-1 3.4-.3 1.1-.5 2.1-.5 3.1 0 1.2.3 2.2.8 2.8.5.7 1.2 1 1.9 1 .9 0 1.5-.4 1.9-1.2.4-.8.6-1.7.6-2.6 0-.6-.1-1.2-.2-1.6-.1-.4-.4-1.2-.9-2.2-.3-.6-.5-1-.7-1.3-.1-.3-.2-.6-.2-.8 0-.4.1-.7.2-1 .3-.5.9-.7 1.7-.7.7 0 1.4 0 1.8.1.5.1.9.1 1.3.1.5 0 1.1 0 1.8-.1.6-.1 1.2-.1 1.6-.1.7 0 1.2.2 1.7.7.4.5.6 1.5.6 3.1s-.3 3.3-.9 5.1c-.4 1.2-1 2.5-1.8 4-.5 1-1.1 2-1.6 2.9-.4.9-.6 1.8-.6 2.8 0 1.8.4 4.9 1.2 9.5.8 4.5 1.6 8.1 2.3 10.7s1.6 5.2 2.5 7.9c.6 1.7 1 2.8 1 3.2 0 1.1-.4 1.6-1.1 1.6h-7c-1.2 0-2-1.5-2.5-4.6-.5-3.1-.9-6.4-1.4-10-.5-3.6-.9-6.4-1.2-8.5-.6-3.8-1.2-5.7-1.8-5.7-.3 0-.6.5-.9 1.5-.2 1-.4 2.6-.4 4.9v7.1c0 2 .1 3.9.3 5.7.2 1.9.4 3.5.8 4.8.2.7.4 1.5.7 2.2.3.8.4 1.2.4 1.4 0 .4-.1.7-.4.9-.3.2-.6.3-1 .3-.2 0-.6 0-1.3-.1-.7-.1-1.5-.1-2.4-.1-.8 0-1.6 0-2.2.1-.6.1-1.3.1-2 .2-.5 0-.8-.2-1-.5-.2-.3-.3-.8-.3-1.4 0-.3 0-1.2.1-2.7.6-1.6.6-2.7.6-3.1zM387.2 282.7v-28.9c0-2.7-.1-4.6-.3-5.8-.3-.9-.6-1.9-.9-2.8 0-.4.1-.7.4-.8.3-.1.6-.1 1.1-.1.6 0 1.2 0 1.7.1.6.1 1.3.1 2 .1h1.7c.5 0 .8 0 1.1-.1l1.9-.2c.7 0 1.1.3 1.1 1 0 .3-.1.7-.4 1.2-.5.9-.7 1.4-.7 1.4-.3.6-.5 1.4-.6 2.4-.1 1-.1 1.8-.1 2.5v9.8c.2 0 .5 0 .7-.1.4-.5 1.3-1.9 2.6-4.3s2.2-4.1 2.6-5.1c.4-1 .6-2.1.6-3.3 0-.7 0-1.3-.1-1.7s-.2-.9-.4-1.4c-.3-.8-.5-1.3-.5-1.5 0-.6.5-1 1.4-1 .9 0 1.5 0 1.8.1.3.1.9.1 1.6.1.7 0 1.3 0 1.8-.1s1.4-.1 2.9-.1c.3 0 .6 0 .9.1.3.1.4.3.4.7-.3 1.1-.7 2.3-.9 3.6-.3 1.3-.4 2.7-.4 4.3v29.3c0 2.7.1 4.7.2 6.1.1 1.4.2 2.4.4 3 .2.6.4 1.1.4 1.4.3 1 .4 1.7.4 2.1 0 .4-.2.7-.5.8-.3.1-.6.2-1 .2-1.4 0-2.3-.1-2.7-.2-.4-.1-.9-.2-1.5-.2-.9 0-1.6.1-2 .2s-1 .2-1.8.2c-.5 0-.8-.1-1-.4-.2-.3-.3-.6-.3-.9 0-.2.1-.6.3-1.1s.4-1.1.6-1.7c.2-.6.3-1.5.4-2.8.1-1.3.1-2.5.1-3.5v-14.6c-.1-.3-.2-.5-.3-.5-.3 0-.8.6-1.4 1.8-.7 1.2-1.5 2.8-2.6 5-.5 1.1-1 2.1-1.4 3.1-.8 2-1.3 3.8-1.3 5.4 0 1.4 0 2.5.1 3.1.1.7.2 1.4.5 2.2.3.8.5 1.5.8 2.2.2.7.4 1.1.4 1.4 0 .9-.5 1.4-1.6 1.4-1 0-1.6 0-1.8-.1-.2-.1-.9-.1-2.2-.1-1 0-1.7.1-2.1.1-.4.1-1 .1-1.8.1-1 0-1.5-.4-1.5-1.2 0-.3.1-.7.2-1.2s.3-1.1.4-1.9c.2-.7.3-2.1.4-4.2.2-2 .2-3.6.2-4.6zM416 284.4v-29.5c0-3.3-.2-5.3-.6-5.9-.4-.6-.6-1.6-.6-2.9 0-.5.2-.9.6-1.3.4-.4 1.1-.6 2.2-.6.5 0 1.4.1 2.7.2 1.3.1 2.7.2 4.4.2 2.9 0 4.8-.1 5.7-.2.9-.1 1.5-.2 2-.2s.9.1 1.3.4c.4.3.6.9.6 1.7 0 .3-.1 1.1-.1 2.3-.1 1.2-.1 2.5-.1 3.8v2c0 .6.1 1.3.3 2 .2.7.3 1.3.3 1.7 0 1.5-.6 2.3-1.8 2.3-.5 0-1-.3-1.5-1-.3-.4-.7-.8-1-1.2-.9-1-2-1.5-3.1-1.5-1 0-1.8.3-2.4 1-.6.6-.9 1.5-.9 2.6 0 .6.1 1.1.2 1.4.5 1.1 1.8 1.6 3.7 1.6.4 0 1.1 0 2-.1 1-.1 1.5-.1 1.6-.1 1.3 0 2.2.3 2.9 1 .5.5.7 1.2.7 2.1 0 .7-.3 1.4-.8 2.1-.6.7-1.4 1-2.6 1h-5.8c-.6 0-1 .2-1.4.7-.3.4-.5 1.2-.5 2.4v11.2c0 1.6.2 2.7.7 3.2.3.3.9.5 1.8.5 1 0 1.9-.1 2.6-.2.7-.1 1.5-.6 2.4-1.3.2-.2.7-.6 1.3-1.3.4-.4.8-.7 1.3-.7.8 0 1.3.6 1.3 1.7 0 1 0 1.7-.1 2.1-.1.4-.1.9-.1 1.6l.1 2.2.1 2.1c0 .8-.1 1.3-.4 1.6-.4.5-1.1.7-2.2.7-3.4 0-5.3 0-5.8-.1-1.9-.2-3.6-.3-4.9-.3-2 0-3.2.1-3.6.2-.4.1-1.1.2-2.1.2s-1.5-.4-1.5-1.3c0-.3.1-.7.3-1.3.2-.6.3-1.4.5-2.3.2-1 .3-2 .3-3.2-.1-1.3-.1-2.4 0-3.3z"/><g><path class="st0" d="M242.7 328.3v56.1c0 4.8.1 7.9.3 9.2.2 1.3.5 2.2 1.1 2.7.3.2 1 .5 2.1.8 1.1.4 1.7 1.3 1.7 2.8l-.3 6.2.1 4.8.1 3c0 1.3-.2 2.2-.5 2.8-.4.5-1 .8-2 .8-1.2 0-2.1-.7-2.8-2-2.3-4.2-3.8-6.6-4.5-7.2-.8-.6-2.6-1.1-5.5-1.5-2.9-.4-6.4-.6-10.7-.6-4.1 0-7 .3-9 .9-1.9.6-3.6 2.1-5.1 4.5-.9 1.9-1.5 3.2-1.9 4-.7 1.3-1.7 2-2.8 2-.9 0-1.6-.3-2.2-.9-.5-.6-.8-1.3-.8-2.2 0-.3.1-1.1.3-2.5.2-1.4.3-3.2.3-5.2 0-1.9-.1-3.3-.3-4.1-.2-.8-.3-1.9-.3-3.1 0-1.1.3-1.9.8-2.3.9-.4 1.7-.7 2.5-1 .8-.3 1.4-1.2 1.8-2.6.4-1.5 1.2-10.7 2.4-27.7s1.8-28.4 1.8-34.3c0-5.3-.2-9.1-.5-11.3-.8-5.2-1.2-8.7-1.2-10.5 0-1.2.3-2 .9-2.2.6-.2 1.3-.4 2.1-.4l15.3.7c5.2 0 8.3 0 9.3-.1 3.9-.4 6.4-.6 7.6-.6 1.8 0 2.7.8 2.7 2.3 0 .4-.2 1.1-.5 2.3s-.7 2.5-1 4.2c-.4 1.7-.7 3.7-.9 5.9-.3 2.2-.4 4.3-.4 6.3zm-14.9 56v-51.1c0-2.5-.9-3.8-2.7-3.8-1.4 0-2.3.8-2.7 2.5s-.5 5.4-.5 11.2c0 8-.2 13.5-.5 16.5-.8 6.7-1.2 10.8-1.2 12.4 0 4.4-.2 7.5-.5 9.3-.3 1.8-.6 3.3-.7 4.7 0 1.7.4 2.9 1.1 3.7.7.8 1.9 1.1 3.6 1.1 1.9 0 3.1-.5 3.5-1.6.4-.9.6-2.6.6-4.9zM254.2 378.1v-42.3c0-2.7 0-5.4-.1-8.1-.1-2.7-.2-5.3-.3-7.8-.2-1.8-.4-3.5-.5-5-.2-1.6-.3-2.8-.3-3.6 0-1.6.3-2.7.9-3.2.6-.5 1.5-.8 2.6-.8h5.5l5.7.4c2 0 3.8 0 5.3-.1 1.6-.1 3.1-.2 4.7-.3 4.1 0 7.2 2.4 9.5 7.3s3.4 11.2 3.4 19c0 3.9-.2 7.2-.7 10-.5 2.8-1.4 5.3-3 7.4-.5.6-1 1.3-1.6 2.1-.6.8-.9 1.5-.9 1.8 0 .6.4 1.7 1.4 3.3.9 1.6 1.5 2.7 1.8 3.3 1.5 3.1 2.7 6.7 3.6 10.7.9 4.1 1.4 8.1 1.4 12.2 0 6-1.3 11.1-3.8 15.1-2.8 4.5-6.7 6.8-11.6 6.8-.5 0-1.8-.1-3.9-.4-2-.2-4.4-.4-7.1-.4-3.7 0-6.2.1-7.4.3-1.3.2-2.4.3-3.5.4-1.4 0-2.3-.4-2.7-1.1-.5-.7-.7-1.5-.7-2.5.5-2.8 1.1-6 1.6-9.6.4-3.5.7-8.5.7-14.9zm14.8-46.3v5.3c0 2 .4 3.4 1.4 4.3.9.9 1.9 1.3 3.1 1.3 1.3 0 2.2-.7 2.8-2 .6-1.3.9-3.4.9-6.3 0-2.7-.4-4.6-1.2-5.7-.8-1.1-1.9-1.7-3.4-1.7-1.4 0-2.3.5-2.8 1.4-.5.8-.8 1.9-.8 3.4zm0 33.4v20.4c0 1.6.2 2.8.6 3.7.4.9 1.5 1.3 3.3 1.3 1.6 0 2.7-.3 3.2-1 1-1.2 1.5-3.7 1.5-7.3 0-4.6-.9-9.2-2.6-13.8-1.8-4.6-3.4-6.9-4.8-6.9-.5 0-.9.3-1 1-.1.8-.2 1.6-.2 2.6zM300.2 384.5v-56.7c0-6.4-.3-10.2-1-11.3-.7-1.1-1-3-1-5.7 0-.9.4-1.8 1.1-2.5.8-.7 2.1-1.1 4-1.1 1 0 2.7.1 5 .4 2.3.2 5 .4 8.1.4 5.4 0 8.9-.1 10.5-.4 1.6-.2 2.8-.4 3.7-.4.9 0 1.7.3 2.4.8.7.6 1 1.7 1 3.3 0 .6-.1 2-.3 4.4-.2 2.4-.3 4.8-.3 7.2 0 1.3 0 2.6.1 3.8 0 1.2.2 2.5.5 3.9s.5 2.4.5 3.2c0 2.9-1.1 4.4-3.2 4.4-.9 0-1.8-.6-2.8-1.8-.6-.8-1.2-1.5-1.8-2.3-1.7-1.9-3.6-2.8-5.7-2.8-1.8 0-3.2.6-4.3 1.8-1.1 1.2-1.6 2.9-1.6 5 0 1.2.1 2.1.4 2.7 1 2.1 3.2 3.1 6.8 3.1.7 0 2-.1 3.7-.3 1.8-.2 2.7-.3 2.9-.3 2.3 0 4.1.7 5.3 2 .9 1 1.4 2.4 1.4 4 0 1.4-.5 2.8-1.6 4-1 1.3-2.6 1.9-4.8 1.9h-10.7c-1.1 0-1.9.4-2.5 1.3-.6.8-.9 2.4-.9 4.5v21.5c0 3.1.4 5.1 1.4 6.1.6.7 1.7 1 3.2 1 1.9 0 3.5-.1 4.9-.4 1.4-.3 2.8-1.1 4.3-2.4.4-.4 1.2-1.2 2.3-2.4.7-.8 1.5-1.3 2.3-1.3 1.5 0 2.3 1.1 2.3 3.3 0 1.9-.1 3.2-.3 4-.2.8-.3 1.8-.3 3.1l.1 4.2.1 4.1c0 1.5-.2 2.5-.7 3.1-.7.9-2.1 1.4-4.1 1.4-6.2 0-9.8 0-10.7-.1-3.5-.4-6.5-.6-9.1-.6-3.6 0-5.8.1-6.6.4-.8.2-2 .4-3.9.4-1.8 0-2.7-.8-2.7-2.5 0-.6.2-1.4.5-2.5s.6-2.6.9-4.5c.3-1.8.5-3.9.6-6.2.5-2.4.5-4.4.6-6.2zM343.2 373.6v-37.5c0-7.9-.2-13.7-.5-17.4-.3-3.7-.5-6.2-.5-7.5 0-1.4.4-2.4 1.1-3 .8-.6 1.9-.9 3.4-.9 13.8 0 23.1 2.5 27.8 7.6 4.8 5.1 7.2 14.6 7.2 28.6 0 12.8-2.1 22.2-6.3 28-2.9 4-6.8 6.4-11.9 7.4-2.8.5-4.4.9-4.9 1.2-.5.3-.7 1.5-.7 3.5 0 3.1.3 6 1 8.6.7 2.6 1.8 5 3.3 6.9 1.2 1.5 1.8 2.4 2 2.8.1.3.2 1 .2 1.9 0 1.7-.9 2.5-2.7 2.5l-4.5-.4-4.9-.3c-2.3 0-4 .1-5 .4-1 .2-2 .4-3 .4-1.4 0-2.4-.4-2.8-1.2-.4-.8-.6-1.4-.6-1.9 0-2.5.2-4.8.5-6.8 1.3-5.5 1.8-13.1 1.8-22.9zm14.9-24.9c0 5.4.1 8.7.3 9.9.5 3.5 1.7 5.2 3.5 5.2 1.4 0 2.7-1.2 3.6-3.7 1-2.5 1.5-6.5 1.5-12 0-4.4-.5-8-1.6-10.6-1.1-2.6-2.4-4-3.9-4-1.7 0-2.7 1.5-3 4.4-.3 2.9-.4 5.7-.4 8.3v2.5zM389.5 381.2v-55.6c0-5.1-.2-8.8-.6-11.2-.6-1.8-1.1-3.6-1.7-5.4 0-.8.2-1.4.7-1.6.5-.2 1.2-.3 2.1-.3 1.1 0 2.1.1 3.2.3 1.1.2 2.3.3 3.7.3h3.2c.9 0 1.6 0 2-.1l3.5-.4c1.3 0 2 .6 2 1.8 0 .7-.2 1.4-.6 2.3-.9 1.7-1.3 2.6-1.3 2.7-.5 1.2-.9 2.8-1 4.7-.2 1.9-.3 3.5-.3 4.8v18.8c.4 0 .9 0 1.4-.1.7-.9 2.3-3.7 4.7-8.2 2.4-4.5 4-7.8 4.8-9.8.8-2 1.1-4.1 1.1-6.4 0-1.3-.1-2.4-.3-3.3-.2-.8-.4-1.7-.8-2.7-.6-1.5-.8-2.4-.8-2.8 0-1.2.9-1.8 2.6-1.8 1.6 0 2.7.1 3.3.3.6.2 1.6.3 2.9.3 1.3 0 2.4-.1 3.3-.3.9-.2 2.6-.3 5.3-.3.5 0 1 0 1.6.1.5.1.8.5.8 1.3-.6 2.2-1.2 4.5-1.7 7s-.7 5.3-.7 8.3v56.3c0 5.1.1 9 .3 11.7.2 2.7.4 4.6.7 5.7.4 1.2.6 2.1.7 2.7.5 1.9.7 3.2.7 4 0 .8-.3 1.4-.9 1.6-.6.2-1.2.4-1.8.4-2.6 0-4.3-.1-4.9-.4-.7-.2-1.6-.4-2.8-.4-1.7 0-2.9.1-3.6.4-.7.2-1.8.4-3.2.4-.9 0-1.5-.3-1.9-.8-.4-.5-.6-1.1-.6-1.8 0-.4.2-1.1.6-2.1.4-1 .8-2.1 1.1-3.3.3-1.1.6-2.9.7-5.4.2-2.4.3-4.7.3-6.8v-28c-.2-.7-.4-1-.5-1-.5 0-1.4 1.1-2.6 3.4-1.2 2.3-2.8 5.5-4.8 9.6-.9 2.1-1.8 4.1-2.6 5.9-1.5 3.8-2.3 7.2-2.3 10.3 0 2.7.1 4.7.2 6 .1 1.3.4 2.7.9 4.2s1 2.9 1.4 4.2c.4 1.3.7 2.2.7 2.8 0 1.8-1 2.7-3 2.7-1.8 0-2.9-.1-3.2-.3-.4-.2-1.7-.3-4.1-.3-1.9 0-3.2.1-3.9.3-.7.2-1.8.3-3.4.3-1.9 0-2.8-.8-2.8-2.3 0-.6.1-1.3.3-2.3.2-1 .5-2.2.8-3.6.3-1.4.6-4.1.8-8 .2-3.8.3-6.8.3-8.8z"/></g><g><path class="st0" d="M102.3 445v-3.6h3.4v3.6c3.5.2 6.3 1.3 8.4 3.2 2 1.9 3.1 4.3 3.1 7.2 0 2.8-1 5.2-3 7.2s-4.8 3.1-8.5 3.3v3.6h-3.4v-3.6c-3.3-.1-6-1.1-8.2-3-2.2-1.9-3.3-4.4-3.3-7.4 0-3.1 1.1-5.6 3.3-7.4 2.2-2 4.9-3 8.2-3.1zm0 3.2c-2.3.1-4.1.8-5.6 2-1.4 1.3-2.1 3-2.1 5.2s.7 3.9 2.1 5.2c1.4 1.3 3.3 1.9 5.6 2v-14.4zm3.5-.1v14.6c2.4-.1 4.2-.8 5.6-2.1 1.4-1.3 2-3 2-5.2s-.7-3.9-2-5.2c-1.3-1.2-3.2-1.9-5.6-2.1zM117.9 469.4l10.7-27.8h4l11.4 27.8h-4.2l-3.2-8.4H125l-3.1 8.4h-4zm8-11.4h9.4l-2.9-7.7c-.9-2.3-1.5-4.3-2-5.8-.4 1.8-.9 3.5-1.5 5.3l-3 8.2zM147 441.7h18v3.3h-14.3v8.6h6.6c2.5 0 4.4.2 5.8.7 1.4.5 2.6 1.3 3.5 2.6.9 1.3 1.3 2.8 1.3 4.5 0 1.4-.3 2.7-.9 3.9-.6 1.2-1.6 2.2-2.8 3-1.2.8-3.3 1.2-6.3 1.2H147v-27.8zm3.6 24.6h7.4c2 0 3.5-.4 4.5-1.2 1-.8 1.5-2 1.5-3.6 0-1.2-.3-2.1-.9-2.9-.6-.8-1.4-1.3-2.4-1.5-1-.3-2.7-.4-5.2-.4h-4.9v9.6zM172.3 469.4v-27.8h10.5c1.8 0 3.3.1 4.2.3 1.4.2 2.5.7 3.4 1.3.9.6 1.7 1.5 2.2 2.7.6 1.1.8 2.4.8 3.8 0 2.4-.8 4.4-2.3 6-1.5 1.6-4.2 2.5-8.1 2.5h-7.1v11.3h-3.6zm3.6-14.5h7.2c2.4 0 4.1-.4 5.1-1.3s1.5-2.1 1.5-3.7c0-1.2-.3-2.2-.9-3-.6-.8-1.4-1.4-2.3-1.6-.6-.2-1.8-.2-3.4-.2H176v9.8zM198.2 441.7h3.3v22l14.8-22h3.7v27.8h-3.3v-21.9l-14.8 21.9h-3.7v-27.8zM226.1 441.7h3.7v12.2c1.7 0 2.9-.3 3.5-1 .7-.7 1.6-2.2 2.6-4.7.8-1.8 1.4-3.1 1.9-3.9.5-.8 1.2-1.4 2.1-1.9s1.9-.8 3.1-.8h2.2v3.2h-1.4c-1.2 0-2 .3-2.6.9-.6.6-1.2 1.8-2 3.6-.9 2.4-1.7 3.8-2.4 4.4-.6.6-1.4 1.1-2.3 1.5 1.8.5 3.6 2.1 5.3 5l5.7 9.2H241l-4.6-7.5c-1.3-2.1-2.3-3.5-3.2-4.3-.9-.8-2-1.2-3.3-1.2v13h-3.7v-27.7zM245.6 469.4l10.7-27.8h4l11.4 27.8h-4.2l-3.2-8.4h-11.6l-3 8.4h-4.1zm8-11.4h9.4l-2.9-7.7c-.9-2.3-1.5-4.3-2-5.8-.4 1.8-.9 3.5-1.5 5.3l-3 8.2zM287.8 441.7h16.9v24.5h2.5v9.8H304v-6.5h-18.4v6.5h-3.3v-9.8h2.2c2.2-3.4 3.4-10.2 3.4-20.4v-4.1zm13.3 3.2h-9.7v1.4c0 2.4-.2 5.6-.6 9.7-.4 4.1-1.3 7.5-2.5 10.1h12.8v-21.2zM311.4 469.4v-27.8h10.4c2.1 0 3.8.3 5.1.8 1.3.6 2.3 1.4 3 2.6.7 1.2 1.1 2.4 1.1 3.7 0 1.2-.3 2.3-1 3.4-.6 1-1.6 1.9-2.9 2.5 1.7.5 3 1.3 3.9 2.5.9 1.2 1.4 2.6 1.4 4.2 0 1.3-.3 2.5-.8 3.6s-1.2 2-2 2.6c-.8.6-1.8 1.1-3 1.4-1.2.3-2.7.5-4.5.5h-10.7zm3.7-16.1h6c1.6 0 2.8-.1 3.5-.3.9-.3 1.6-.7 2.1-1.4.5-.6.7-1.5.7-2.4 0-.9-.2-1.7-.7-2.4-.4-.7-1.1-1.2-1.9-1.4-.8-.3-2.2-.4-4.2-.4H315v8.3zm0 12.9h6.9c1.2 0 2 0 2.5-.1.8-.2 1.6-.4 2.1-.8.6-.4 1-.9 1.4-1.5.4-.7.5-1.5.5-2.3 0-1-.3-1.9-.8-2.7s-1.3-1.3-2.2-1.6c-.9-.3-2.3-.5-4.1-.5H315v9.5zM337.6 469.4v-27.8h20.1v3.3h-16.4v8.5h15.4v3.3h-15.4v9.5h17.1v3.3h-20.8zM363.4 469.4v-27.8h10.5c1.8 0 3.3.1 4.2.3 1.4.2 2.5.7 3.4 1.3.9.6 1.7 1.5 2.2 2.7.6 1.1.8 2.4.8 3.8 0 2.4-.8 4.4-2.3 6-1.5 1.6-4.2 2.5-8.1 2.5H367v11.3h-3.6zm3.6-14.5h7.2c2.4 0 4.1-.4 5.1-1.3s1.5-2.1 1.5-3.7c0-1.2-.3-2.2-.9-3-.6-.8-1.4-1.4-2.3-1.6-.6-.2-1.8-.2-3.4-.2H367v9.8zM389.3 469.4v-27.8h20.1v3.3H393v8.5h15.4v3.3H393v9.5h17.1v3.3h-20.8zM415.2 441.7h3.3v22l14.8-22h3.7v27.8h-3.3v-21.9l-14.8 21.9h-3.7v-27.8zm13.8-6.6h2.3c-.2 1.6-.8 2.8-1.7 3.6-1 .8-2.3 1.3-3.9 1.3s-2.9-.4-3.9-1.3c-1-.8-1.5-2.1-1.7-3.6h2.3c.2.9.5 1.5 1.1 1.9.5.4 1.2.6 2.1.6 1 0 1.8-.2 2.3-.6.6-.4.9-1.1 1.1-1.9z"/></g><path class="st0" d="M89.3 242.7v166h94.3V242h-23v115.2h-11.5v-155h-24v155h-12v-115H89.3zM136.4 0c-60.2 101.9 0 185.7 0 185.7s60.2-83.8 0-185.7zM258 89.7C168.3 112 154.7 191.4 154.7 191.4S234.2 179 258 89.7zM14.4 89.7c89.7 22.3 103.3 101.7 103.3 101.7S38.2 179 14.4 89.7zM0 207.4c61.3-36.8 112.1-.9 112.1-.9s-50.3 36.7-112.1.9zM160.5 207.4c61.3-36.8 112.1-.9 112.1-.9s-50.3 36.7-112.1.9z"/></svg>