<svg id="Слой_1" xmlns="http://www.w3.org/2000/svg" viewBox="0 0 1023 768"><style>.st0{fill:#fff}</style><path d="M0 0h1023v768H0z"/><path class="st0" d="M280.1 280.9s.4 9.4 8.6 2 5.3-39.5-14.3-37.3-34 19.8-34 99.9 15.2 101.4 37.7 102.6c22.5 1.2 32.7-16.1 32.9-37.6.1-10-10.2-23.7-13.3-23.7s-5.3.1-1.6 12.1-2.2 36.9-16.8 36.3c-14.5-.6-25.1-24.8-25.1-91.1s10.2-85.9 22.3-88.9c7.9-1.9 3.6 25.7 3.6 25.7z"/><path class="st0" d="M357.4 382.8s-2.5-21.6 6.3-21.6c10 0 7.8 12.1 7.8 18.9 0 16.6 9.3 78.3 9.3 91.8s-6.1 64.8-55.2 64.8-46.2-41.3-46.2-41.3 4.3-24.6 17.2-16.6c7.2 4.5-4.1 16.4-4.1 16.4s-5.3 31.7 31.5 31.7 41.3-43.7 42.1-50.5c.8-6.7-2.7-53.1-5.3-55.6-2.7-2.5-6.1 5.3-17.4 5.3-11.2 0-26.6-8.6-26.6-33.9s5.1-23.7 8.2-23.5c3.1.2 3.1 9.2 2 18.4s4.3 25.6 13.9 25.6c9.6 0 16.1-14.1 16.3-16.7.3-2.8.2-13.2.2-13.2zM429.1 369.4s27.8 1.4 27.8 35c0 42.5-36.2 59.5-36.2 59.5s-7.8.2-4.9-7.4c2.9-7.6 26.8-16.6 26.8-50.5s-19-19.4-21.1-16.8c-2 2.7-16.6 17.2-18 50.7 0 0-3.2 4.3-11-5.9-.9-1.2.6-24.1-1.8-41.9s-2.7-15.7 0-16.1c2.7-.4 8.7 4.1 10.6 15.7 1 6.1 7.9-22.3 25.7-22.3h2.1zM499.2 364.9s35.4 3.1 35.4 38.8-22.7 33.5-22.7 33.5-17.6.3-19.2-13.3c-.6-5.5 7-7.4 8.2-3.9 0 0-.4 7 7.6 6.5 8-.4 12.5-12.4 12.5-25.5s-13.1-24.3-21.5-24.3-26.2 8.4-15.2 42.5c2.4 7.3-1.4 29.2-6.1 37.4-4.7 8.2-25.8 82.8 8.6 82.8 22.9 0 20.2-33.5 22.7-36.6 5.7-7.2 8.2 1 7.8 3.5-.4 2.5 6.3 45.8-29 45.8s-41.1-51-29.6-78.8c11.4-27.8 20.4-41.7 12.7-77.9s3.2-27.4 3.7-26.2c.4 1-.4 7.1 1.8 7.5 2.2.4 5.8-12 20.7-12h1.6zM572.6 376.8s15.9 1 15.9 15.9-10.2 7.4-10 4.9 2-10.4-3.9-8.4-12.5 6.7-12.5 16.3c0 9.6 4.7 18.3 18.3 18.3 13.6 0 18.9-12.4 18.9-20.3 0-11.9-4.2-16.4-2.4-19.7 1.2-2.4 4.1-3.6 9-.5 1.9 1.2 4.2 4.6 7.6 8.1 5.5 5.6 10.3 8.9 13 18.4 2.1 7.4 2.3 33 22.5 33 14.6 0 13.8-15.5 13.5-17.3-.3-1.8 2.9-6.7 5.5-6.7s5.8 5.4 5.8 8.1c0 2.8 3.4 29.9-22.5 29.9s-36.1-23.6-37.3-41.7c-.5-7.5-3.4-2.5-3.4-.2s-4.1 23.1-29.7 23.1-33.7-24.8-33.7-33.7c0-8.9 7.1-27.5 23.5-27.5h1.9zM566.4 351.8c1.5-.9 61.8-35.1 44.2-47.8-12-8.7 3.3-11.2 6.1-8.6 2.8 2.6 9.8 6 9.8 18.9 0 12.9-11.7 24.1-52.3 44.2-14.1 6.9-9.3-5.8-7.8-6.7z"/><g><path class="st0" d="M521.3 474.7h-8.1v15.4H511v-17.4h10.3v2zM535.2 478c0 3.7-2.7 5.4-5.8 5.4h-3.5v6.7h-2.2v-17.4h5.7c3.1 0 5.8 1.7 5.8 5.3zm-2.3 0c0-2.4-1.5-3.4-3.9-3.4h-3v6.7h3c2.4.1 3.9-.9 3.9-3.3zM550.1 472.7l-5.8 12.7c-1.5 3.3-3.1 5-6.3 5v-2.1c2.1 0 3.2-1 4.4-3.5l-6.1-12.1h2.5l4.7 9.6 4.2-9.6h2.4zM563.5 485.5c0 3.3-2.7 4.9-5.9 4.9-3.7 0-6-2-6.4-5.5h2.3c.2 2 1.5 3.5 4.1 3.5 2.1 0 3.5-1.1 3.5-2.9 0-2-1.5-3.4-5.2-3.4v-2c3.8 0 4.9-1.4 4.9-2.9s-.9-2.9-3.1-2.9c-2.5 0-3.5 1.5-3.7 3.5h-2.2c.3-3.5 2.5-5.5 5.9-5.5 3.2 0 5.4 1.6 5.4 4.6 0 1.9-1.1 3.3-3.2 4 2.2.8 3.6 2.2 3.6 4.6zM580.5 472.7v17.4h-2.2v-13.5l-10 13.5h-1.7v-17.4h2.2v13.5l10-13.5h1.7zM598.1 472.7v17.4h-2.2V482h-9.3v8.1h-2.2v-17.4h2.2v7.3h9.3v-7.3h2.2zM613 484.9h2.2c-.7 3.6-3.1 5.5-6.4 5.5-4.5 0-7.5-3.5-7.5-9s3-9 7.5-9c3.3 0 5.7 1.9 6.4 5.5H613c-.7-2.5-2.3-3.5-4.2-3.5-3.2 0-5.1 2.6-5.1 7 0 4.3 1.9 7 5.1 7 1.9 0 3.5-1 4.2-3.5zM631.6 488.2v1.9c-.2.1-.5.2-1.1.2-1.8 0-2.6-1.4-3.1-3.4l-.7-2.8c-.3-1-.9-2.1-3.1-2.1h-3v8.1h-2.2v-17.4h2.2v7.3h3c2.4 0 3-1.1 3.1-2.1l.3-2.1c.3-2 1.2-3.4 3-3.4.4 0 .8.1 1 .2v1.9c-.2 0-.3-.1-.4-.1-.9 0-1.3.5-1.5 1.5l-.3 1.9c-.3 1.6-.8 2.7-2.1 3.1 1.3.4 1.9 1.6 2.2 3.1l.6 2.6c.2.8.7 1.5 1.6 1.5.2.2.3.2.5.1zM647.4 472.7v17.4h-2.2v-13.5l-10 13.5h-1.7v-17.4h2.2v13.5l10-13.5h1.7zM665.3 472.7v17.4h-2.2v-13.5l-10 13.5h-1.7v-17.4h2.2v13.5l10-13.5h1.7zm-10.7-5.3h1.4c.3 1.3 1 2 2.3 2 1.3 0 2-.7 2.3-2h1.4c-.2 2.3-1.5 3.7-3.7 3.7-2.2.1-3.4-1.3-3.7-3.7zM686.1 478c0 3.7-2.7 5.4-5.8 5.4h-3.5v6.7h-2.2v-17.4h5.7c3.1 0 5.8 1.7 5.8 5.3zm-2.3 0c0-2.4-1.5-3.4-3.9-3.4h-3v6.7h3c2.4.1 3.9-.9 3.9-3.3zM699.8 488.1v2H688.9v-17.4h10.7v2h-8.5v5.4h7.8v2h-7.8v6.1h8.7zM714.1 484.9h2.2c-.7 3.6-3.1 5.5-6.4 5.5-4.5 0-7.5-3.5-7.5-9s3-9 7.5-9c3.3 0 5.7 1.9 6.4 5.5h-2.2c-.7-2.5-2.3-3.5-4.2-3.5-3.2 0-5.1 2.6-5.1 7 0 4.3 1.9 7 5.1 7 1.9 0 3.5-1 4.2-3.5zM730.4 474.7H725v15.4h-2.2v-15.4h-5.4v-2h13v2zM746.5 481.4c0 5.5-3 9-7.5 9s-7.5-3.5-7.5-9 3-9 7.5-9 7.5 3.5 7.5 9zm-2.4 0c0-4.3-2.1-7-5.1-7-3 0-5.1 2.6-5.1 7 0 4.3 2.1 7 5.1 7 3 0 5.1-2.7 5.1-7zM761.2 478c0 3.7-2.7 5.4-5.8 5.4h-3.5v6.7h-2.2v-17.4h5.7c3.1 0 5.8 1.7 5.8 5.3zm-2.3 0c0-2.4-1.5-3.4-3.9-3.4h-3v6.7h3c2.4.1 3.9-.9 3.9-3.3zM771.9 485.4h-6.8l-1.6 4.7h-2.3l6.2-17.4h2.4l6.3 17.4h-2.4l-1.8-4.7zm-.7-2l-2.8-7.7-2.7 7.7h5.5zM792 472.7v17.4h-2.2V482h-9.3v8.1h-2.2v-17.4h2.2v7.3h9.3v-7.3h2.2z"/></g></svg>