<svg id="Layer_1" xmlns="http://www.w3.org/2000/svg" viewBox="0 0 71.1 71.5"><style>.st0{fill:#26a65b}</style><path class="st0" d="M11.3 58.6c-1.7 0-3.4-.4-4.8-1.2-.4-.2-.5-.6-.5-1.1s.4-.7.8-.8c3.7-.5 6.9-4.6 6.9-6.8 0-.6.4-1 1-1s1 .4 1 1c0 2.6-2.4 6.1-5.7 7.8 1.4.2 2.9 0 4.3-.5 2.1-.8 3.6-2.2 4.1-3.9.2-.5.7-.8 1.3-.6.5.2.8.7.6 1.3-.8 2.3-2.7 4.2-5.4 5.2-1 .3-2.3.6-3.6.6zM43.2 58.6c-1.3 0-2.6-.2-3.8-.7-2.6-1-4.6-2.8-5.4-5.2-.2-.5.1-1.1.6-1.3.5-.2 1.1.1 1.3.6.6 1.8 2.1 3.1 4.1 3.9 1.4.5 2.9.7 4.3.5-2.8-1.5-5-4.4-5.5-6.8-.1-.5.2-1.1.8-1.2.5-.1 1.1.2 1.2.8.5 2.5 3.6 5.8 6.8 6.2.4.1.8.4.8.8s-.1.8-.5 1.1c-1.3.8-2.9 1.3-4.7 1.3z"/><path class="st0" d="M8.8 51.3c-1.4 0-2.6-.3-3.7-.9C.8 47.9.3 41.2.2 36.4c0-.8-.1-1.7-.1-2.6-.2-4.7-.5-9.9 2.8-12.1 2.5-1.6 6.3-1 11.8 1.7.5.2.7.8.4 1.3-.2.5-.9.7-1.3.4-4.7-2.4-8.1-3-9.8-1.9-2.4 1.5-2.1 6.4-1.9 10.3 0 1 .1 1.9.1 2.7C2.3 43 3.6 47 6.1 48.5c2.2 1.3 5.6.7 10.2-1.8.5-.3 1.1-.1 1.4.4.3.5.1 1.1-.4 1.4-3.3 1.8-6.1 2.8-8.5 2.8zM43.9 51.2c-2.2 0-4.7-.8-7.7-2.3-.5-.3-.7-.9-.4-1.3.3-.5.9-.7 1.3-.4 4.2 2.2 7.4 2.6 9.5 1.4 2.5-1.5 3.8-5.5 3.9-12.2 0-.8.1-1.8.1-2.7.2-3.9.5-8.8-1.9-10.3-1.8-1.2-5.1-.5-9.8 1.9-.5.2-1.1 0-1.3-.4-.2-.5 0-1.1.4-1.3 5.5-2.8 9.4-3.3 11.8-1.7 3.3 2.2 3 7.5 2.8 12.1 0 .9-.1 1.8-.1 2.6-.1 7.6-1.6 12-4.8 13.9-1.2.4-2.4.7-3.8.7zM19.6 40.7c-.9 0-1.5-.7-1.5-1.5s.7-1.5 1.5-1.5c.9 0 1.5.7 1.5 1.5s-.7 1.5-1.5 1.5zm0-2c-.3 0-.5.2-.5.5s.2.5.5.5.5-.2.5-.5-.3-.5-.5-.5zM33 40.7c-.9 0-1.5-.7-1.5-1.5s.7-1.5 1.5-1.5 1.5.7 1.5 1.5-.7 1.5-1.5 1.5zm0-2c-.3 0-.5.2-.5.5s.2.5.5.5.5-.2.5-.5-.3-.5-.5-.5z"/><path d="M59 37.6c-.4 0-.8-.2-.9-.6-.2-.5 0-1.1.5-1.3 6.4-2.8 10.5-9.1 10.5-16.1C69.1 9.9 61.2 2 51.5 2c-6.2 0-11.8 3.2-15 8.5-.3.5-1.7 3-2 5.5-.1.5-.5 1-1.1.9-.5-.1-1-.5-.9-1.1.3-2.9 1.9-5.8 2.3-6.3 3.6-6 9.8-9.5 16.7-9.5 10.8 0 19.6 8.8 19.6 19.6 0 7.8-4.6 14.8-11.7 17.9-.1 0-.3.1-.4.1z"/><path d="M57.9 24.9h-.2c-.5-.1-.9-.6-.8-1.2 1.5-8.2-.7-16-6.2-22.1-.4-.4-.3-1 .1-1.4.4-.4 1-.3 1.4.1 5.8 6.6 8.2 15 6.6 23.8 0 .5-.4.8-.9.8z"/><path d="M44.4 17.7s-.1 0 0 0c-.6 0-1-.5-1-1.1.5-6 2.9-11.7 7-16.3.4-.4 1-.4 1.4-.1.4.4.4 1 .1 1.4-3.8 4.3-6.1 9.5-6.5 15.1 0 .6-.5 1-1 1z"/><path d="M50.5 11.9c-4.8 0-9.5-1.2-13.6-3.5-.5-.3-.6-.9-.4-1.4.3-.5.9-.6 1.4-.4 8 4.5 18 4.3 26.9-.5.5-.3 1.1-.1 1.4.4.3.5.1 1.1-.4 1.4-5 2.7-10.2 4-15.3 4zM65.5 31.5c-.2 0-.3 0-.5-.1-2.5-1.4-5.2-2.4-8.1-2.9-.5-.1-.9-.6-.8-1.2.1-.5.6-.9 1.2-.8 3.1.5 6 1.6 8.7 3.1.5.3.6.9.4 1.4-.2.3-.6.5-.9.5zM70.1 20H52.7c-.6 0-1-.4-1-1s.4-1 1-1h17.4c.6 0 1 .4 1 1s-.5 1-1 1z"/><g><path class="st0" d="M12.4 71.5c-.6 0-1-.4-1-1v-2.7-2.7c0-.6.4-1 1-1 2.6 0 5-1.6 6.2-4.2 1.6-3.5.6-7.9-2.8-12-3.5-4.1-6.4-8-6.4-13.2 0-9.3 7.6-17 17-17s17 7.6 17 17c0 3.8-2.3 7.7-4.3 11.2-1 1.7-1.9 3.3-2.4 4.6-.1.3-.3.8-.4 1.3-1.8 5.5-6.3 19.7-23.9 19.7zm1-5.5v3.4c15.3-.4 19.2-12.8 20.8-18.1.2-.6.3-1.1.5-1.4.6-1.5 1.5-3.2 2.6-5 1.9-3.2 4-6.9 4-10.2 0-8.2-6.7-15-15-15s-15 6.7-15 15c0 4.6 2.7 8.1 5.9 12 4 4.7 5.1 9.8 3.1 14.1-1.3 2.9-3.9 4.9-6.9 5.2z"/></g></svg>