<svg id="Слой_1" xmlns="http://www.w3.org/2000/svg" viewBox="0 0 602.3 344.8"><style>.st0{fill:#7b1c1b}.st1{fill:#fff}</style><circle class="st0" cx="302.3" cy="136.3" r="136.3"/><path class="st1" d="M328.6 179s-94.4 3-95.1 1.3c-.9-2.1 29.7-20.6 53.3-39.3 16.1-12.7 37.4-30.8 55.8-45.1 12.3-9.6 25.1-13.4 23-15-2.1-1.6-52.5 2.5-63.1.1-24.7-5.6-50.7-11.9-50.7-11.9s-17.9-4.3-18.1 11.9c-.2 16.2.2 21.7 1.1 23.1.9 1.4 9.3 10.3 12.5 10.6 3.2.2-1.9-9.9-1.9-9.9l-3.2-7.3s-6.1-22.9 14.2-19c0 0 34.3 10.1 43.5 10.5 9.3.4 39.8-1.2 41-.2 1.1 1-112.1 87.3-121.6 90.7-9.5 3.4-25-.4-30.2 2.4-5.2 2.8-.2 11.6 2.6 13.6 2.8 1.9 9.9 6.7 27.4-6.5 0 0 89.2-3.4 129.5-1.9s69.6 4.3 69.6 4.3-19.8-8.3-89.6-12.4zm-129.5 14c-3.2 0-6.5-4.7-3.9-6.5 2.6-1.7 13.4 0 13.4 0s-6.3 6.5-9.5 6.5z"/><path class="st0" d="M293.4 313.9c-5.3.5-8.3 5.8-8.3 5.8s-2.4-6.7-8-5.9c-5.6.8-7.4 5.8-7.4 5.8s-1.8-2-1.8-5.8c0-1.9-4.6 4.8-12.4 6.4-1.7.3-7.2 2.1-13.3 1.7-6-.5-9.7-2.9-10.5-4-1.6-2.2-2.4-5.4-4.7-5.2-2.3.2-6.1 7.6-12.9 7-6.8-.7-13.4-3.3-8.6-7 1.1-.9.5-2.2-.7-2-17 2.9-23.2 15.5-148 9.9-2.5-.2-5.3-.5-8.4-.6-7.1-.4-33.1.7-33.3.2-.3-.7 9.6-6.6 17.2-12.6 5.2-4.1 12-9.9 17.9-14.5 4-3.1 8.1-4.3 7.4-4.8-.7-.5-16.9.8-20.3 0-7.9-1.8-16.3-3.8-16.3-3.8s-5.8-1.4-5.8 3.8c-.1 5.2.1 7 .3 7.4.3.5 3 3.3 4 3.4 1 .1-.6-3.2-.6-3.2l-1-2.3s-2-7.4 4.6-6.1c0 0 11 3.3 14 3.4 3 .1 12.8-.4 13.2-.1.4.3-36.1 28.1-39.1 29.2-3.1 1.1-8-.1-9.7.8-1.7.9-.1 3.7.8 4.4s3.2 2.1 8.8-2.1c0 0 23.3-.9 37.4-.7.4 0 115.3 8.9 152.7-7.9 0 0 2.7 6.9 11.8 7.1 6.4.1 8.6.6 14.4-5.9 0 0 3.8 8.4 17.4 8 13.6-.4 21.7-6.2 21.7-6.2s.4 5.3 4 5.3 2.9-7.6 6.8-6.9c3.9.6 5.8 8.4 8.1 7.6 2.3-.7 4.9-8.9 11.4-7.6 6.5 1.3 9.5 9.3 9.5 9.3s1.2 2.5 2.2.8c.8-2-6.1-13-14.5-12.1zM4 324.2c-1 0-2.1-1.5-1.2-2.1.8-.6 4.3 0 4.3 0S5 324.2 4 324.2zM600.5 318.1c-63.8 8.9-117 4.3-138.2.3-21.2-4-97.6 5.7-111.8 6.2-14.2.5-23.6-6.5-23.6-6.5s-.5 3.2-3.7 4.2c-4.1 1.2-13.7 1.2-11.3-3.8 3.1-6.2 10.7 1.4 12.6.4.4-.2-.2-4.6-7.9-5.3-7.8-.6-9.1 9.1-4.7 10.4 13.5 4.1 15.9-3 15.9-3 9.9 9 56.3 4.3 56.3 4.3s63-7.5 85.5-2.8c41.4 8.7 114.9 1.8 126.2-.8 11.1-2.6 4.7-3.6 4.7-3.6z"/><g><path class="st0" d="M194.5 335.5h7.5v9.2h-1.3v-8.2h-5v8.2h-1.3v-9.2zM220.7 342.2h-3.9l-.9 2.5h-1.3l3.5-9.2h1.4l3.6 9.2h-1.4l-1-2.5zm-.4-1.1l-1.6-4.1-1.5 4.1h3.1zM243.3 335.5v9.2H242v-4.3h-5.3v4.3h-1.3v-9.2h1.3v3.9h5.3v-3.9h1.3zM261.9 342.2H258l-.9 2.5h-1.3l3.5-9.2h1.4l3.6 9.2h-1.4l-1-2.5zm-.3-1.1L260 337l-1.5 4.1h3.1zM283.1 342.3c0 1.7-1.5 2.6-3.4 2.6-2.1 0-3.4-1-3.6-2.9h1.3c.1 1 .8 1.8 2.3 1.8 1.2 0 2-.6 2-1.5 0-1-.8-1.8-3-1.8v-1.1c2.2 0 2.8-.7 2.8-1.5s-.5-1.5-1.8-1.5c-1.4 0-2 .8-2.1 1.8h-1.3c.2-1.9 1.4-2.9 3.4-2.9 1.8 0 3.1.8 3.1 2.4 0 1-.6 1.7-1.8 2.1 1.3.5 2.1 1.2 2.1 2.5zM303.9 335.5v9.2h-1.3v-7.1l-5.7 7.1h-1v-9.2h1.3v7.1l5.7-7.1h1zM322.6 342.2h-3.9l-.9 2.5h-1.3l3.5-9.2h1.4l3.6 9.2h-1.4l-1-2.5zm-.4-1.1l-1.6-4.1-1.5 4.1h3.1zM342.8 336.5h-3.1v8.2h-1.3v-8.2h-3.1v-1.1h7.4v1.1zM361.3 341.9h1.3c-.4 1.9-1.7 2.9-3.6 2.9-2.6 0-4.3-1.8-4.3-4.7s1.7-4.7 4.3-4.7c1.9 0 3.2 1 3.6 2.9h-1.3c-.4-1.3-1.3-1.8-2.4-1.8-1.8 0-2.9 1.4-2.9 3.7 0 2.3 1.1 3.7 2.9 3.7 1.1-.1 2-.6 2.4-2zM383 343.7v1c-.1.1-.3.1-.6.1-1 0-1.5-.7-1.8-1.8l-.4-1.5c-.1-.6-.5-1.1-1.8-1.1h-1.7v4.3h-1.3v-9.2h1.3v3.9h1.7c1.3 0 1.7-.6 1.8-1.1l.2-1.1c.2-1.1.7-1.8 1.7-1.8.3 0 .4 0 .6.1v1h-.2c-.5 0-.7.3-.8.8l-.2 1c-.2.8-.5 1.4-1.2 1.6.7.2 1.1.9 1.3 1.6l.3 1.4c.1.4.4.8.9.8h.2zM403.3 335.5v9.2H402v-7.1l-5.7 7.1h-1v-9.2h1.3v7.1l5.7-7.1h1zM424.6 335.5v9.2h-1.3v-7.1l-5.7 7.1h-1v-9.2h1.3v7.1l5.7-7.1h1zm-6.1-2.8h.8c.2.7.6 1.1 1.3 1.1s1.1-.4 1.3-1.1h.8c-.1 1.2-.8 2-2.1 2-1.2 0-1.9-.8-2.1-2zM458.8 338.3c0 1.9-1.5 2.8-3.3 2.8h-2v3.6h-1.3v-9.2h3.3c1.8 0 3.3.9 3.3 2.8zm-1.3 0c0-1.3-.9-1.8-2.2-1.8h-1.7v3.6h1.7c1.4 0 2.2-.5 2.2-1.8zM477.8 343.6v1.1H471.6v-9.2h6.1v1.1h-4.8v2.8h4.4v1.1h-4.4v3.2h4.9zM497.1 341.9h1.3c-.4 1.9-1.7 2.9-3.6 2.9-2.6 0-4.3-1.8-4.3-4.7s1.7-4.7 4.3-4.7c1.9 0 3.2 1 3.6 2.9h-1.3c-.4-1.3-1.3-1.8-2.4-1.8-1.8 0-2.9 1.4-2.9 3.7 0 2.3 1.1 3.7 2.9 3.7 1.1-.1 2-.6 2.4-2zM517.6 336.5h-3.1v8.2h-1.3v-8.2h-3.1v-1.1h7.4v1.1zM537.9 340.1c0 2.9-1.7 4.7-4.3 4.7-2.6 0-4.3-1.8-4.3-4.7s1.7-4.7 4.3-4.7c2.6 0 4.3 1.8 4.3 4.7zm-1.3 0c0-2.3-1.2-3.7-2.9-3.7s-2.9 1.4-2.9 3.7c0 2.3 1.2 3.7 2.9 3.7s2.9-1.4 2.9-3.7zM557.5 338.3c0 1.9-1.5 2.8-3.3 2.8h-2v3.6H551v-9.2h3.3c1.7 0 3.2.9 3.2 2.8zm-1.3 0c0-1.3-.9-1.8-2.2-1.8h-1.7v3.6h1.7c1.3 0 2.2-.5 2.2-1.8zM574.8 342.2h-3.9l-.9 2.5h-1.3l3.5-9.2h1.4l3.6 9.2h-1.4l-1-2.5zm-.4-1.1l-1.6-4.1-1.5 4.1h3.1zM597.4 335.5v9.2h-1.3v-4.3h-5.3v4.3h-1.3v-9.2h1.3v3.9h5.3v-3.9h1.3z"/></g></svg>